<?xml version="1.0" encoding="UTF-8"?>
<svg width="86px" height="104px" viewBox="0 0 86 104" version="1.1" xmlns="http://www.w3.org/2000/svg" xmlns:xlink="http://www.w3.org/1999/xlink">
    <!-- Generator: Sketch 40.3 (33839) - http://www.bohemiancoding.com/sketch -->
    <title>entel360</title>
    <desc>Created with Sketch.</desc>
    <defs></defs>
    <g id="Page-1" stroke="none" stroke-width="1" fill="none" fill-rule="evenodd">
        <g id="entel360">
            <g id="360" transform="translate(19.846154, 72.203822)" fill="#FFFFFF">
                <path d="M37.7699045,13.0601833 C37.2575292,12.9128352 36.7235436,13.2109243 36.5770955,13.7256735 C36.430551,14.2404226 36.7271131,14.77708 37.2392955,14.9242343 C41.6427712,16.1896834 44.3782051,18.0251372 44.3782051,19.7143092 C44.3782051,20.9504825 42.8818878,22.3073457 40.2730282,23.4369824 C37.4027231,24.6797477 33.3309263,25.5890409 28.8030952,25.9986105 L24.851216,25.9448091 C24.8466817,25.9448091 24.8422439,25.9447121 24.8378061,25.9447121 C24.3110561,25.9447121 23.8805875,26.3701799 23.8734484,26.901021 C23.8662128,27.4363213 24.2923401,27.876233 24.824975,27.8834066 L28.8266349,27.9378866 C28.8310728,27.9378866 28.8354141,27.9379835 28.8397554,27.9379835 C28.8684083,27.9379835 28.8969647,27.9367233 28.9254247,27.9342029 C33.6715772,27.5090259 37.9726936,26.5441864 41.0366228,25.2175684 C45.3932119,23.3310275 46.3076923,21.1836222 46.3076923,19.7143092 C46.3076923,17.0055268 43.2755032,14.642334 37.7699045,13.0601833 L37.7699045,13.0601833 Z" id="Shape"></path>
                <path d="M9.34633942,11.9558478 C8.81360801,11.9558478 8.38159583,12.3898462 8.38159583,12.9252434 C8.38159583,13.4606407 8.81360801,13.8946391 9.34633942,13.8946391 L13.3134615,13.8946391 L13.3134615,17.9014423 L9.34633942,17.9014423 C8.81360801,17.9014423 8.38159583,18.3354407 8.38159583,18.870838 C8.38159583,19.4062352 8.81360801,19.8402336 9.34633942,19.8402336 L14.2782051,19.8402336 C14.811033,19.8402336 15.2429487,19.4062352 15.2429487,18.870838 L15.2429487,6.9796489 C15.2429487,6.44425167 14.811033,6.01025322 14.2782051,6.01025322 L9.34633942,6.01025322 C8.81360801,6.01025322 8.38159583,6.44425167 8.38159583,6.9796489 C8.38159583,7.51504614 8.81360801,7.94904459 9.34633942,7.94904459 L13.3134615,7.94904459 L13.3134615,11.9558478 L9.34633942,11.9558478 L9.34633942,11.9558478 Z" id="Shape"></path>
                <path d="M18.2219804,19.8403306 L24.1391388,19.8403306 C24.6718702,19.8403306 25.1038824,19.4063321 25.1038824,18.8709349 L25.1038824,12.9253404 C25.1038824,12.3899431 24.6719667,11.9559447 24.1391388,11.9559447 L19.186724,11.9559447 L19.186724,7.94904459 L23.1538462,7.94904459 C23.686674,7.94904459 24.1185897,7.51504614 24.1185897,6.9796489 C24.1185897,6.44425167 23.686674,6.01025322 23.1538462,6.01025322 L18.2219804,6.01025322 C17.6891526,6.01025322 17.2572369,6.44425167 17.2572369,6.9796489 L17.2572369,18.8709349 C17.2572369,19.4063321 17.6891526,19.8403306 18.2219804,19.8403306 L18.2219804,19.8403306 Z M19.186724,13.8946391 L23.1743952,13.8946391 L23.1743952,17.9014423 L19.186724,17.9014423 L19.186724,13.8946391 L19.186724,13.8946391 Z" id="Shape"></path>
                <path d="M28.0857119,19.8403306 L34.0028702,19.8403306 C34.5356016,19.8403306 34.9676138,19.4063321 34.9676138,18.8709349 L34.9676138,6.9796489 C34.9676138,6.44425167 34.5356016,6.01025322 34.0028702,6.01025322 L28.0857119,6.01025322 C27.5529804,6.01025322 27.1209683,6.44425167 27.1209683,6.9796489 L27.1209683,18.8709349 C27.1209683,19.4063321 27.5529804,19.8403306 28.0857119,19.8403306 L28.0857119,19.8403306 Z M29.0504554,7.94904459 L33.0381266,7.94904459 L33.0381266,17.9015392 L29.0504554,17.9015392 L29.0504554,7.94904459 L29.0504554,7.94904459 Z" id="Shape"></path>
                <path d="M17.6410119,22.2512176 C17.2968878,21.8425204 16.6881346,21.7914333 16.2813987,22.1372167 C15.8745663,22.4830002 15.8238208,23.0945919 16.1678484,23.503386 L18.3255939,26.0664682 C13.7723901,25.7175827 9.64859359,24.8790555 6.61650096,23.6769079 C3.63785513,22.4957962 1.92948718,21.0515905 1.92948718,19.7143092 C1.92948718,18.1615311 4.21940256,16.4881603 8.05493365,15.2380277 C8.56180994,15.0728426 8.83936667,14.5261035 8.67497436,14.016783 C8.51067853,13.5075594 7.96637019,13.2286643 7.45968686,13.3937524 C5.22833141,14.120993 3.45889519,14.9861787 2.20038718,15.9651714 C0.740344231,17.1013031 0,18.3625838 0,19.7143092 C0,21.9540009 2.04313397,23.947757 5.90828269,25.4802747 C9.04987372,26.7258512 13.2622337,27.6002461 17.8929064,27.9772441 L15.9688218,30.1199963 C15.6118667,30.5174485 15.6431244,31.1304943 16.0387657,31.4890738 C16.2232247,31.6563915 16.4543772,31.7387901 16.684758,31.7387901 C16.9482295,31.7387901 17.2108327,31.6308964 17.4012731,31.4187926 L20.9116856,27.5097045 C21.0716401,27.3316265 21.1602035,27.1002318 21.1602035,26.8603064 L21.1602035,26.7862445 C21.1602035,26.5569824 21.079358,26.3351847 20.9320417,26.1602088 L17.6410119,22.2512176 L17.6410119,22.2512176 Z" id="Shape"></path>
                <path d="M36.7966712,5.96042629 L40.7404465,5.96042629 C41.2731779,5.96042629 41.7051901,5.52642784 41.7051901,4.9910306 L41.7051901,1.02678391 C41.7051901,0.491386671 41.2731779,0.0573882243 40.7404465,0.0573882243 L36.7966712,0.0573882243 C36.2639397,0.0573882243 35.8319276,0.491386671 35.8319276,1.02678391 L35.8319276,4.9910306 C35.8319276,5.52642784 36.2639397,5.96042629 36.7966712,5.96042629 L36.7966712,5.96042629 Z M37.7614147,1.99617959 L39.7757029,1.99617959 L39.7757029,4.02163492 L37.7614147,4.02163492 L37.7614147,1.99617959 L37.7614147,1.99617959 Z" id="Shape"></path>
            </g>
            <g id="Group-2">
                <path d="M38.8567993,19.8343228 C37.1234048,16.0387186 33.5351089,13.2233952 28.0911427,13.2233952 C22.6456384,13.2233952 19.0573425,16.0387186 17.324717,19.8343228 C16.3342058,22.1606609 15.9635332,23.8755747 15.8397193,26.6908981 L40.341797,26.6908981 C40.2172141,23.8755747 39.8465414,22.1606609 38.8567993,19.8343228 L38.8567993,19.8343228 Z M15.8397193,37.5871852 C15.8397193,45.7905878 20.9130129,51.7885511 29.946813,51.7885511 C37.0011289,51.7885511 40.4648419,49.8302997 44.5483933,45.7905878 L54.3250769,55.2176088 C47.7667856,61.7068676 41.455353,65.256054 29.8222301,65.256054 C14.6023493,65.256054 0,58.4010188 0,32.5671926 C0,11.7541291 11.3839571,0 28.0911427,0 C46.0341601,0 56.1807473,12.9785175 56.1807473,30.4865023 L56.1807473,37.5871852 L15.8397193,37.5871852 L15.8397193,37.5871852 Z" id="Fill-4" fill="#FFFFFF"></path>
                <path d="M71.6755908,4.19532909 L62.625641,13.2581138 C69.0878035,18.2295929 73.272867,26.024866 73.272867,34.814281 C73.272867,43.6075462 69.0878035,51.4012792 62.6264101,56.3719883 L71.6771289,65.435543 C80.4140833,58.1138541 85.9741732,47.1174597 85.9741732,34.814281 C85.9741732,22.5157225 80.4140833,11.5177881 71.6755908,4.19532909" id="Fill-9" fill="#E77939"></path>
            </g>
        </g>
    </g>
</svg>