<?xml version="1.0" encoding="UTF-8"?>
<svg width="282px" height="18px" viewBox="0 0 282 18" version="1.1" xmlns="http://www.w3.org/2000/svg" xmlns:xlink="http://www.w3.org/1999/xlink">
    <!-- Generator: Sketch 41.2 (35397) - http://www.bohemiancoding.com/sketch -->
    <title>Elige la experiencia</title>
    <desc>Created with Sketch.</desc>
    <defs></defs>
    <g id="Page-1" stroke="none" stroke-width="1" fill="none" fill-rule="evenodd">
        <g id="iPhone-7-Copy" transform="translate(-47.000000, -543.000000)" fill="#FFFFFF">
            <path d="M49.46,554.504 L55.75,554.504 L55.75,556 L47.777,556 L47.777,543.964 L55.495,543.964 L55.495,545.443 L49.46,545.443 L49.46,549.047 L55.138,549.047 L55.138,550.492 L49.46,550.492 L49.46,554.504 Z M59.541,556 L57.943,556 L57.943,543.148 L59.541,543.148 L59.541,556 Z M63.944,556 L62.346,556 L62.346,547.942 L63.944,547.942 L63.944,556 Z M64.216,545.035 C64.216,545.329668 64.1111677,545.573332 63.9015,545.766 C63.6918323,545.958668 63.4396681,546.055 63.145,546.055 C62.8503319,546.055 62.601001,545.955834 62.397,545.7575 C62.192999,545.559166 62.091,545.318335 62.091,545.035 C62.091,544.740332 62.192999,544.493834 62.397,544.2955 C62.601001,544.097166 62.8503319,543.998 63.145,543.998 C63.4396681,543.998 63.6918323,544.097166 63.9015,544.2955 C64.1111677,544.493834 64.216,544.740332 64.216,545.035 Z M67.361,557.377 C67.7123351,557.773669 68.1514974,558.090999 68.6785,558.329 C69.2055026,558.567001 69.7466639,558.686 70.302,558.686 C70.8346693,558.686 71.2823315,558.609501 71.645,558.4565 C72.0076685,558.303499 72.2994989,558.093835 72.5205,557.8275 C72.7415011,557.561165 72.9001662,557.246668 72.9965,556.884 C73.0928338,556.521332 73.141,556.130335 73.141,555.711 L73.141,554.674 L73.107,554.674 C72.8123319,555.127336 72.4100025,555.472999 71.9,555.711 C71.3899974,555.949001 70.8460029,556.068 70.268,556.068 C69.6559969,556.068 69.0978359,555.960334 68.5935,555.745 C68.0891641,555.529666 67.6613351,555.235002 67.31,554.861 C66.9586649,554.486998 66.6866676,554.047836 66.494,553.5435 C66.3013324,553.039164 66.205,552.498003 66.205,551.92 C66.205,551.341997 66.3013324,550.798003 66.494,550.288 C66.6866676,549.777997 66.9586649,549.333169 67.31,548.9535 C67.6613351,548.573831 68.0863308,548.273501 68.585,548.0525 C69.0836692,547.831499 69.6389969,547.721 70.251,547.721 C70.8290029,547.721 71.3814974,547.845665 71.9085,548.095 C72.4355026,548.344335 72.8519985,548.723997 73.158,549.234 L73.192,549.234 L73.192,547.942 L74.739,547.942 L74.739,555.592 C74.739,556.181336 74.6653341,556.745164 74.518,557.2835 C74.3706659,557.821836 74.1213351,558.297831 73.77,558.7115 C73.4186649,559.125169 72.9596695,559.456665 72.393,559.706 C71.8263305,559.955335 71.1236709,560.08 70.285,560.08 C69.5823298,560.08 68.8768369,559.952501 68.1685,559.6975 C67.4601631,559.442499 66.8510025,559.082669 66.341,558.618 L67.361,557.377 Z M67.854,551.886 C67.854,552.260002 67.9134994,552.616998 68.0325,552.957 C68.1515006,553.297002 68.3271655,553.597332 68.5595,553.858 C68.7918345,554.118668 69.0723317,554.328333 69.401,554.487 C69.7296683,554.645667 70.1036646,554.725 70.523,554.725 C70.931002,554.725 71.3049983,554.651334 71.645,554.504 C71.9850017,554.356666 72.2739988,554.155501 72.512,553.9005 C72.7500012,553.645499 72.934166,553.345168 73.0645,552.9995 C73.194834,552.653832 73.26,552.282669 73.26,551.886 C73.26,551.500665 73.194834,551.138002 73.0645,550.798 C72.934166,550.457998 72.7471679,550.157668 72.5035,549.897 C72.2598321,549.636332 71.970835,549.429501 71.6365,549.2765 C71.302165,549.123499 70.931002,549.047 70.523,549.047 C70.1036646,549.047 69.7296683,549.123499 69.401,549.2765 C69.0723317,549.429501 68.7918345,549.633499 68.5595,549.8885 C68.3271655,550.143501 68.1515006,550.443832 68.0325,550.7895 C67.9134994,551.135168 67.854,551.500665 67.854,551.886 Z M83.375,551.257 C83.3636666,550.939665 83.3098338,550.642168 83.2135,550.3645 C83.1171662,550.086832 82.9755009,549.846001 82.7885,549.642 C82.6014991,549.437999 82.3691681,549.276501 82.0915,549.1575 C81.8138319,549.038499 81.4880019,548.979 81.114,548.979 C80.7739983,548.979 80.4538348,549.038499 80.1535,549.1575 C79.8531652,549.276501 79.5925011,549.437999 79.3715,549.642 C79.1504989,549.846001 78.9691674,550.086832 78.8275,550.3645 C78.6858326,550.642168 78.6036668,550.939665 78.581,551.257 L83.375,551.257 Z M84.99,551.903 L84.99,552.175 C84.99,552.265667 84.9843334,552.356333 84.973,552.447 L78.581,552.447 C78.5923334,552.787002 78.6688326,553.107165 78.8105,553.4075 C78.9521674,553.707835 79.1419988,553.968499 79.38,554.1895 C79.6180012,554.410501 79.8928318,554.583333 80.2045,554.708 C80.5161682,554.832667 80.8476649,554.895 81.199,554.895 C81.7430027,554.895 82.2133313,554.776001 82.61,554.538 C83.0066686,554.299999 83.3183322,554.011002 83.545,553.671 L84.667,554.572 C84.2363312,555.138669 83.7291696,555.555165 83.1455,555.8215 C82.5618304,556.087835 81.9130036,556.221 81.199,556.221 C80.5869969,556.221 80.0203359,556.119001 79.499,555.915 C78.9776641,555.710999 78.5300019,555.424835 78.156,555.0565 C77.7819981,554.688165 77.4873344,554.243336 77.272,553.722 C77.0566656,553.200664 76.949,552.62267 76.949,551.988 C76.949,551.364664 77.0538323,550.789503 77.2635,550.2625 C77.4731677,549.735497 77.7649981,549.285002 78.139,548.911 C78.5130019,548.536998 78.9549974,548.245168 79.465,548.0355 C79.9750025,547.825832 80.5246637,547.721 81.114,547.721 C81.7033363,547.721 82.2388309,547.817332 82.7205,548.01 C83.2021691,548.202668 83.610165,548.480332 83.9445,548.843 C84.278835,549.205668 84.5366658,549.644831 84.718,550.1605 C84.8993342,550.676169 84.99,551.256997 84.99,551.903 Z M93.099,556 L91.501,556 L91.501,543.148 L93.099,543.148 L93.099,556 Z M100.902,550.781 C100.902,550.18033 100.720668,549.735501 100.358,549.4465 C99.9953315,549.157499 99.5136697,549.013 98.913,549.013 C98.4596644,549.013 98.0318353,549.100832 97.6295,549.2765 C97.2271647,549.452168 96.8900014,549.675999 96.618,549.948 L95.768,548.928 C96.1646686,548.553998 96.6491638,548.259334 97.2215,548.044 C97.7938362,547.828666 98.4086634,547.721 99.066,547.721 C99.6440029,547.721 100.145498,547.803166 100.5705,547.9675 C100.995502,548.131834 101.343999,548.355665 101.616,548.639 C101.888001,548.922335 102.091999,549.256665 102.228,549.642 C102.364001,550.027335 102.432,550.440998 102.432,550.883 L102.432,554.402 C102.432,554.674001 102.4405,554.960165 102.4575,555.2605 C102.4745,555.560835 102.505666,555.807332 102.551,556 L101.106,556 C101.015333,555.614665 100.97,555.229335 100.97,554.844 L100.919,554.844 C100.624332,555.274669 100.253169,555.608999 99.8055,555.847 C99.3578311,556.085001 98.8280031,556.204 98.216,556.204 C97.8986651,556.204 97.5671684,556.1615 97.2215,556.0765 C96.8758316,555.9915 96.5613347,555.852668 96.278,555.66 C95.9946652,555.467332 95.7595009,555.212335 95.5725,554.895 C95.3854991,554.577665 95.292,554.186669 95.292,553.722 C95.292,553.109997 95.4563317,552.625502 95.785,552.2685 C96.1136683,551.911498 96.5443307,551.639501 97.077,551.4525 C97.6096693,551.265499 98.21033,551.143667 98.879,551.087 C99.54767,551.030333 100.221997,551.002 100.902,551.002 L100.902,550.781 Z M100.511,552.158 C100.114331,552.158 99.7035021,552.175 99.2785,552.209 C98.8534979,552.243 98.4681684,552.310999 98.1225,552.413 C97.7768316,552.515001 97.4906678,552.667999 97.264,552.872 C97.0373322,553.076001 96.924,553.347998 96.924,553.688 C96.924,553.926001 96.9721662,554.124333 97.0685,554.283 C97.1648338,554.441667 97.2923325,554.571999 97.451,554.674 C97.6096675,554.776001 97.7853324,554.846833 97.978,554.8865 C98.1706676,554.926167 98.368999,554.946 98.573,554.946 C99.3210037,554.946 99.8961647,554.722169 100.2985,554.2745 C100.700835,553.826831 100.902,553.263003 100.902,552.583 L100.902,552.158 L100.511,552.158 Z M115.25,551.257 C115.238667,550.939665 115.184834,550.642168 115.0885,550.3645 C114.992166,550.086832 114.850501,549.846001 114.6635,549.642 C114.476499,549.437999 114.244168,549.276501 113.9665,549.1575 C113.688832,549.038499 113.363002,548.979 112.989,548.979 C112.648998,548.979 112.328835,549.038499 112.0285,549.1575 C111.728165,549.276501 111.467501,549.437999 111.2465,549.642 C111.025499,549.846001 110.844167,550.086832 110.7025,550.3645 C110.560833,550.642168 110.478667,550.939665 110.456,551.257 L115.25,551.257 Z M116.865,551.903 L116.865,552.175 C116.865,552.265667 116.859333,552.356333 116.848,552.447 L110.456,552.447 C110.467333,552.787002 110.543833,553.107165 110.6855,553.4075 C110.827167,553.707835 111.016999,553.968499 111.255,554.1895 C111.493001,554.410501 111.767832,554.583333 112.0795,554.708 C112.391168,554.832667 112.722665,554.895 113.074,554.895 C113.618003,554.895 114.088331,554.776001 114.485,554.538 C114.881669,554.299999 115.193332,554.011002 115.42,553.671 L116.542,554.572 C116.111331,555.138669 115.60417,555.555165 115.0205,555.8215 C114.43683,556.087835 113.788004,556.221 113.074,556.221 C112.461997,556.221 111.895336,556.119001 111.374,555.915 C110.852664,555.710999 110.405002,555.424835 110.031,555.0565 C109.656998,554.688165 109.362334,554.243336 109.147,553.722 C108.931666,553.200664 108.824,552.62267 108.824,551.988 C108.824,551.364664 108.928832,550.789503 109.1385,550.2625 C109.348168,549.735497 109.639998,549.285002 110.014,548.911 C110.388002,548.536998 110.829997,548.245168 111.34,548.0355 C111.850003,547.825832 112.399664,547.721 112.989,547.721 C113.578336,547.721 114.113831,547.817332 114.5955,548.01 C115.077169,548.202668 115.485165,548.480332 115.8195,548.843 C116.153835,549.205668 116.411666,549.644831 116.593,550.1605 C116.774334,550.676169 116.865,551.256997 116.865,551.903 Z M120.894,551.767 L117.953,547.942 L119.925,547.942 L121.897,550.713 L123.886,547.942 L125.756,547.942 L122.849,551.75 L126.096,556 L124.107,556 L121.863,552.855 L119.585,556 L117.664,556 L120.894,551.767 Z M129.207,560.08 L127.609,560.08 L127.609,547.942 L129.173,547.942 L129.173,549.2 L129.224,549.2 C129.484668,548.769331 129.867164,548.415168 130.3715,548.1375 C130.875836,547.859832 131.46233,547.721 132.131,547.721 C132.73167,547.721 133.278498,547.828666 133.7715,548.044 C134.264502,548.259334 134.689498,548.559665 135.0465,548.945 C135.403502,549.330335 135.678332,549.780831 135.871,550.2965 C136.063668,550.812169 136.16,551.364664 136.16,551.954 C136.16,552.543336 136.063668,553.098664 135.871,553.62 C135.678332,554.141336 135.406335,554.594665 135.055,554.98 C134.703665,555.365335 134.278669,555.668499 133.78,555.8895 C133.281331,556.110501 132.720336,556.221 132.097,556.221 C131.518997,556.221 130.975003,556.096335 130.465,555.847 C129.954997,555.597665 129.552668,555.246336 129.258,554.793 L129.207,554.793 L129.207,560.08 Z M134.511,551.954 C134.511,551.579998 134.454334,551.217335 134.341,550.866 C134.227666,550.514665 134.057668,550.203001 133.831,549.931 C133.604332,549.658999 133.323835,549.443667 132.9895,549.285 C132.655165,549.126333 132.267002,549.047 131.825,549.047 C131.416998,549.047 131.045835,549.126333 130.7115,549.285 C130.377165,549.443667 130.091001,549.658999 129.853,549.931 C129.614999,550.203001 129.430834,550.514665 129.3005,550.866 C129.170166,551.217335 129.105,551.585665 129.105,551.971 C129.105,552.356335 129.170166,552.724665 129.3005,553.076 C129.430834,553.427335 129.614999,553.736165 129.853,554.0025 C130.091001,554.268835 130.377165,554.481333 130.7115,554.64 C131.045835,554.798667 131.416998,554.878 131.825,554.878 C132.267002,554.878 132.655165,554.795834 132.9895,554.6315 C133.323835,554.467166 133.604332,554.249001 133.831,553.977 C134.057668,553.704999 134.227666,553.393335 134.341,553.042 C134.454334,552.690665 134.511,552.328002 134.511,551.954 Z M144.286,551.257 C144.274667,550.939665 144.220834,550.642168 144.1245,550.3645 C144.028166,550.086832 143.886501,549.846001 143.6995,549.642 C143.512499,549.437999 143.280168,549.276501 143.0025,549.1575 C142.724832,549.038499 142.399002,548.979 142.025,548.979 C141.684998,548.979 141.364835,549.038499 141.0645,549.1575 C140.764165,549.276501 140.503501,549.437999 140.2825,549.642 C140.061499,549.846001 139.880167,550.086832 139.7385,550.3645 C139.596833,550.642168 139.514667,550.939665 139.492,551.257 L144.286,551.257 Z M145.901,551.903 L145.901,552.175 C145.901,552.265667 145.895333,552.356333 145.884,552.447 L139.492,552.447 C139.503333,552.787002 139.579833,553.107165 139.7215,553.4075 C139.863167,553.707835 140.052999,553.968499 140.291,554.1895 C140.529001,554.410501 140.803832,554.583333 141.1155,554.708 C141.427168,554.832667 141.758665,554.895 142.11,554.895 C142.654003,554.895 143.124331,554.776001 143.521,554.538 C143.917669,554.299999 144.229332,554.011002 144.456,553.671 L145.578,554.572 C145.147331,555.138669 144.64017,555.555165 144.0565,555.8215 C143.47283,556.087835 142.824004,556.221 142.11,556.221 C141.497997,556.221 140.931336,556.119001 140.41,555.915 C139.888664,555.710999 139.441002,555.424835 139.067,555.0565 C138.692998,554.688165 138.398334,554.243336 138.183,553.722 C137.967666,553.200664 137.86,552.62267 137.86,551.988 C137.86,551.364664 137.964832,550.789503 138.1745,550.2625 C138.384168,549.735497 138.675998,549.285002 139.05,548.911 C139.424002,548.536998 139.865997,548.245168 140.376,548.0355 C140.886003,547.825832 141.435664,547.721 142.025,547.721 C142.614336,547.721 143.149831,547.817332 143.6315,548.01 C144.113169,548.202668 144.521165,548.480332 144.8555,548.843 C145.189835,549.205668 145.447666,549.644831 145.629,550.1605 C145.810334,550.676169 145.901,551.256997 145.901,551.903 Z M148.128,549.676 C148.128,549.460666 148.122333,549.183002 148.111,548.843 C148.099667,548.502998 148.082667,548.202668 148.06,547.942 L149.573,547.942 C149.595667,548.146001 149.612667,548.381165 149.624,548.6475 C149.635333,548.913835 149.641,549.131999 149.641,549.302 L149.692,549.302 C149.918668,548.825998 150.250164,548.443501 150.6865,548.1545 C151.122836,547.865499 151.612997,547.721 152.157,547.721 C152.406335,547.721 152.615999,547.743666 152.786,547.789 L152.718,549.268 C152.491332,549.211333 152.247668,549.183 151.987,549.183 C151.601665,549.183 151.267335,549.253833 150.984,549.3955 C150.700665,549.537167 150.465501,549.726999 150.2785,549.965 C150.091499,550.203001 149.952667,550.477832 149.862,550.7895 C149.771333,551.101168 149.726,551.426998 149.726,551.767 L149.726,556 L148.128,556 L148.128,549.676 Z M155.897,556 L154.299,556 L154.299,547.942 L155.897,547.942 L155.897,556 Z M156.169,545.035 C156.169,545.329668 156.064168,545.573332 155.8545,545.766 C155.644832,545.958668 155.392668,546.055 155.098,546.055 C154.803332,546.055 154.554001,545.955834 154.35,545.7575 C154.145999,545.559166 154.044,545.318335 154.044,545.035 C154.044,544.740332 154.145999,544.493834 154.35,544.2955 C154.554001,544.097166 154.803332,543.998 155.098,543.998 C155.392668,543.998 155.644832,544.097166 155.8545,544.2955 C156.064168,544.493834 156.169,544.740332 156.169,545.035 Z M164.584,551.257 C164.572667,550.939665 164.518834,550.642168 164.4225,550.3645 C164.326166,550.086832 164.184501,549.846001 163.9975,549.642 C163.810499,549.437999 163.578168,549.276501 163.3005,549.1575 C163.022832,549.038499 162.697002,548.979 162.323,548.979 C161.982998,548.979 161.662835,549.038499 161.3625,549.1575 C161.062165,549.276501 160.801501,549.437999 160.5805,549.642 C160.359499,549.846001 160.178167,550.086832 160.0365,550.3645 C159.894833,550.642168 159.812667,550.939665 159.79,551.257 L164.584,551.257 Z M166.199,551.903 L166.199,552.175 C166.199,552.265667 166.193333,552.356333 166.182,552.447 L159.79,552.447 C159.801333,552.787002 159.877833,553.107165 160.0195,553.4075 C160.161167,553.707835 160.350999,553.968499 160.589,554.1895 C160.827001,554.410501 161.101832,554.583333 161.4135,554.708 C161.725168,554.832667 162.056665,554.895 162.408,554.895 C162.952003,554.895 163.422331,554.776001 163.819,554.538 C164.215669,554.299999 164.527332,554.011002 164.754,553.671 L165.876,554.572 C165.445331,555.138669 164.93817,555.555165 164.3545,555.8215 C163.77083,556.087835 163.122004,556.221 162.408,556.221 C161.795997,556.221 161.229336,556.119001 160.708,555.915 C160.186664,555.710999 159.739002,555.424835 159.365,555.0565 C158.990998,554.688165 158.696334,554.243336 158.481,553.722 C158.265666,553.200664 158.158,552.62267 158.158,551.988 C158.158,551.364664 158.262832,550.789503 158.4725,550.2625 C158.682168,549.735497 158.973998,549.285002 159.348,548.911 C159.722002,548.536998 160.163997,548.245168 160.674,548.0355 C161.184003,547.825832 161.733664,547.721 162.323,547.721 C162.912336,547.721 163.447831,547.817332 163.9295,548.01 C164.411169,548.202668 164.819165,548.480332 165.1535,548.843 C165.487835,549.205668 165.745666,549.644831 165.927,550.1605 C166.108334,550.676169 166.199,551.256997 166.199,551.903 Z M169.871,547.942 C169.893667,548.146001 169.910667,548.375499 169.922,548.6305 C169.933333,548.885501 169.939,549.097999 169.939,549.268 L169.99,549.268 C170.092001,549.052666 170.230832,548.851501 170.4065,548.6645 C170.582168,548.477499 170.783332,548.313167 171.01,548.1715 C171.236668,548.029833 171.485999,547.919334 171.758,547.84 C172.030001,547.760666 172.313332,547.721 172.608,547.721 C173.129336,547.721 173.576998,547.808832 173.951,547.9845 C174.325002,548.160168 174.636665,548.395332 174.886,548.69 C175.135335,548.984668 175.319499,549.330331 175.4385,549.727 C175.557501,550.123669 175.617,550.548664 175.617,551.002 L175.617,556 L174.019,556 L174.019,551.529 C174.019,551.200332 173.9935,550.888668 173.9425,550.594 C173.8915,550.299332 173.798001,550.038668 173.662,549.812 C173.525999,549.585332 173.339001,549.404001 173.101,549.268 C172.862999,549.131999 172.557002,549.064 172.183,549.064 C171.54833,549.064 171.029835,549.304831 170.6275,549.7865 C170.225165,550.268169 170.024,550.911329 170.024,551.716 L170.024,556 L168.426,556 L168.426,549.676 C168.426,549.460666 168.420333,549.183002 168.409,548.843 C168.397667,548.502998 168.380667,548.202668 168.358,547.942 L169.871,547.942 Z M183.964,549.982 C183.793999,549.721332 183.539002,549.503168 183.199,549.3275 C182.858998,549.151832 182.496335,549.064 182.111,549.064 C181.691665,549.064 181.320502,549.143333 180.9975,549.302 C180.674498,549.460667 180.399668,549.673165 180.173,549.9395 C179.946332,550.205835 179.773501,550.514665 179.6545,550.866 C179.535499,551.217335 179.476,551.585665 179.476,551.971 C179.476,552.356335 179.535499,552.724665 179.6545,553.076 C179.773501,553.427335 179.946332,553.736165 180.173,554.0025 C180.399668,554.268835 180.677332,554.481333 181.006,554.64 C181.334668,554.798667 181.708665,554.878 182.128,554.878 C182.536002,554.878 182.907165,554.798667 183.2415,554.64 C183.575835,554.481333 183.850666,554.266001 184.066,553.994 L185.137,554.963 C184.796998,555.359669 184.372003,555.668499 183.862,555.8895 C183.351997,556.110501 182.774003,556.221 182.128,556.221 C181.504664,556.221 180.929503,556.119001 180.4025,555.915 C179.875497,555.710999 179.419335,555.424835 179.034,555.0565 C178.648665,554.688165 178.345501,554.243336 178.1245,553.722 C177.903499,553.200664 177.793,552.617003 177.793,551.971 C177.793,551.33633 177.900666,550.758336 178.116,550.237 C178.331334,549.715664 178.631665,549.268002 179.017,548.894 C179.402335,548.519998 179.858497,548.231001 180.3855,548.027 C180.912503,547.822999 181.481997,547.721 182.094,547.721 C182.660669,547.721 183.224497,547.834332 183.7855,548.061 C184.346503,548.287668 184.791332,548.616331 185.12,549.047 L183.964,549.982 Z M188.333,556 L186.735,556 L186.735,547.942 L188.333,547.942 L188.333,556 Z M188.605,545.035 C188.605,545.329668 188.500168,545.573332 188.2905,545.766 C188.080832,545.958668 187.828668,546.055 187.534,546.055 C187.239332,546.055 186.990001,545.955834 186.786,545.7575 C186.581999,545.559166 186.48,545.318335 186.48,545.035 C186.48,544.740332 186.581999,544.493834 186.786,544.2955 C186.990001,544.097166 187.239332,543.998 187.534,543.998 C187.828668,543.998 188.080832,544.097166 188.2905,544.2955 C188.500168,544.493834 188.605,544.740332 188.605,545.035 Z M196.136,550.781 C196.136,550.18033 195.954668,549.735501 195.592,549.4465 C195.229332,549.157499 194.74767,549.013 194.147,549.013 C193.693664,549.013 193.265835,549.100832 192.8635,549.2765 C192.461165,549.452168 192.124001,549.675999 191.852,549.948 L191.002,548.928 C191.398669,548.553998 191.883164,548.259334 192.4555,548.044 C193.027836,547.828666 193.642663,547.721 194.3,547.721 C194.878003,547.721 195.379498,547.803166 195.8045,547.9675 C196.229502,548.131834 196.577999,548.355665 196.85,548.639 C197.122001,548.922335 197.325999,549.256665 197.462,549.642 C197.598001,550.027335 197.666,550.440998 197.666,550.883 L197.666,554.402 C197.666,554.674001 197.6745,554.960165 197.6915,555.2605 C197.7085,555.560835 197.739666,555.807332 197.785,556 L196.34,556 C196.249333,555.614665 196.204,555.229335 196.204,554.844 L196.153,554.844 C195.858332,555.274669 195.487169,555.608999 195.0395,555.847 C194.591831,556.085001 194.062003,556.204 193.45,556.204 C193.132665,556.204 192.801168,556.1615 192.4555,556.0765 C192.109832,555.9915 191.795335,555.852668 191.512,555.66 C191.228665,555.467332 190.993501,555.212335 190.8065,554.895 C190.619499,554.577665 190.526,554.186669 190.526,553.722 C190.526,553.109997 190.690332,552.625502 191.019,552.2685 C191.347668,551.911498 191.778331,551.639501 192.311,551.4525 C192.843669,551.265499 193.44433,551.143667 194.113,551.087 C194.78167,551.030333 195.455997,551.002 196.136,551.002 L196.136,550.781 Z M195.745,552.158 C195.348331,552.158 194.937502,552.175 194.5125,552.209 C194.087498,552.243 193.702168,552.310999 193.3565,552.413 C193.010832,552.515001 192.724668,552.667999 192.498,552.872 C192.271332,553.076001 192.158,553.347998 192.158,553.688 C192.158,553.926001 192.206166,554.124333 192.3025,554.283 C192.398834,554.441667 192.526333,554.571999 192.685,554.674 C192.843667,554.776001 193.019332,554.846833 193.212,554.8865 C193.404668,554.926167 193.602999,554.946 193.807,554.946 C194.555004,554.946 195.130165,554.722169 195.5325,554.2745 C195.934835,553.826831 196.136,553.263003 196.136,552.583 L196.136,552.158 L195.745,552.158 Z M210.96,554.793 C210.665332,555.246336 210.260169,555.597665 209.7445,555.847 C209.228831,556.096335 208.682003,556.221 208.104,556.221 C207.480664,556.221 206.919669,556.110501 206.421,555.8895 C205.922331,555.668499 205.497335,555.365335 205.146,554.98 C204.794665,554.594665 204.522668,554.141336 204.33,553.62 C204.137332,553.098664 204.041,552.543336 204.041,551.954 C204.041,551.364664 204.137332,550.812169 204.33,550.2965 C204.522668,549.780831 204.797498,549.330335 205.1545,548.945 C205.511502,548.559665 205.939331,548.259334 206.438,548.044 C206.936669,547.828666 207.48633,547.721 208.087,547.721 C208.744337,547.721 209.325164,547.859832 209.8295,548.1375 C210.333836,548.415168 210.721999,548.769331 210.994,549.2 L211.045,549.2 L211.045,547.942 L212.592,547.942 L212.592,560.08 L210.994,560.08 L210.994,554.793 L210.96,554.793 Z M205.707,551.954 C205.707,552.328002 205.763666,552.690665 205.877,553.042 C205.990334,553.393335 206.160332,553.704999 206.387,553.977 C206.613668,554.249001 206.891332,554.467166 207.22,554.6315 C207.548668,554.795834 207.933998,554.878 208.376,554.878 C208.784002,554.878 209.155165,554.798667 209.4895,554.64 C209.823835,554.481333 210.109999,554.268835 210.348,554.0025 C210.586001,553.736165 210.770166,553.427335 210.9005,553.076 C211.030834,552.724665 211.096,552.356335 211.096,551.971 C211.096,551.585665 211.030834,551.217335 210.9005,550.866 C210.770166,550.514665 210.586001,550.203001 210.348,549.931 C210.109999,549.658999 209.823835,549.443667 209.4895,549.285 C209.155165,549.126333 208.784002,549.047 208.376,549.047 C207.933998,549.047 207.548668,549.126333 207.22,549.285 C206.891332,549.443667 206.613668,549.658999 206.387,549.931 C206.160332,550.203001 205.990334,550.514665 205.877,550.866 C205.763666,551.217335 205.707,551.579998 205.707,551.954 Z M221.024,556 C221.001333,555.795999 220.984333,555.566501 220.973,555.3115 C220.961667,555.056499 220.956,554.844001 220.956,554.674 L220.922,554.674 C220.717999,555.104669 220.375169,555.470165 219.8935,555.7705 C219.411831,556.070835 218.876336,556.221 218.287,556.221 C217.765664,556.221 217.315169,556.136001 216.9355,555.966 C216.555831,555.795999 216.244168,555.560835 216.0005,555.2605 C215.756832,554.960165 215.575501,554.611669 215.4565,554.215 C215.337499,553.818331 215.278,553.393336 215.278,552.94 L215.278,547.942 L216.876,547.942 L216.876,552.396 C216.876,552.724668 216.9015,553.039165 216.9525,553.3395 C217.0035,553.639835 217.096999,553.903332 217.233,554.13 C217.369001,554.356668 217.555999,554.537999 217.794,554.674 C218.032001,554.810001 218.337998,554.878 218.712,554.878 C219.358003,554.878 219.879331,554.637169 220.276,554.1555 C220.672669,553.673831 220.871,553.030671 220.871,552.226 L220.871,547.942 L222.469,547.942 L222.469,554.266 C222.469,554.481334 222.474667,554.758998 222.486,555.099 C222.497333,555.439002 222.514333,555.739332 222.537,556 L221.024,556 Z M231.139,551.257 C231.127667,550.939665 231.073834,550.642168 230.9775,550.3645 C230.881166,550.086832 230.739501,549.846001 230.5525,549.642 C230.365499,549.437999 230.133168,549.276501 229.8555,549.1575 C229.577832,549.038499 229.252002,548.979 228.878,548.979 C228.537998,548.979 228.217835,549.038499 227.9175,549.1575 C227.617165,549.276501 227.356501,549.437999 227.1355,549.642 C226.914499,549.846001 226.733167,550.086832 226.5915,550.3645 C226.449833,550.642168 226.367667,550.939665 226.345,551.257 L231.139,551.257 Z M232.754,551.903 L232.754,552.175 C232.754,552.265667 232.748333,552.356333 232.737,552.447 L226.345,552.447 C226.356333,552.787002 226.432833,553.107165 226.5745,553.4075 C226.716167,553.707835 226.905999,553.968499 227.144,554.1895 C227.382001,554.410501 227.656832,554.583333 227.9685,554.708 C228.280168,554.832667 228.611665,554.895 228.963,554.895 C229.507003,554.895 229.977331,554.776001 230.374,554.538 C230.770669,554.299999 231.082332,554.011002 231.309,553.671 L232.431,554.572 C232.000331,555.138669 231.49317,555.555165 230.9095,555.8215 C230.32583,556.087835 229.677004,556.221 228.963,556.221 C228.350997,556.221 227.784336,556.119001 227.263,555.915 C226.741664,555.710999 226.294002,555.424835 225.92,555.0565 C225.545998,554.688165 225.251334,554.243336 225.036,553.722 C224.820666,553.200664 224.713,552.62267 224.713,551.988 C224.713,551.364664 224.817832,550.789503 225.0275,550.2625 C225.237168,549.735497 225.528998,549.285002 225.903,548.911 C226.277002,548.536998 226.718997,548.245168 227.229,548.0355 C227.739003,547.825832 228.288664,547.721 228.878,547.721 C229.467336,547.721 230.002831,547.817332 230.4845,548.01 C230.966169,548.202668 231.374165,548.480332 231.7085,548.843 C232.042835,549.205668 232.300666,549.644831 232.482,550.1605 C232.663334,550.676169 232.754,551.256997 232.754,551.903 Z M245.657,554.725 C245.350998,555.212336 244.934503,555.583499 244.4075,555.8385 C243.880497,556.093501 243.328003,556.221 242.75,556.221 C242.126664,556.221 241.565669,556.110501 241.067,555.8895 C240.568331,555.668499 240.143335,555.365335 239.792,554.98 C239.440665,554.594665 239.168668,554.141336 238.976,553.62 C238.783332,553.098664 238.687,552.543336 238.687,551.954 C238.687,551.364664 238.783332,550.812169 238.976,550.2965 C239.168668,549.780831 239.443498,549.330335 239.8005,548.945 C240.157502,548.559665 240.585331,548.259334 241.084,548.044 C241.582669,547.828666 242.13233,547.721 242.733,547.721 C243.390337,547.721 243.962664,547.859832 244.45,548.1375 C244.937336,548.415168 245.322665,548.752331 245.606,549.149 L245.64,549.149 L245.64,543.148 L247.238,543.148 L247.238,556 L245.691,556 L245.691,554.725 L245.657,554.725 Z M240.353,551.954 C240.353,552.328002 240.409666,552.690665 240.523,553.042 C240.636334,553.393335 240.806332,553.704999 241.033,553.977 C241.259668,554.249001 241.537332,554.467166 241.866,554.6315 C242.194668,554.795834 242.579998,554.878 243.022,554.878 C243.430002,554.878 243.801165,554.798667 244.1355,554.64 C244.469835,554.481333 244.755999,554.268835 244.994,554.0025 C245.232001,553.736165 245.416166,553.427335 245.5465,553.076 C245.676834,552.724665 245.742,552.356335 245.742,551.971 C245.742,551.585665 245.676834,551.217335 245.5465,550.866 C245.416166,550.514665 245.232001,550.203001 244.994,549.931 C244.755999,549.658999 244.469835,549.443667 244.1355,549.285 C243.801165,549.126333 243.430002,549.047 243.022,549.047 C242.579998,549.047 242.194668,549.126333 241.866,549.285 C241.537332,549.443667 241.259668,549.658999 241.033,549.931 C240.806332,550.203001 240.636334,550.514665 240.523,550.866 C240.409666,551.217335 240.353,551.579998 240.353,551.954 Z M255.925,551.257 C255.913667,550.939665 255.859834,550.642168 255.7635,550.3645 C255.667166,550.086832 255.525501,549.846001 255.3385,549.642 C255.151499,549.437999 254.919168,549.276501 254.6415,549.1575 C254.363832,549.038499 254.038002,548.979 253.664,548.979 C253.323998,548.979 253.003835,549.038499 252.7035,549.1575 C252.403165,549.276501 252.142501,549.437999 251.9215,549.642 C251.700499,549.846001 251.519167,550.086832 251.3775,550.3645 C251.235833,550.642168 251.153667,550.939665 251.131,551.257 L255.925,551.257 Z M257.54,551.903 L257.54,552.175 C257.54,552.265667 257.534333,552.356333 257.523,552.447 L251.131,552.447 C251.142333,552.787002 251.218833,553.107165 251.3605,553.4075 C251.502167,553.707835 251.691999,553.968499 251.93,554.1895 C252.168001,554.410501 252.442832,554.583333 252.7545,554.708 C253.066168,554.832667 253.397665,554.895 253.749,554.895 C254.293003,554.895 254.763331,554.776001 255.16,554.538 C255.556669,554.299999 255.868332,554.011002 256.095,553.671 L257.217,554.572 C256.786331,555.138669 256.27917,555.555165 255.6955,555.8215 C255.11183,556.087835 254.463004,556.221 253.749,556.221 C253.136997,556.221 252.570336,556.119001 252.049,555.915 C251.527664,555.710999 251.080002,555.424835 250.706,555.0565 C250.331998,554.688165 250.037334,554.243336 249.822,553.722 C249.606666,553.200664 249.499,552.62267 249.499,551.988 C249.499,551.364664 249.603832,550.789503 249.8135,550.2625 C250.023168,549.735497 250.314998,549.285002 250.689,548.911 C251.063002,548.536998 251.504997,548.245168 252.015,548.0355 C252.525003,547.825832 253.074664,547.721 253.664,547.721 C254.253336,547.721 254.788831,547.817332 255.2705,548.01 C255.752169,548.202668 256.160165,548.480332 256.4945,548.843 C256.828835,549.205668 257.086666,549.644831 257.268,550.1605 C257.449334,550.676169 257.54,551.256997 257.54,551.903 Z M264.119,549.982 C263.937666,549.687332 263.682668,549.446501 263.354,549.2595 C263.025332,549.072499 262.657002,548.979 262.249,548.979 C262.067666,548.979 261.886334,548.998833 261.705,549.0385 C261.523666,549.078167 261.362167,549.1405 261.2205,549.2255 C261.078833,549.3105 260.9655,549.418166 260.8805,549.5485 C260.7955,549.678834 260.753,549.840332 260.753,550.033 C260.753,550.373002 260.905998,550.625166 261.212,550.7895 C261.518002,550.953834 261.976997,551.103999 262.589,551.24 C262.974335,551.330667 263.331332,551.438333 263.66,551.563 C263.988668,551.687667 264.274832,551.843499 264.5185,552.0305 C264.762168,552.217501 264.951999,552.441332 265.088,552.702 C265.224001,552.962668 265.292,553.268665 265.292,553.62 C265.292,554.096002 265.201334,554.498332 265.02,554.827 C264.838666,555.155668 264.597835,555.424832 264.2975,555.6345 C263.997165,555.844168 263.654335,555.994333 263.269,556.085 C262.883665,556.175667 262.487002,556.221 262.079,556.221 C261.466997,556.221 260.86917,556.102001 260.2855,555.864 C259.70183,555.625999 259.217335,555.263336 258.832,554.776 L259.971,553.807 C260.186334,554.124335 260.483831,554.390666 260.8635,554.606 C261.243169,554.821334 261.659664,554.929 262.113,554.929 C262.317001,554.929 262.512499,554.909167 262.6995,554.8695 C262.886501,554.829833 263.056499,554.764667 263.2095,554.674 C263.362501,554.583333 263.484333,554.464334 263.575,554.317 C263.665667,554.169666 263.711,553.982668 263.711,553.756 C263.711,553.381998 263.532502,553.104334 263.1755,552.923 C262.818498,552.741666 262.294337,552.571667 261.603,552.413 C261.330999,552.345 261.056168,552.262834 260.7785,552.1665 C260.500832,552.070166 260.248668,551.937001 260.022,551.767 C259.795332,551.596999 259.611167,551.384501 259.4695,551.1295 C259.327833,550.874499 259.257,550.560002 259.257,550.186 C259.257,549.755331 259.344832,549.384168 259.5205,549.0725 C259.696168,548.760832 259.925665,548.505834 260.209,548.3075 C260.492335,548.109166 260.815332,547.961834 261.178,547.8655 C261.540668,547.769166 261.914665,547.721 262.3,547.721 C262.878003,547.721 263.436164,547.834332 263.9745,548.061 C264.512836,548.287668 264.929332,548.616331 265.224,549.047 L264.119,549.982 Z M273.214,551.257 C273.202667,550.939665 273.148834,550.642168 273.0525,550.3645 C272.956166,550.086832 272.814501,549.846001 272.6275,549.642 C272.440499,549.437999 272.208168,549.276501 271.9305,549.1575 C271.652832,549.038499 271.327002,548.979 270.953,548.979 C270.612998,548.979 270.292835,549.038499 269.9925,549.1575 C269.692165,549.276501 269.431501,549.437999 269.2105,549.642 C268.989499,549.846001 268.808167,550.086832 268.6665,550.3645 C268.524833,550.642168 268.442667,550.939665 268.42,551.257 L273.214,551.257 Z M274.829,551.903 L274.829,552.175 C274.829,552.265667 274.823333,552.356333 274.812,552.447 L268.42,552.447 C268.431333,552.787002 268.507833,553.107165 268.6495,553.4075 C268.791167,553.707835 268.980999,553.968499 269.219,554.1895 C269.457001,554.410501 269.731832,554.583333 270.0435,554.708 C270.355168,554.832667 270.686665,554.895 271.038,554.895 C271.582003,554.895 272.052331,554.776001 272.449,554.538 C272.845669,554.299999 273.157332,554.011002 273.384,553.671 L274.506,554.572 C274.075331,555.138669 273.56817,555.555165 272.9845,555.8215 C272.40083,556.087835 271.752004,556.221 271.038,556.221 C270.425997,556.221 269.859336,556.119001 269.338,555.915 C268.816664,555.710999 268.369002,555.424835 267.995,555.0565 C267.620998,554.688165 267.326334,554.243336 267.111,553.722 C266.895666,553.200664 266.788,552.62267 266.788,551.988 C266.788,551.364664 266.892832,550.789503 267.1025,550.2625 C267.312168,549.735497 267.603998,549.285002 267.978,548.911 C268.352002,548.536998 268.793997,548.245168 269.304,548.0355 C269.814003,547.825832 270.363664,547.721 270.953,547.721 C271.542336,547.721 272.077831,547.817332 272.5595,548.01 C273.041169,548.202668 273.449165,548.480332 273.7835,548.843 C274.117835,549.205668 274.375666,549.644831 274.557,550.1605 C274.738334,550.676169 274.829,551.256997 274.829,551.903 Z M281.969,550.781 C281.969,550.18033 281.787668,549.735501 281.425,549.4465 C281.062332,549.157499 280.58067,549.013 279.98,549.013 C279.526664,549.013 279.098835,549.100832 278.6965,549.2765 C278.294165,549.452168 277.957001,549.675999 277.685,549.948 L276.835,548.928 C277.231669,548.553998 277.716164,548.259334 278.2885,548.044 C278.860836,547.828666 279.475663,547.721 280.133,547.721 C280.711003,547.721 281.212498,547.803166 281.6375,547.9675 C282.062502,548.131834 282.410999,548.355665 282.683,548.639 C282.955001,548.922335 283.158999,549.256665 283.295,549.642 C283.431001,550.027335 283.499,550.440998 283.499,550.883 L283.499,554.402 C283.499,554.674001 283.5075,554.960165 283.5245,555.2605 C283.5415,555.560835 283.572666,555.807332 283.618,556 L282.173,556 C282.082333,555.614665 282.037,555.229335 282.037,554.844 L281.986,554.844 C281.691332,555.274669 281.320169,555.608999 280.8725,555.847 C280.424831,556.085001 279.895003,556.204 279.283,556.204 C278.965665,556.204 278.634168,556.1615 278.2885,556.0765 C277.942832,555.9915 277.628335,555.852668 277.345,555.66 C277.061665,555.467332 276.826501,555.212335 276.6395,554.895 C276.452499,554.577665 276.359,554.186669 276.359,553.722 C276.359,553.109997 276.523332,552.625502 276.852,552.2685 C277.180668,551.911498 277.611331,551.639501 278.144,551.4525 C278.676669,551.265499 279.27733,551.143667 279.946,551.087 C280.61467,551.030333 281.288997,551.002 281.969,551.002 L281.969,550.781 Z M281.578,552.158 C281.181331,552.158 280.770502,552.175 280.3455,552.209 C279.920498,552.243 279.535168,552.310999 279.1895,552.413 C278.843832,552.515001 278.557668,552.667999 278.331,552.872 C278.104332,553.076001 277.991,553.347998 277.991,553.688 C277.991,553.926001 278.039166,554.124333 278.1355,554.283 C278.231834,554.441667 278.359333,554.571999 278.518,554.674 C278.676667,554.776001 278.852332,554.846833 279.045,554.8865 C279.237668,554.926167 279.435999,554.946 279.64,554.946 C280.388004,554.946 280.963165,554.722169 281.3655,554.2745 C281.767835,553.826831 281.969,553.263003 281.969,552.583 L281.969,552.158 L281.578,552.158 Z M290.52,549.982 C290.338666,549.687332 290.083668,549.446501 289.755,549.2595 C289.426332,549.072499 289.058002,548.979 288.65,548.979 C288.468666,548.979 288.287334,548.998833 288.106,549.0385 C287.924666,549.078167 287.763167,549.1405 287.6215,549.2255 C287.479833,549.3105 287.3665,549.418166 287.2815,549.5485 C287.1965,549.678834 287.154,549.840332 287.154,550.033 C287.154,550.373002 287.306998,550.625166 287.613,550.7895 C287.919002,550.953834 288.377997,551.103999 288.99,551.24 C289.375335,551.330667 289.732332,551.438333 290.061,551.563 C290.389668,551.687667 290.675832,551.843499 290.9195,552.0305 C291.163168,552.217501 291.352999,552.441332 291.489,552.702 C291.625001,552.962668 291.693,553.268665 291.693,553.62 C291.693,554.096002 291.602334,554.498332 291.421,554.827 C291.239666,555.155668 290.998835,555.424832 290.6985,555.6345 C290.398165,555.844168 290.055335,555.994333 289.67,556.085 C289.284665,556.175667 288.888002,556.221 288.48,556.221 C287.867997,556.221 287.27017,556.102001 286.6865,555.864 C286.10283,555.625999 285.618335,555.263336 285.233,554.776 L286.372,553.807 C286.587334,554.124335 286.884831,554.390666 287.2645,554.606 C287.644169,554.821334 288.060664,554.929 288.514,554.929 C288.718001,554.929 288.913499,554.909167 289.1005,554.8695 C289.287501,554.829833 289.457499,554.764667 289.6105,554.674 C289.763501,554.583333 289.885333,554.464334 289.976,554.317 C290.066667,554.169666 290.112,553.982668 290.112,553.756 C290.112,553.381998 289.933502,553.104334 289.5765,552.923 C289.219498,552.741666 288.695337,552.571667 288.004,552.413 C287.731999,552.345 287.457168,552.262834 287.1795,552.1665 C286.901832,552.070166 286.649668,551.937001 286.423,551.767 C286.196332,551.596999 286.012167,551.384501 285.8705,551.1295 C285.728833,550.874499 285.658,550.560002 285.658,550.186 C285.658,549.755331 285.745832,549.384168 285.9215,549.0725 C286.097168,548.760832 286.326665,548.505834 286.61,548.3075 C286.893335,548.109166 287.216332,547.961834 287.579,547.8655 C287.941668,547.769166 288.315665,547.721 288.701,547.721 C289.279003,547.721 289.837164,547.834332 290.3755,548.061 C290.913836,548.287668 291.330332,548.616331 291.625,549.047 L290.52,549.982 Z M301.757,556 L300.023,556 L296.742,547.942 L298.51,547.942 L300.873,554.283 L300.907,554.283 L303.287,547.942 L304.987,547.942 L301.757,556 Z M308.149,556 L306.551,556 L306.551,547.942 L308.149,547.942 L308.149,556 Z M308.421,545.035 C308.421,545.329668 308.316168,545.573332 308.1065,545.766 C307.896832,545.958668 307.644668,546.055 307.35,546.055 C307.055332,546.055 306.806001,545.955834 306.602,545.7575 C306.397999,545.559166 306.296,545.318335 306.296,545.035 C306.296,544.740332 306.397999,544.493834 306.602,544.2955 C306.806001,544.097166 307.055332,543.998 307.35,543.998 C307.644668,543.998 307.896832,544.097166 308.1065,544.2955 C308.316168,544.493834 308.421,544.740332 308.421,545.035 Z M314.728,556 L312.994,556 L309.713,547.942 L311.481,547.942 L313.844,554.283 L313.878,554.283 L316.258,547.942 L317.958,547.942 L314.728,556 Z M321.12,556 L319.522,556 L319.522,547.942 L321.12,547.942 L321.12,556 Z M321.392,545.035 C321.392,545.329668 321.287168,545.573332 321.0775,545.766 C320.867832,545.958668 320.615668,546.055 320.321,546.055 C320.026332,546.055 319.777001,545.955834 319.573,545.7575 C319.368999,545.559166 319.267,545.318335 319.267,545.035 C319.267,544.740332 319.368999,544.493834 319.573,544.2955 C319.777001,544.097166 320.026332,543.998 320.321,543.998 C320.615668,543.998 320.867832,544.097166 321.0775,544.2955 C321.287168,544.493834 321.392,544.740332 321.392,545.035 Z M323.908,549.676 C323.908,549.460666 323.902333,549.183002 323.891,548.843 C323.879667,548.502998 323.862667,548.202668 323.84,547.942 L325.353,547.942 C325.375667,548.146001 325.392667,548.381165 325.404,548.6475 C325.415333,548.913835 325.421,549.131999 325.421,549.302 L325.472,549.302 C325.698668,548.825998 326.030164,548.443501 326.4665,548.1545 C326.902836,547.865499 327.392997,547.721 327.937,547.721 C328.186335,547.721 328.395999,547.743666 328.566,547.789 L328.498,549.268 C328.271332,549.211333 328.027668,549.183 327.767,549.183 C327.381665,549.183 327.047335,549.253833 326.764,549.3955 C326.480665,549.537167 326.245501,549.726999 326.0585,549.965 C325.871499,550.203001 325.732667,550.477832 325.642,550.7895 C325.551333,551.101168 325.506,551.426998 325.506,551.767 L325.506,556 L323.908,556 L323.908,549.676 Z" id="Elige-la-experiencia"></path>
        </g>
    </g>
</svg>