<svg xmlns="http://www.w3.org/2000/svg" viewBox="0 0 24 24">
    <path fill="rgba(255,255,255,0.5)" d="M 6 4 C 4.895 4 4 4.895 4 6 L 20 6 C 20 4.895 19.105 4 18 4 L 6 4 z M 4 7 C 2.895 7 2 7.895 2 9 L 2 18 C 2 19.105 2.895 20 4 20 L 8.90625 20 C 9.33125 20 9.70275 19.74475 9.84375 19.34375 L 10.65625 16.9375 C 10.85325 16.3725 11.401 16 12 16 C 12.599 16 13.14675 16.3725 13.34375 16.9375 L 14.15625 19.34375 C 14.29625 19.74475 14.66875 20 15.09375 20 L 20 20 C 21.105 20 22 19.105 22 18 L 22 9 C 22 7.895 21.105 7 20 7 L 4 7 z M 6.5 11 C 7.881 11 9 12.119 9 13.5 C 9 14.881 7.881 16 6.5 16 C 5.119 16 4 14.881 4 13.5 C 4 12.119 5.119 11 6.5 11 z M 17.5 11 C 18.881 11 20 12.119 20 13.5 C 20 14.881 18.881 16 17.5 16 C 16.119 16 15 14.881 15 13.5 C 15 12.119 16.119 11 17.5 11 z M 12 17.03125 C 11.8355 17.03125 11.6825 17.11675 11.625 17.28125 L 11 19 L 13 19 L 12.375 17.28125 C 12.3175 17.11775 12.1645 17.03125 12 17.03125 z"></path>
</svg>