<?xml version="1.0" encoding="UTF-8"?>
<svg width="76px" height="43px" viewBox="0 0 76 43" version="1.1" xmlns="http://www.w3.org/2000/svg" xmlns:xlink="http://www.w3.org/1999/xlink">
    <!-- Generator: Sketch 41.2 (35397) - http://www.bohemiancoding.com/sketch -->
    <title>Group</title>
    <desc>Created with Sketch.</desc>
    <defs></defs>
    <g id="Page-1" stroke="none" stroke-width="1" fill="none" fill-rule="evenodd">
        <g id="iPhone-7-Copy-2" transform="translate(-230.000000, -415.000000)" fill="#FFFFFF">
            <g id="iconRight" transform="translate(208.000000, 376.000000)">
                <g id="Group" transform="translate(22.000000, 39.000000)">
                    <path d="M66.69,0.0305293006 L9.31,0.0305293006 C4.56,0.0305293006 0.665,3.93289225 0.665,8.69187146 L0.665,33.4385633 C0.665,38.1975425 4.56,42.0999055 9.31,42.0999055 L30.97,42.0999055 L36.1,32.8674858 C36.48,32.2012287 37.145,31.8205104 38,31.8205104 C38.855,31.8205104 39.52,32.2012287 39.9,32.8674858 L45.03,42.1950851 L66.69,42.1950851 C71.44,42.1950851 75.335,38.2927221 75.335,33.5337429 L75.335,8.69187146 C75.335,3.93289225 71.44,0.0305293006 66.69,0.0305293006 Z M72.39,33.4385633 C72.39,36.5794896 69.825,39.1493384 66.69,39.1493384 L46.74,39.1493384 L42.37,31.3446125 C41.42,29.7265595 39.805,28.8699433 38,28.8699433 C36.195,28.8699433 34.58,29.8217391 33.63,31.4397921 L29.26,39.244518 L9.31,39.244518 C6.175,39.244518 3.61,36.6746692 3.61,33.5337429 L3.61,8.69187146 C3.61,5.55094518 6.175,2.98109641 9.31,2.98109641 L66.69,2.98109641 C69.825,2.98109641 72.39,5.55094518 72.39,8.69187146 L72.39,33.4385633 L72.39,33.4385633 Z" id="Shape"></path>
                    <path d="M53.485,10.7858223 C47.88,10.7858223 43.32,15.3544423 43.32,20.9700378 C43.32,26.5856333 47.88,31.1542533 53.485,31.1542533 C59.09,31.1542533 63.65,26.5856333 63.65,20.9700378 C63.65,15.3544423 59.09,10.7858223 53.485,10.7858223 Z M53.485,28.2988658 C49.495,28.2988658 46.17,24.9675803 46.17,20.9700378 C46.17,16.9724953 49.495,13.6412098 53.485,13.6412098 C57.475,13.6412098 60.8,16.9724953 60.8,20.9700378 C60.8,24.9675803 57.57,28.2988658 53.485,28.2988658 Z" id="Shape"></path>
                    <path d="M21.66,10.7858223 C16.055,10.7858223 11.495,15.3544423 11.495,20.9700378 C11.495,26.5856333 16.055,31.1542533 21.66,31.1542533 C27.265,31.1542533 31.825,26.5856333 31.825,20.9700378 C31.825,15.3544423 27.265,10.7858223 21.66,10.7858223 Z M14.345,20.9700378 C14.345,16.9724953 17.67,13.6412098 21.66,13.6412098 C25.65,13.6412098 28.975,16.9724953 28.975,20.9700378 C28.975,24.9675803 25.65,28.2988658 21.66,28.2988658 C17.67,28.2988658 14.345,24.9675803 14.345,20.9700378 Z" id="Shape"></path>
                </g>
            </g>
        </g>
    </g>
</svg>