<?xml version="1.0" encoding="UTF-8"?>
<svg width="20px" height="11px" viewBox="0 0 20 11" version="1.1" xmlns="http://www.w3.org/2000/svg" xmlns:xlink="http://www.w3.org/1999/xlink">
    <!-- Generator: Sketch 41.2 (35397) - http://www.bohemiancoding.com/sketch -->
    <title>VR</title>
    <desc>Created with Sketch.</desc>
    <defs></defs>
    <g id="Page-1" stroke="none" stroke-width="1" fill="none" fill-rule="evenodd">
        <g id="iPhone-7-Copy" transform="translate(-258.000000, -473.000000)" fill="#FFFFFF">
            <g id="iconRight" transform="translate(208.000000, 376.000000)">
                <path d="M55.395,106.08 L55.44,106.08 L58.635,97.38 L60.24,97.38 L56.07,108 L54.69,108 L50.55,97.38 L52.2,97.38 L55.395,106.08 Z M62.985,108 L61.5,108 L61.5,97.38 L64.905,97.38 C65.4150026,97.38 65.8999977,97.4324995 66.36,97.5375 C66.8200023,97.6425005 67.2224983,97.8099989 67.5675,98.04 C67.9125017,98.2700012 68.184999,98.5724981 68.385,98.9475 C68.585001,99.3225019 68.685,99.7799973 68.685,100.32 C68.685,101.100004 68.4450024,101.729998 67.965,102.21 C67.4849976,102.690002 66.8650038,102.994999 66.105,103.125 L69.075,108 L67.275,108 L64.575,103.275 L62.985,103.275 L62.985,108 Z M62.985,102.03 L64.695,102.03 C65.0450018,102.03 65.3699985,102 65.67,101.94 C65.9700015,101.88 66.2324989,101.782501 66.4575,101.6475 C66.6825011,101.512499 66.8599994,101.337501 66.99,101.1225 C67.1200007,100.907499 67.185,100.640002 67.185,100.32 C67.185,99.9999984 67.1200007,99.7325011 66.99,99.5175 C66.8599994,99.3024989 66.6875011,99.1300007 66.4725,99 C66.2574989,98.8699994 66.0050015,98.7775003 65.715,98.7225 C65.4249986,98.6674997 65.1200016,98.64 64.8,98.64 L62.985,98.64 L62.985,102.03 Z" id="VR"></path>
            </g>
        </g>
    </g>
</svg>