<?xml version="1.0" encoding="UTF-8"?>
<svg width="56px" height="56px" viewBox="0 0 56 56" version="1.1" xmlns="http://www.w3.org/2000/svg" xmlns:xlink="http://www.w3.org/1999/xlink">
    <!-- Generator: Sketch 41.2 (35397) - http://www.bohemiancoding.com/sketch -->
    <title>web</title>
    <desc>Created with Sketch.</desc>
    <defs></defs>
    <g id="Page-1" stroke="none" stroke-width="1" fill="none" fill-rule="evenodd">
        <g id="iPhone-7-Copy-2" transform="translate(-77.000000, -408.000000)" stroke="#FFFFFF" stroke-width="1.2" fill="#FFFFFF">
            <g id="web" transform="translate(78.000000, 409.000000)">
                <rect id="Rectangle-path" x="1.96425" y="34.7945625" width="50.0731875" height="1.6875"></rect>
                <rect id="Rectangle-path" x="1.96425" y="17.5179375" width="50.0731875" height="1.6875"></rect>
                <path d="M29.0064375,53.68275 L27.7306875,52.579125 C27.8353125,52.457625 38.2775625,40.2165 38.2775625,25.68375 C38.2775625,11.1898125 27.972,1.7128125 27.867375,1.6183125 L28.998,0.3661875 C29.446875,0.7711875 39.9650625,10.449 39.9650625,25.68375 C39.9650625,40.8560625 29.4553125,53.166375 29.0064375,53.68275 Z" id="Shape"></path>
                <path d="M24.985125,53.68275 C24.5379375,53.166375 14.03325,40.8560625 14.03325,25.6820625 C14.03325,10.4473125 24.5514375,0.7695 25.0003125,0.3645 L26.1309375,1.616625 C26.0263125,1.711125 15.72075,11.215125 15.72075,25.6820625 C15.72075,40.233375 26.15625,52.4559375 26.260875,52.5774375 L24.985125,53.68275 Z" id="Shape"></path>
                <path d="M27,53.9713125 C12.112875,53.9713125 0,41.8719375 0,27 C0,12.1280625 12.1111875,0.0286875 27,0.0286875 C41.8888125,0.0286875 54,12.1280625 54,27 C54,41.8719375 41.887125,53.9713125 27,53.9713125 Z M27,1.7161875 C13.041,1.7161875 1.6875,13.057875 1.6875,27 C1.6875,40.942125 13.0426875,52.2838125 27,52.2838125 C40.9573125,52.2838125 52.3125,40.942125 52.3125,27 C52.3125,13.057875 40.9573125,1.7161875 27,1.7161875 Z" id="Shape"></path>
            </g>
        </g>
    </g>
</svg>