<?xml version="1.0" encoding="UTF-8"?>
<svg width="33px" height="13px" viewBox="0 0 33 13" version="1.1" xmlns="http://www.w3.org/2000/svg" xmlns:xlink="http://www.w3.org/1999/xlink">
    <!-- Generator: Sketch 41.2 (35397) - http://www.bohemiancoding.com/sketch -->
    <title>Web</title>
    <desc>Created with Sketch.</desc>
    <defs></defs>
    <g id="Page-1" stroke="none" stroke-width="1" fill="none" fill-rule="evenodd">
        <g id="iPhone-7-Copy" transform="translate(-88.000000, -472.000000)" fill="#FFFFFF">
            <g id="Iconleft" transform="translate(45.000000, 376.000000)">
                <path d="M47.8875,105.84 L47.9175,105.84 L50.4075,97.38 L52.0425,97.38 L54.5175,105.84 L54.5475,105.84 L56.8875,97.38 L58.4625,97.38 L55.3425,108 L53.7975,108 L51.2175,99.465 L51.1875,99.465 L48.6075,108 L47.0625,108 L43.9425,97.38 L45.5475,97.38 L47.8875,105.84 Z M64.4925,103.815 C64.4825,103.534999 64.4350004,103.272501 64.35,103.0275 C64.2649996,102.782499 64.1400008,102.570001 63.975,102.39 C63.8099992,102.209999 63.6050012,102.067501 63.36,101.9625 C63.1149988,101.857499 62.8275017,101.805 62.4975,101.805 C62.1974985,101.805 61.9150013,101.857499 61.65,101.9625 C61.3849987,102.067501 61.155001,102.209999 60.96,102.39 C60.764999,102.570001 60.6050006,102.782499 60.48,103.0275 C60.3549994,103.272501 60.2825001,103.534999 60.2625,103.815 L64.4925,103.815 Z M65.9175,104.385 L65.9175,104.625 C65.9175,104.705 65.9125001,104.785 65.9025,104.865 L60.2625,104.865 C60.2725001,105.165001 60.3399994,105.447499 60.465,105.7125 C60.5900006,105.977501 60.757499,106.207499 60.9675,106.4025 C61.1775011,106.597501 61.4199986,106.749999 61.695,106.86 C61.9700014,106.970001 62.2624985,107.025 62.5725,107.025 C63.0525024,107.025 63.4674983,106.920001 63.8175,106.71 C64.1675018,106.499999 64.442499,106.245001 64.6425,105.945 L65.6325,106.74 C65.2524981,107.240002 64.8050026,107.607499 64.29,107.8425 C63.7749974,108.077501 63.2025032,108.195 62.5725,108.195 C62.0324973,108.195 61.5325023,108.105001 61.0725,107.925 C60.6124977,107.744999 60.2175017,107.492502 59.8875,107.1675 C59.5574984,106.842498 59.297501,106.450002 59.1075,105.99 C58.9174991,105.529998 58.8225,105.020003 58.8225,104.46 C58.8225,103.909997 58.9149991,103.402502 59.1,102.9375 C59.2850009,102.472498 59.5424984,102.075002 59.8725,101.745 C60.2025017,101.414998 60.5924978,101.157501 61.0425,100.9725 C61.4925023,100.787499 61.9774974,100.695 62.4975,100.695 C63.0175026,100.695 63.4899979,100.779999 63.915,100.95 C64.3400021,101.120001 64.6999985,101.364998 64.995,101.685 C65.2900015,102.005002 65.5174992,102.392498 65.6775,102.8475 C65.8375008,103.302502 65.9175,103.814997 65.9175,104.385 Z M69.2775,106.875 L69.2775,108 L67.9125,108 L67.9125,96.66 L69.3225,96.66 L69.3225,101.955 L69.3675,101.955 C69.6075012,101.604998 69.9424979,101.307501 70.3725,101.0625 C70.8025022,100.817499 71.3124971,100.695 71.9025,100.695 C72.4325027,100.695 72.9149978,100.789999 73.35,100.98 C73.7850022,101.170001 74.1599984,101.434998 74.475,101.775 C74.7900016,102.115002 75.0324992,102.512498 75.2025,102.9675 C75.3725009,103.422502 75.4575,103.909997 75.4575,104.43 C75.4575,104.950003 75.3725009,105.439998 75.2025,105.9 C75.0324992,106.360002 74.7925016,106.759998 74.4825,107.1 C74.1724985,107.440002 73.7975022,107.707499 73.3575,107.9025 C72.9174978,108.097501 72.4225028,108.195 71.8725,108.195 C71.3624975,108.195 70.8775023,108.082501 70.4175,107.8575 C69.9574977,107.632499 69.5875014,107.305002 69.3075,106.875 L69.2775,106.875 Z M74.0025,104.43 C74.0025,104.099998 73.9525005,103.780002 73.8525,103.47 C73.7524995,103.159998 73.602501,102.885001 73.4025,102.645 C73.202499,102.404999 72.9550015,102.215001 72.66,102.075 C72.3649985,101.934999 72.022502,101.865 71.6325,101.865 C71.2724982,101.865 70.9450015,101.934999 70.65,102.075 C70.3549985,102.215001 70.1025011,102.404999 69.8925,102.645 C69.682499,102.885001 69.5200006,103.159998 69.405,103.47 C69.2899994,103.780002 69.2325,104.104998 69.2325,104.445 C69.2325,104.785002 69.2899994,105.109998 69.405,105.42 C69.5200006,105.730002 69.682499,106.002499 69.8925,106.2375 C70.1025011,106.472501 70.3549985,106.659999 70.65,106.8 C70.9450015,106.940001 71.2724982,107.01 71.6325,107.01 C72.022502,107.01 72.3649985,106.937501 72.66,106.7925 C72.9550015,106.647499 73.202499,106.455001 73.4025,106.215 C73.602501,105.974999 73.7524995,105.700002 73.8525,105.39 C73.9525005,105.079998 74.0025,104.760002 74.0025,104.43 Z" id="Web"></path>
            </g>
        </g>
    </g>
</svg>