<?xml version="1.0" encoding="UTF-8"?>
<svg width="32px" height="12px" viewBox="0 0 32 12" version="1.1" xmlns="http://www.w3.org/2000/svg" xmlns:xlink="http://www.w3.org/1999/xlink">
    <!-- Generator: Sketch 41.2 (35397) - http://www.bohemiancoding.com/sketch -->
    <title>360ยบ</title>
    <desc>Created with Sketch.</desc>
    <defs></defs>
    <g id="Page-1" stroke="none" stroke-width="1" fill="none" fill-rule="evenodd">
        <g id="iPhone-7-Copy-4" transform="translate(-89.000000, -473.000000)" fill="#FFFFFF">
            <g id="Iconleft" transform="translate(45.000000, 376.000000)">
                <path d="M46.9575,101.85 L47.4225,101.85 C47.7225015,101.85 48.0149986,101.8225 48.3,101.7675 C48.5850014,101.7125 48.8374989,101.617501 49.0575,101.4825 C49.2775011,101.347499 49.4549993,101.165001 49.59,100.935 C49.7250007,100.704999 49.7925,100.420002 49.7925,100.08 C49.7925,99.8099987 49.7425005,99.5675011 49.6425,99.3525 C49.5424995,99.1374989 49.4050009,98.9550008 49.23,98.805 C49.0549991,98.6549993 48.8550011,98.5375004 48.63,98.4525 C48.4049989,98.3674996 48.1675013,98.325 47.9175,98.325 C47.4674978,98.325 47.0850016,98.4399989 46.77,98.67 C46.4549984,98.9000012 46.2175008,99.219998 46.0575,99.63 L44.7375,99.165 C44.9975013,98.5249968 45.4149971,98.0225018 45.99,97.6575 C46.5650029,97.2924982 47.2274963,97.11 47.9775,97.11 C48.4175022,97.11 48.834998,97.1724994 49.23,97.2975 C49.625002,97.4225006 49.9724985,97.6049988 50.2725,97.845 C50.5725015,98.0850012 50.8099991,98.3849982 50.985,98.745 C51.1600009,99.1050018 51.2475,99.5199977 51.2475,99.99 C51.2475,100.290002 51.2000005,100.569999 51.105,100.83 C51.0099995,101.090001 50.8800008,101.324999 50.715,101.535 C50.5499992,101.745001 50.3525012,101.924999 50.1225,102.075 C49.8924989,102.225001 49.6425014,102.335 49.3725,102.405 L49.3725,102.435 C49.6825016,102.495 49.9699987,102.599999 50.235,102.75 C50.5000013,102.900001 50.7274991,103.087499 50.9175,103.3125 C51.107501,103.537501 51.2574995,103.794999 51.3675,104.085 C51.4775006,104.375001 51.5325,104.689998 51.5325,105.03 C51.5325,105.560003 51.432501,106.027498 51.2325,106.4325 C51.032499,106.837502 50.7675017,107.174999 50.4375,107.445 C50.1074984,107.715001 49.7275022,107.919999 49.2975,108.06 C48.8674979,108.200001 48.4275023,108.27 47.9775,108.27 C47.1374958,108.27 46.3975032,108.080002 45.7575,107.7 C45.1174968,107.319998 44.6525015,106.730004 44.3625,105.93 L45.7125,105.48 C45.8725008,105.940002 46.1449981,106.314999 46.53,106.605 C46.9150019,106.895001 47.3874972,107.04 47.9475,107.04 C48.2175014,107.04 48.4799987,106.9975 48.735,106.9125 C48.9900013,106.8275 49.217499,106.700001 49.4175,106.53 C49.617501,106.359999 49.7774994,106.150001 49.8975,105.9 C50.0175006,105.649999 50.0775,105.355002 50.0775,105.015 C50.0775,104.644998 49.9975008,104.335001 49.8375,104.085 C49.6774992,103.834999 49.4700013,103.632501 49.215,103.4775 C48.9599987,103.322499 48.6725016,103.2125 48.3525,103.1475 C48.0324984,103.0825 47.7175016,103.05 47.4075,103.05 L46.9575,103.05 L46.9575,101.85 Z M56.1525,101.655 L56.1675,101.685 C56.3175008,101.595 56.5174988,101.525 56.7675,101.475 C57.0175013,101.425 57.2574989,101.4 57.4875,101.4 C57.9475023,101.4 58.379998,101.482499 58.785,101.6475 C59.190002,101.812501 59.5424985,102.042499 59.8425,102.3375 C60.1425015,102.632501 60.3774992,102.984998 60.5475,103.395 C60.7175009,103.805002 60.8025,104.249998 60.8025,104.73 C60.8025,105.260003 60.7100009,105.742498 60.525,106.1775 C60.3399991,106.612502 60.0825017,106.984998 59.7525,107.295 C59.4224984,107.605002 59.0350022,107.844999 58.59,108.015 C58.1449978,108.185001 57.6625026,108.27 57.1425,108.27 C56.6124974,108.27 56.1225023,108.182501 55.6725,108.0075 C55.2224978,107.832499 54.8350016,107.590002 54.51,107.28 C54.1849984,106.969998 53.9300009,106.600002 53.745,106.17 C53.5599991,105.739998 53.4675,105.275003 53.4675,104.775 C53.4675,104.194997 53.5624991,103.670002 53.7525,103.2 C53.942501,102.729998 54.1924985,102.250002 54.5025,101.76 L57.2775,97.38 L59.0025,97.38 L56.1525,101.655 Z M54.9375,104.79 C54.9375,105.100002 54.9899995,105.392499 55.095,105.6675 C55.2000005,105.942501 55.349999,106.179999 55.545,106.38 C55.740001,106.580001 55.9724987,106.739999 56.2425,106.86 C56.5125014,106.980001 56.8124984,107.04 57.1425,107.04 C57.4725017,107.04 57.7699987,106.985001 58.035,106.875 C58.3000013,106.764999 58.529999,106.607501 58.725,106.4025 C58.920001,106.197499 59.0699995,105.957501 59.175,105.6825 C59.2800005,105.407499 59.3325,105.105002 59.3325,104.775 C59.3325,104.454998 59.2800005,104.160001 59.175,103.89 C59.0699995,103.619999 58.9250009,103.385001 58.74,103.185 C58.5549991,102.984999 58.3275014,102.830001 58.0575,102.72 C57.7874987,102.609999 57.4875017,102.555 57.1575,102.555 C56.8274984,102.555 56.5250014,102.609999 56.25,102.72 C55.9749986,102.830001 55.740001,102.984999 55.545,103.185 C55.349999,103.385001 55.2000005,103.619999 55.095,103.89 C54.9899995,104.160001 54.9375,104.459998 54.9375,104.79 Z M66.0825,97.11 C66.7125032,97.11 67.2549977,97.2549986 67.71,97.545 C68.1650023,97.8350015 68.5399985,98.2324975 68.835,98.7375 C69.1300015,99.2425025 69.3474993,99.8349966 69.4875,100.515 C69.6275007,101.195003 69.6975,101.919996 69.6975,102.69 C69.6975,103.470004 69.6275007,104.197497 69.4875,104.8725 C69.3474993,105.547503 69.1300015,106.137497 68.835,106.6425 C68.5399985,107.147503 68.1650023,107.544999 67.71,107.835 C67.2549977,108.125001 66.7125032,108.27 66.0825,108.27 C65.4524969,108.27 64.9075023,108.125001 64.4475,107.835 C63.9874977,107.544999 63.6100015,107.147503 63.315,106.6425 C63.0199985,106.137497 62.8025007,105.547503 62.6625,104.8725 C62.5224993,104.197497 62.4525,103.470004 62.4525,102.69 C62.4525,101.919996 62.5224993,101.195003 62.6625,100.515 C62.8025007,99.8349966 63.0199985,99.2425025 63.315,98.7375 C63.6100015,98.2324975 63.9874977,97.8350015 64.4475,97.545 C64.9075023,97.2549986 65.4524969,97.11 66.0825,97.11 Z M66.0825,98.325 C65.6424978,98.325 65.2825014,98.4674986 65.0025,98.7525 C64.7224986,99.0375014 64.5050008,99.3974978 64.35,99.8325 C64.1949992,100.267502 64.0875003,100.739997 64.0275,101.25 C63.9674997,101.760003 63.9375,102.239998 63.9375,102.69 C63.9375,103.140002 63.9674997,103.619997 64.0275,104.13 C64.0875003,104.640003 64.1949992,105.109998 64.35,105.54 C64.5050008,105.970002 64.7224986,106.327499 65.0025,106.6125 C65.2825014,106.897501 65.6424978,107.04 66.0825,107.04 C66.5125022,107.04 66.8649986,106.897501 67.14,106.6125 C67.4150014,106.327499 67.6324992,105.970002 67.7925,105.54 C67.9525008,105.109998 68.0624997,104.640003 68.1225,104.13 C68.1825003,103.619997 68.2125,103.140002 68.2125,102.69 C68.2125,102.239998 68.1825003,101.760003 68.1225,101.25 C68.0624997,100.739997 67.9525008,100.267502 67.7925,99.8325 C67.6324992,99.3974978 67.4150014,99.0375014 67.14,98.7525 C66.8649986,98.4674986 66.5125022,98.325 66.0825,98.325 Z M75.6675,99.39 C75.6675,99.7100016 75.6100006,100.007499 75.495,100.2825 C75.3799994,100.557501 75.222501,100.792499 75.0225,100.9875 C74.822499,101.182501 74.5825014,101.334999 74.3025,101.445 C74.0224986,101.555001 73.7175017,101.61 73.3875,101.61 C73.0574984,101.61 72.7525014,101.555001 72.4725,101.445 C72.1924986,101.334999 71.952501,101.182501 71.7525,100.9875 C71.552499,100.792499 71.3950006,100.557501 71.28,100.2825 C71.1649994,100.007499 71.1075,99.7100016 71.1075,99.39 C71.1075,99.0599984 71.1649994,98.7600014 71.28,98.49 C71.3950006,98.2199987 71.552499,97.987501 71.7525,97.7925 C71.952501,97.597499 72.1924986,97.4450006 72.4725,97.335 C72.7525014,97.2249995 73.0574984,97.17 73.3875,97.17 C73.7175017,97.17 74.0224986,97.2249995 74.3025,97.335 C74.5825014,97.4450006 74.822499,97.597499 75.0225,97.7925 C75.222501,97.987501 75.3799994,98.2199987 75.495,98.49 C75.6100006,98.7600014 75.6675,99.0599984 75.6675,99.39 Z M74.5425,99.39 C74.5425,99.0599984 74.445001,98.7725012 74.25,98.5275 C74.054999,98.2824988 73.7675019,98.16 73.3875,98.16 C73.0074981,98.16 72.722501,98.2824988 72.5325,98.5275 C72.3424991,98.7725012 72.2475,99.0599984 72.2475,99.39 C72.2475,99.7100016 72.3424991,99.9949988 72.5325,100.245 C72.722501,100.495001 73.0074981,100.62 73.3875,100.62 C73.7675019,100.62 74.054999,100.495001 74.25,100.245 C74.445001,99.9949988 74.5425,99.7100016 74.5425,99.39 Z" id="360ยบ"></path>
            </g>
        </g>
    </g>
</svg>