<?xml version="1.0" encoding="UTF-8" standalone="no"?>
<svg width="530px" height="404px" viewBox="0 0 530 404" version="1.1" xmlns="http://www.w3.org/2000/svg" xmlns:xlink="http://www.w3.org/1999/xlink">
    <!-- Generator: Sketch 3.7.1 (28215) - http://www.bohemiancoding.com/sketch -->
    <title>Group</title>
    <desc>Created with Sketch.</desc>
    <defs></defs>
    <g id="Page-1" stroke="none" stroke-width="1" fill="none" fill-rule="evenodd">
        <g id="Group">
            <path d="M188.771075,389.599849 C189.329155,389.261792 189.967453,389.053227 190.624086,389.065833 C194.221241,389.064687 197.818397,389.063541 201.415553,389.066979 C202.899566,389.071563 204.275859,390.126988 204.773204,391.506719 C205.110115,392.447549 204.940513,393.459428 204.98406,394.435783 C205.898533,393.976254 206.813005,393.517872 207.728624,393.062927 C208.03574,392.869261 208.456306,393.172939 208.389841,393.522456 C208.382965,395.322753 208.392133,397.123049 208.385257,398.9222 C208.411614,399.235046 208.031157,399.472259 207.757273,399.322139 C206.827903,398.871778 205.9077,398.396206 204.980622,397.940116 C204.981768,398.264421 204.981768,398.588727 204.985206,398.913032 C199.580877,395.807492 194.177695,392.699659 188.771075,389.599849 L188.771075,389.599849 L188.771075,389.599849 Z M187.001719,392.720286 C187.001719,391.694656 187.469269,390.701112 188.217578,390.007809 C190.061421,391.056359 191.901827,392.115222 193.736502,393.182107 C193.730772,395.08554 193.735356,396.990118 193.73421,398.893551 C191.790669,399.945539 189.834522,400.973461 187.897856,402.036908 C187.328316,401.365378 186.997135,400.49789 187.001719,399.613212 C186.999427,397.31557 186.999427,395.017928 187.001719,392.720286 L187.001719,392.720286 L187.001719,392.720286 Z M188.444477,402.553734 C192.097785,400.493306 195.788909,398.499342 199.453676,396.457249 C201.287206,397.544761 203.153968,398.578413 204.998957,399.64759 C204.957703,400.465803 204.705592,401.285161 204.177307,401.922313 C203.509214,402.742817 202.481292,403.330693 201.402947,403.283709 C197.96508,403.279125 194.526066,403.282563 191.088198,403.281417 C190.591999,403.276833 190.079757,403.323817 189.603039,403.155361 C189.183619,403.025868 188.805454,402.796677 188.444477,402.553734 L188.444477,402.553734 L188.444477,402.553734 Z M213.068903,389.308215 L217.794867,389.308215 C218.251484,389.308215 218.702387,389.362437 219.147589,389.470884 C219.59279,389.579331 219.98947,389.756267 220.337641,390.001699 C220.685812,390.247131 220.968339,390.563904 221.185232,390.952028 C221.402125,391.340153 221.51057,391.808179 221.51057,392.356119 C221.51057,393.041045 221.316511,393.6061 220.928386,394.051302 C220.540262,394.496504 220.032283,394.816131 219.404434,395.010193 L219.404434,395.044439 C220.169268,395.147178 220.797107,395.443975 221.287971,395.934838 C221.778834,396.425702 222.024262,397.082079 222.024262,397.90399 C222.024262,398.566085 221.892987,399.122578 221.630432,399.573488 C221.367877,400.024397 221.022565,400.386832 220.594487,400.660802 C220.166408,400.934772 219.675552,401.131685 219.121904,401.251547 C218.568256,401.371409 218.006054,401.431339 217.435283,401.431339 L213.068903,401.431339 L213.068903,389.308215 L213.068903,389.308215 L213.068903,389.308215 Z M215.226408,394.239655 L217.144191,394.239655 C217.863363,394.239655 218.411295,394.096965 218.788004,393.811579 C219.164713,393.526193 219.353065,393.120952 219.353065,392.595842 C219.353065,392.047901 219.159006,391.659783 218.770881,391.431474 C218.382757,391.203165 217.777748,391.089013 216.955837,391.089013 L215.226408,391.089013 L215.226408,394.239655 L215.226408,394.239655 L215.226408,394.239655 Z M215.226408,399.616295 L217.161314,399.616295 C217.435284,399.616295 217.732081,399.596319 218.051713,399.556365 C218.371345,399.516411 218.665288,399.43365 218.93355,399.30808 C219.201813,399.182511 219.42441,398.999867 219.601349,398.760143 C219.778289,398.520419 219.866757,398.200791 219.866757,397.801251 C219.866757,397.161987 219.649867,396.716792 219.216081,396.465653 C218.782294,396.214513 218.125917,396.088946 217.246929,396.088946 L215.226408,396.088946 L215.226408,399.616295 L215.226408,399.616295 L215.226408,399.616295 Z M224.147521,389.308215 L228.359793,389.308215 C228.930565,389.308215 229.484205,389.368145 230.02073,389.488007 C230.557255,389.607869 231.033842,389.804782 231.450505,390.078753 C231.867168,390.352723 232.201064,390.712304 232.452204,391.157505 C232.703343,391.602707 232.828911,392.144931 232.828911,392.784196 C232.828911,393.663184 232.580629,394.379491 232.084058,394.933139 C231.587487,395.486787 230.911133,395.860637 230.054976,396.0547 L233.291234,401.431339 L230.688529,401.431339 L227.880348,396.294422 L226.305026,396.294422 L226.305026,401.431339 L224.147521,401.431339 L224.147521,389.308215 L224.147521,389.308215 L224.147521,389.308215 Z M228.068701,394.530747 C228.376918,394.530747 228.68513,394.507917 228.993346,394.462255 C229.301563,394.416593 229.578383,394.330979 229.823815,394.205409 C230.069246,394.07984 230.271867,393.900049 230.431683,393.666033 C230.591499,393.432017 230.671406,393.132366 230.671406,392.767073 C230.671406,392.436025 230.597207,392.164913 230.448806,391.953727 C230.300406,391.742542 230.112054,391.574167 229.883745,391.448597 C229.655437,391.323027 229.39574,391.237413 229.104646,391.191751 C228.813553,391.14609 228.531025,391.123259 228.257055,391.123259 L226.305026,391.123259 L226.305026,394.530747 L228.068701,394.530747 L228.068701,394.530747 L228.068701,394.530747 Z M234.33574,395.335531 C234.33574,394.36522 234.498408,393.489099 234.823747,392.707142 C235.149087,391.925185 235.59999,391.260246 236.176469,390.712306 C236.752948,390.164365 237.437863,389.742001 238.231236,389.445199 C239.024608,389.148398 239.889314,389 240.825379,389 C241.772859,389 242.646127,389.148398 243.445207,389.445199 C244.244287,389.742001 244.93491,390.164365 245.517097,390.712306 C246.099283,391.260246 246.55304,391.925185 246.87838,392.707142 C247.203719,393.489099 247.366387,394.36522 247.366387,395.335531 C247.366387,396.283012 247.203719,397.147717 246.87838,397.929674 C246.55304,398.711631 246.099283,399.385131 245.517097,399.950195 C244.93491,400.515259 244.244287,400.954746 243.445207,401.26867 C242.646127,401.582595 241.772859,401.739554 240.825379,401.739554 C239.889314,401.739554 239.024608,401.582595 238.231236,401.26867 C237.437863,400.954746 236.752948,400.515259 236.176469,399.950195 C235.59999,399.385131 235.149087,398.711631 234.823747,397.929674 C234.498408,397.147717 234.33574,396.283012 234.33574,395.335531 L234.33574,395.335531 L234.33574,395.335531 L234.33574,395.335531 Z M236.681599,395.335531 C236.681599,395.986211 236.781482,396.582658 236.981252,397.124891 C237.181022,397.667123 237.466404,398.138003 237.837405,398.537543 C238.208407,398.937083 238.647894,399.248148 239.155881,399.470749 C239.663867,399.69335 240.226069,399.804649 240.842502,399.804649 C241.458935,399.804649 242.02399,399.69335 242.537685,399.470749 C243.051379,399.248148 243.49372,398.937083 243.864722,398.537543 C244.235723,398.138003 244.521104,397.667123 244.720874,397.124891 C244.920644,396.582658 245.020528,395.986211 245.020528,395.335531 C245.020528,394.707683 244.920644,394.125504 244.720874,393.588979 C244.521104,393.052454 244.238577,392.584429 243.873283,392.184889 C243.507989,391.785349 243.068502,391.471429 242.554808,391.24312 C242.041113,391.014812 241.47035,390.900659 240.842502,390.900659 C240.214653,390.900659 239.646744,391.014812 239.138758,391.24312 C238.630771,391.471429 238.194138,391.785349 237.828844,392.184889 C237.46355,392.584429 237.181022,393.052454 236.981252,393.588979 C236.781482,394.125504 236.681599,394.707683 236.681599,395.335531 L236.681599,395.335531 L236.681599,395.335531 L236.681599,395.335531 Z M252.948503,389.308215 L254.814917,389.308215 L260.037449,401.431339 L257.571729,401.431339 L256.441607,398.657404 L251.184828,398.657404 L250.088953,401.431339 L247.674602,401.431339 L252.948503,389.308215 L252.948503,389.308215 L252.948503,389.308215 Z M255.688192,396.808114 L253.821779,391.876674 L251.92112,396.808114 L255.688192,396.808114 L255.688192,396.808114 L255.688192,396.808114 Z M261.236063,389.308215 L265.53395,389.308215 C266.321615,389.308215 267.114975,389.410952 267.914055,389.61643 C268.713135,389.821908 269.432296,390.161512 270.07156,390.635252 C270.710825,391.108992 271.230219,391.731124 271.629759,392.501665 C272.029299,393.272207 272.229066,394.228234 272.229066,395.369777 C272.229066,396.431412 272.029299,397.344633 271.629759,398.109466 C271.230219,398.8743 270.710825,399.502139 270.07156,399.993003 C269.432296,400.483866 268.713135,400.846301 267.914055,401.080317 C267.114975,401.314333 266.321615,401.431339 265.53395,401.431339 L261.236063,401.431339 L261.236063,389.308215 L261.236063,389.308215 L261.236063,389.308215 Z M265.191489,399.547803 C265.750845,399.547803 266.310193,399.482165 266.869549,399.350888 C267.428905,399.219611 267.93403,398.997013 268.384939,398.683089 C268.835849,398.369165 269.203991,397.943946 269.489377,397.407421 C269.774762,396.870896 269.917453,396.191688 269.917453,395.369777 C269.917453,394.502205 269.774762,393.794459 269.489377,393.246518 C269.203991,392.698578 268.835849,392.270505 268.384939,391.962289 C267.93403,391.654072 267.428905,391.44289 266.869549,391.328736 C266.310193,391.214581 265.750845,391.157505 265.191489,391.157505 L263.393568,391.157505 L263.393568,399.547803 L265.191489,399.547803 L265.191489,399.547803 L265.191489,399.547803 Z M283.067961,392.150642 C282.748329,391.716856 282.331672,391.400083 281.817978,391.200313 C281.304283,391.000543 280.802012,390.900659 280.311149,390.900659 C279.6833,390.900659 279.112537,391.014812 278.598843,391.24312 C278.085149,391.471429 277.642807,391.785349 277.271806,392.184889 C276.900805,392.584429 276.615423,393.052454 276.415653,393.588979 C276.215883,394.125504 276.116,394.707683 276.116,395.335531 C276.116,395.997626 276.213029,396.602635 276.407092,397.150575 C276.601154,397.698516 276.877974,398.169395 277.23756,398.563227 C277.597146,398.95706 278.028072,399.262418 278.530351,399.479311 C279.03263,399.696204 279.597685,399.804649 280.225533,399.804649 C280.876213,399.804649 281.452683,399.676227 281.954962,399.41938 C282.457241,399.162533 282.862482,398.822929 283.170699,398.400558 L284.900128,399.616295 C284.363603,400.289806 283.707226,400.812054 282.930976,401.183055 C282.154727,401.554057 281.247214,401.739554 280.20841,401.739554 C279.26093,401.739554 278.390516,401.582595 277.597144,401.26867 C276.803772,400.954746 276.12171,400.515259 275.550939,399.950195 C274.980167,399.385131 274.534972,398.711631 274.21534,397.929674 C273.895708,397.147717 273.735895,396.283012 273.735895,395.335531 C273.735895,394.36522 273.90427,393.489099 274.241025,392.707142 C274.57778,391.925185 275.040098,391.260246 275.627993,390.712306 C276.215887,390.164365 276.909364,389.742001 277.708444,389.445199 C278.507524,389.148398 279.375084,389 280.311149,389 C280.699273,389 281.104515,389.0371 281.526886,389.1113 C281.949257,389.1855 282.354498,389.299653 282.742623,389.453761 C283.130747,389.607869 283.496035,389.799075 283.838498,390.027383 C284.180962,390.255692 284.472051,390.529658 284.711774,390.84929 L283.067961,392.150642 L283.067961,392.150642 L283.067961,392.150642 Z M289.831568,389.308215 L291.697982,389.308215 L296.920514,401.431339 L294.454794,401.431339 L293.324672,398.657404 L288.067894,398.657404 L286.972018,401.431339 L284.557667,401.431339 L289.831568,389.308215 L289.831568,389.308215 L289.831568,389.308215 Z M292.571258,396.808114 L290.704844,391.876674 L288.804185,396.808114 L292.571258,396.808114 L292.571258,396.808114 L292.571258,396.808114 Z M304.300552,391.842427 C304.072243,391.545626 303.749762,391.297345 303.333099,391.097575 C302.916436,390.897805 302.496925,390.797921 302.074554,390.797921 C301.823415,390.797921 301.572279,390.829313 301.32114,390.892098 C301.070001,390.954883 300.841695,391.051912 300.636218,391.18319 C300.43074,391.314467 300.262365,391.485696 300.131087,391.696882 C299.99981,391.908067 299.934172,392.162056 299.934172,392.458858 C299.934172,392.732828 299.991248,392.966841 300.105403,393.160903 C300.219557,393.354965 300.376517,393.520486 300.576287,393.657471 C300.776057,393.794457 301.018631,393.914317 301.304017,394.017056 C301.589403,394.119795 301.903322,394.222532 302.245785,394.325271 C302.63391,394.450841 303.036297,394.593531 303.45296,394.753347 C303.869623,394.913163 304.252035,395.124345 304.600205,395.3869 C304.948376,395.649455 305.233757,395.980498 305.456358,396.380038 C305.678959,396.779578 305.790258,397.276141 305.790258,397.869744 C305.790258,398.520423 305.670398,399.088332 305.430673,399.573488 C305.190949,400.058644 304.871322,400.461031 304.471782,400.780663 C304.072242,401.100295 303.604217,401.340016 303.067691,401.499832 C302.531167,401.659648 301.966111,401.739554 301.372509,401.739554 C300.584845,401.739554 299.814315,401.59401 299.060896,401.302917 C298.307478,401.011823 297.691055,400.580897 297.211606,400.010126 L298.752681,398.571789 C299.049483,398.982744 299.446162,399.308079 299.942734,399.547803 C300.439305,399.787527 300.927307,399.907387 301.406755,399.907387 C301.657894,399.907387 301.914738,399.875995 302.177293,399.813211 C302.439848,399.750426 302.676714,399.644835 302.8879,399.496434 C303.099085,399.348033 303.270313,399.162536 303.401591,398.939935 C303.532869,398.717334 303.598507,398.440514 303.598507,398.109466 C303.598507,397.789834 303.524307,397.52443 303.375907,397.313244 C303.227506,397.102059 303.027739,396.919415 302.7766,396.765306 C302.525461,396.611198 302.228664,396.477069 301.886201,396.362915 C301.543738,396.24876 301.184157,396.1289 300.807448,396.00333 C300.442154,395.889176 300.076866,395.752193 299.711572,395.592377 C299.346279,395.432561 299.01809,395.221379 298.726997,394.958824 C298.435903,394.696269 298.199037,394.373788 298.01639,393.991371 C297.833743,393.608954 297.742421,393.132367 297.742421,392.561596 C297.742421,391.945163 297.870843,391.414353 298.12769,390.969152 C298.384536,390.52395 298.721287,390.155808 299.13795,389.864714 C299.554613,389.573621 300.028346,389.356731 300.559164,389.214038 C301.089981,389.071345 301.629352,389 302.177293,389 C302.793725,389 303.418712,389.108445 304.052267,389.325338 C304.685823,389.542231 305.23661,389.867566 305.704643,390.301352 L304.300552,391.842427 L304.300552,391.842427 L304.300552,391.842427 Z M310.122391,391.191751 L306.406688,391.191751 L306.406688,389.308215 L315.995599,389.308215 L315.995599,391.191751 L312.279896,391.191751 L312.279896,401.431339 L310.122391,401.431339 L310.122391,391.191751 L310.122391,391.191751 L310.122391,391.191751 Z M317.39969,389.308215 L325.430404,389.308215 L325.430404,391.191751 L319.557196,391.191751 L319.557196,394.273902 L325.122189,394.273902 L325.122189,396.088946 L319.557196,396.088946 L319.557196,399.513557 L325.73862,399.513557 L325.73862,401.431339 L317.39969,401.431339 L317.39969,389.308215 L317.39969,389.308215 L317.39969,389.308215 Z M327.844756,389.308215 L332.057027,389.308215 C332.627799,389.308215 333.181438,389.368145 333.717964,389.488007 C334.254489,389.607869 334.731076,389.804782 335.147739,390.078753 C335.564402,390.352723 335.898298,390.712304 336.149438,391.157505 C336.400577,391.602707 336.526145,392.144931 336.526145,392.784196 C336.526145,393.663184 336.277864,394.379491 335.781293,394.933139 C335.284721,395.486787 334.608367,395.860637 333.75221,396.0547 L336.988467,401.431339 L334.385763,401.431339 L331.577582,396.294422 L330.00226,396.294422 L330.00226,401.431339 L327.844756,401.431339 L327.844756,389.308215 L327.844756,389.308215 L327.844756,389.308215 Z M331.765936,394.530747 C332.074152,394.530747 332.382363,394.507917 332.690581,394.462255 C332.998797,394.416593 333.275618,394.330979 333.521049,394.205409 C333.76648,394.07984 333.969101,393.900049 334.128917,393.666033 C334.288734,393.432017 334.36864,393.132366 334.36864,392.767073 C334.36864,392.436025 334.294441,392.164913 334.14604,391.953727 C333.997639,391.742542 333.809288,391.574167 333.58098,391.448597 C333.352672,391.323027 333.092974,391.237413 332.801881,391.191751 C332.510786,391.14609 332.228259,391.123259 331.95429,391.123259 L330.00226,391.123259 L330.00226,394.530747 L331.765936,394.530747 L331.765936,394.530747 L331.765936,394.530747 Z" id="Shape" fill="#60D8FF"></path>
            <path d="M129.136,160.716 L163.04,160.716 L163.04,181.254 L129.136,181.254 L129.136,237 L106.316,237 L106.316,181.254 L0.692,181.254 L0.692,158.434 L98.492,6.192 L129.136,6.192 L129.136,160.716 Z M106.316,32.598 L105.664,32.598 L25.142,160.716 L106.316,160.716 L106.316,32.598 Z M264.62,0.324 C278.964072,0.324 290.971618,3.85563135 300.643,10.919 C310.314382,17.9823687 318.083971,27.218943 323.952,38.629 C329.820029,50.039057 334.003654,63.0245939 336.503,77.586 C339.002346,92.1474061 340.252,106.925925 340.252,121.922 C340.252,136.918075 339.002346,151.642261 336.503,166.095 C334.003654,180.547739 329.820029,193.478943 323.952,204.889 C318.083971,216.299057 310.314382,225.481299 300.643,232.436 C290.971618,239.390701 278.964072,242.868 264.62,242.868 C250.058594,242.868 237.942382,239.390701 228.271,232.436 C218.599618,225.481299 210.830029,216.299057 204.962,204.889 C199.093971,193.478943 194.964679,180.547739 192.574,166.095 C190.183321,151.642261 188.988,136.918075 188.988,121.922 C188.988,106.925925 190.183321,92.1474061 192.574,77.586 C194.964679,63.0245939 199.093971,50.039057 204.962,38.629 C210.830029,27.218943 218.599618,17.9823687 228.271,10.919 C237.942382,3.85563135 250.058594,0.324 264.62,0.324 L264.62,0.324 Z M264.62,20.21 C254.405282,20.21 245.929367,23.3613018 239.192,29.664 C232.454633,35.9666982 227.13002,44.0079511 223.218,53.788 C219.30598,63.5680489 216.589341,74.4889397 215.068,86.551 C213.546659,98.6130603 212.786,110.403276 212.786,121.922 C212.786,133.440724 213.546659,145.176607 215.068,157.13 C216.589341,169.083393 219.30598,179.895618 223.218,189.567 C227.13002,199.238382 232.454633,207.170969 239.192,213.365 C245.929367,219.559031 254.405282,222.656 264.62,222.656 C274.617383,222.656 282.984633,219.559031 289.722,213.365 C296.459367,207.170969 301.78398,199.238382 305.696,189.567 C309.60802,179.895618 312.378992,169.083393 314.009,157.13 C315.639008,145.176607 316.454,133.440724 316.454,121.922 C316.454,110.403276 315.639008,98.6130603 314.009,86.551 C312.378992,74.4889397 309.60802,63.5680489 305.696,53.788 C301.78398,44.0079511 296.459367,35.9666982 289.722,29.664 C282.984633,23.3613018 274.617383,20.21 264.62,20.21 L264.62,20.21 Z M495.296,160.716 L529.2,160.716 L529.2,181.254 L495.296,181.254 L495.296,237 L472.476,237 L472.476,181.254 L366.852,181.254 L366.852,158.434 L464.652,6.192 L495.296,6.192 L495.296,160.716 Z M472.476,32.598 L471.824,32.598 L391.302,160.716 L472.476,160.716 L472.476,32.598 Z" id="404" fill="#60D9FF"></path>
            <path d="M26.2375054,311.168 L22.9255054,311.168 L22.9255054,287.432 L26.2375054,287.432 L26.2375054,311.168 Z M27.0655054,317.792 C27.0655054,318.436003 26.8355077,319.010997 26.3755054,319.517 C25.9155031,320.023003 25.317509,320.276 24.5815054,320.276 C23.8455017,320.276 23.2475077,320.023003 22.7875054,319.517 C22.3275031,319.010997 22.0975054,318.436003 22.0975054,317.792 C22.0975054,317.147997 22.3275031,316.573003 22.7875054,316.067 C23.2475077,315.560997 23.8455017,315.308 24.5815054,315.308 C25.317509,315.308 25.9155031,315.560997 26.3755054,316.067 C26.8355077,316.573003 27.0655054,317.147997 27.0655054,317.792 L27.0655054,317.792 Z M46.2562545,287.432 L55.4562545,287.432 C57.1122628,287.432 58.6149144,287.608332 59.9642545,287.961 C61.3135946,288.313668 62.4712496,288.85033 63.4372545,289.571 C64.4032593,290.29167 65.1469185,291.196328 65.6682545,292.285 C66.1895904,293.373672 66.4502545,294.653993 66.4502545,296.126 C66.4502545,297.598007 66.1819238,298.878328 65.6452545,299.967 C65.1085851,301.055672 64.3572593,301.96033 63.3912545,302.681 C62.4252496,303.40167 61.259928,303.945998 59.8952545,304.314 C58.530581,304.682002 57.0202628,304.866 55.3642545,304.866 L49.5682545,304.866 L49.5682545,320 L46.2562545,320 L46.2562545,287.432 Z M49.5682545,302.06 L55.1802545,302.06 C57.7869342,302.06 59.7649144,301.554005 61.1142545,300.542 C62.4635946,299.529995 63.1382545,298.05801 63.1382545,296.126 C63.1382545,294.10199 62.4405948,292.622338 61.0452545,291.687 C59.6499142,290.751662 57.6949337,290.284 55.1802545,290.284 L49.5682545,290.284 L49.5682545,302.06 Z M82.715629,306.108 C82.715629,304.237324 82.2249673,302.842005 81.243629,301.922 C80.2622908,301.001995 78.836305,300.542 76.965629,300.542 C75.6776226,300.542 74.4816345,300.771998 73.377629,301.232 C72.2736235,301.692002 71.3382995,302.305329 70.571629,303.072 L68.823629,301.002 C69.7129668,300.112662 70.8859551,299.37667 72.342629,298.794 C73.799303,298.21133 75.4476198,297.92 77.287629,297.92 C78.4529682,297.92 79.541624,298.080998 80.553629,298.403 C81.5656341,298.725002 82.4549585,299.207997 83.221629,299.852 C83.9882995,300.496003 84.5862935,301.308662 85.015629,302.29 C85.4449645,303.271338 85.659629,304.421327 85.659629,305.74 L85.659629,315.17 C85.659629,315.998004 85.6902954,316.856662 85.751629,317.746 C85.8129627,318.635338 85.9049617,319.386664 86.027629,320 L83.221629,320 C83.1296286,319.478664 83.0529627,318.911336 82.991629,318.298 C82.9302954,317.684664 82.899629,317.08667 82.899629,316.504 L82.807629,316.504 C81.8262908,317.945341 80.7146352,318.98033 79.472629,319.609 C78.2306228,320.23767 76.7356378,320.552 74.987629,320.552 C74.1596249,320.552 73.3086334,320.437001 72.434629,320.207 C71.5606247,319.976999 70.7632993,319.601336 70.042629,319.08 C69.3219588,318.558664 68.7239647,317.884004 68.248629,317.056 C67.7732933,316.227996 67.535629,315.216006 67.535629,314.02 C67.535629,312.363992 67.9572915,311.053005 68.800629,310.087 C69.6439666,309.120995 70.7709553,308.400336 72.181629,307.925 C73.5923027,307.449664 75.2099532,307.143001 77.034629,307.005 C78.8593048,306.866999 80.7529525,306.798 82.715629,306.798 L82.715629,306.108 Z M81.795629,309.236 C80.5076226,309.236 79.2119689,309.289666 77.908629,309.397 C76.6052892,309.504334 75.4246343,309.718998 74.366629,310.041 C73.3086237,310.363002 72.4422991,310.830664 71.767629,311.444 C71.092959,312.057336 70.755629,312.869995 70.755629,313.882 C70.755629,314.64867 70.9012942,315.292664 71.192629,315.814 C71.4839638,316.335336 71.8749599,316.756998 72.365629,317.079 C72.8562981,317.401002 73.400626,317.630999 73.998629,317.769 C74.596632,317.907001 75.2022926,317.976 75.815629,317.976 C76.9196345,317.976 77.9009581,317.784335 78.759629,317.401 C79.6183,317.017665 80.3389594,316.496337 80.921629,315.837 C81.5042986,315.177663 81.9489608,314.418671 82.255629,313.56 C82.5622972,312.701329 82.715629,311.796671 82.715629,310.846 L82.715629,309.236 L81.795629,309.236 Z M77.609629,294.056 L74.895629,294.056 L79.495629,287.432 L83.681629,287.432 L77.609629,294.056 Z M94.0130036,324.324 C94.8716745,325.428006 96.0446628,326.363329 97.5320036,327.13 C99.0193443,327.896671 100.590995,328.28 102.247004,328.28 C103.780345,328.28 105.083665,328.057669 106.157004,327.613 C107.230342,327.168331 108.096667,326.56267 108.756004,325.796 C109.41534,325.02933 109.898335,324.132338 110.205004,323.105 C110.511672,322.077662 110.665004,320.981339 110.665004,319.816 L110.665004,315.768 L110.573004,315.768 C109.744999,317.11734 108.572011,318.159996 107.054004,318.896 C105.535996,319.632004 103.995011,320 102.431004,320 C100.744328,320 99.2186771,319.724003 97.8540036,319.172 C96.4893301,318.619997 95.3240084,317.861005 94.3580036,316.895 C93.3919987,315.928995 92.6406729,314.77134 92.1040036,313.422 C91.5673342,312.07266 91.2990036,310.616008 91.2990036,309.052 C91.2990036,307.518659 91.5673342,306.07734 92.1040036,304.728 C92.6406729,303.37866 93.3919987,302.198005 94.3580036,301.186 C95.3240084,300.173995 96.4893301,299.37667 97.8540036,298.794 C99.2186771,298.21133 100.744328,297.92 102.431004,297.92 C103.995011,297.92 105.528329,298.287996 107.031004,299.024 C108.533678,299.760004 109.714333,300.817993 110.573004,302.198 L110.665004,302.198 L110.665004,298.472 L113.793004,298.472 L113.793004,319.816 C113.793004,320.981339 113.632005,322.223327 113.310004,323.542 C112.988002,324.860673 112.390008,326.071994 111.516004,327.176 C110.641999,328.280006 109.453678,329.199996 107.951004,329.936 C106.448329,330.672004 104.501016,331.04 102.109004,331.04 C100.11566,331.04 98.214346,330.656671 96.4050036,329.89 C94.5956612,329.12333 93.04701,328.06534 91.7590036,326.716 L94.0130036,324.324 Z M94.6110036,308.96 C94.6110036,310.094672 94.7950017,311.167995 95.1630036,312.18 C95.5310054,313.192005 96.0600001,314.081329 96.7500036,314.848 C97.440007,315.61467 98.2909985,316.220331 99.3030036,316.665 C100.315009,317.109669 101.464997,317.332 102.753004,317.332 C103.94901,317.332 105.052999,317.132669 106.065004,316.734 C107.077009,316.335331 107.951,315.768004 108.687004,315.032 C109.423007,314.295996 109.998002,313.414338 110.412004,312.387 C110.826006,311.359662 111.033004,310.21734 111.033004,308.96 C111.033004,307.825328 110.826006,306.752005 110.412004,305.74 C109.998002,304.727995 109.423007,303.838671 108.687004,303.072 C107.951,302.305329 107.077009,301.692002 106.065004,301.232 C105.052999,300.771998 103.94901,300.542 102.753004,300.542 C101.464997,300.542 100.315009,300.771998 99.3030036,301.232 C98.2909985,301.692002 97.440007,302.305329 96.7500036,303.072 C96.0600001,303.838671 95.5310054,304.727995 95.1630036,305.74 C94.7950017,306.752005 94.6110036,307.825328 94.6110036,308.96 L94.6110036,308.96 Z M124.262378,320 L121.134378,320 L121.134378,298.472 L124.262378,298.472 L124.262378,320 Z M124.906378,290.192 C124.906378,290.836003 124.67638,291.364998 124.216378,291.779 C123.756376,292.193002 123.250381,292.4 122.698378,292.4 C122.146375,292.4 121.64038,292.193002 121.180378,291.779 C120.720376,291.364998 120.490378,290.836003 120.490378,290.192 C120.490378,289.547997 120.720376,289.019002 121.180378,288.605 C121.64038,288.190998 122.146375,287.984 122.698378,287.984 C123.250381,287.984 123.756376,288.190998 124.216378,288.605 C124.67638,289.019002 124.906378,289.547997 124.906378,290.192 L124.906378,290.192 Z M134.547753,298.472 C134.609086,299.05467 134.655086,299.698663 134.685753,300.404 C134.71642,301.109337 134.731753,301.691998 134.731753,302.152 L134.823753,302.152 C135.437089,300.89466 136.433746,299.875004 137.813753,299.093 C139.19376,298.310996 140.650412,297.92 142.183753,297.92 C144.9131,297.92 146.960079,298.732659 148.324753,300.358 C149.689426,301.983341 150.371753,304.129987 150.371753,306.798 L150.371753,320 L147.243753,320 L147.243753,308.086 C147.243753,306.951328 147.151754,305.924005 146.967753,305.004 C146.783752,304.083995 146.469422,303.294337 146.024753,302.635 C145.580084,301.975663 144.98209,301.462002 144.230753,301.094 C143.479416,300.725998 142.536425,300.542 141.401753,300.542 C140.573749,300.542 139.768757,300.710665 138.986753,301.048 C138.204749,301.385335 137.507089,301.898997 136.893753,302.589 C136.280416,303.279003 135.789755,304.152995 135.421753,305.211 C135.053751,306.269005 134.869753,307.518659 134.869753,308.96 L134.869753,320 L131.741753,320 L131.741753,303.21 C131.741753,302.62733 131.72642,301.876005 131.695753,300.956 C131.665086,300.035995 131.619086,299.208004 131.557753,298.472 L134.547753,298.472 Z M171.191127,306.108 C171.191127,304.237324 170.700465,302.842005 169.719127,301.922 C168.737789,301.001995 167.311803,300.542 165.441127,300.542 C164.153121,300.542 162.957133,300.771998 161.853127,301.232 C160.749122,301.692002 159.813798,302.305329 159.047127,303.072 L157.299127,301.002 C158.188465,300.112662 159.361453,299.37667 160.818127,298.794 C162.274801,298.21133 163.923118,297.92 165.763127,297.92 C166.928466,297.92 168.017122,298.080998 169.029127,298.403 C170.041132,298.725002 170.930457,299.207997 171.697127,299.852 C172.463798,300.496003 173.061792,301.308662 173.491127,302.29 C173.920463,303.271338 174.135127,304.421327 174.135127,305.74 L174.135127,315.17 C174.135127,315.998004 174.165794,316.856662 174.227127,317.746 C174.288461,318.635338 174.38046,319.386664 174.503127,320 L171.697127,320 C171.605127,319.478664 171.528461,318.911336 171.467127,318.298 C171.405794,317.684664 171.375127,317.08667 171.375127,316.504 L171.283127,316.504 C170.301789,317.945341 169.190133,318.98033 167.948127,319.609 C166.706121,320.23767 165.211136,320.552 163.463127,320.552 C162.635123,320.552 161.784132,320.437001 160.910127,320.207 C160.036123,319.976999 159.238798,319.601336 158.518127,319.08 C157.797457,318.558664 157.199463,317.884004 156.724127,317.056 C156.248792,316.227996 156.011127,315.216006 156.011127,314.02 C156.011127,312.363992 156.43279,311.053005 157.276127,310.087 C158.119465,309.120995 159.246454,308.400336 160.657127,307.925 C162.067801,307.449664 163.685451,307.143001 165.510127,307.005 C167.334803,306.866999 169.228451,306.798 171.191127,306.798 L171.191127,306.108 Z M170.271127,309.236 C168.983121,309.236 167.687467,309.289666 166.384127,309.397 C165.080787,309.504334 163.900133,309.718998 162.842127,310.041 C161.784122,310.363002 160.917797,310.830664 160.243127,311.444 C159.568457,312.057336 159.231127,312.869995 159.231127,313.882 C159.231127,314.64867 159.376792,315.292664 159.668127,315.814 C159.959462,316.335336 160.350458,316.756998 160.841127,317.079 C161.331796,317.401002 161.876124,317.630999 162.474127,317.769 C163.07213,317.907001 163.677791,317.976 164.291127,317.976 C165.395133,317.976 166.376456,317.784335 167.235127,317.401 C168.093798,317.017665 168.814458,316.496337 169.397127,315.837 C169.979797,315.177663 170.424459,314.418671 170.731127,313.56 C171.037795,312.701329 171.191127,311.796671 171.191127,310.846 L171.191127,309.236 L170.271127,309.236 Z M194.797876,298.472 C194.85921,299.05467 194.90521,299.698663 194.935876,300.404 C194.966543,301.109337 194.981876,301.691998 194.981876,302.152 L195.073876,302.152 C195.687213,300.89466 196.683869,299.875004 198.063876,299.093 C199.443883,298.310996 200.900535,297.92 202.433876,297.92 C205.163223,297.92 207.210203,298.732659 208.574876,300.358 C209.93955,301.983341 210.621876,304.129987 210.621876,306.798 L210.621876,320 L207.493876,320 L207.493876,308.086 C207.493876,306.951328 207.401877,305.924005 207.217876,305.004 C207.033875,304.083995 206.719545,303.294337 206.274876,302.635 C205.830207,301.975663 205.232213,301.462002 204.480876,301.094 C203.729539,300.725998 202.786549,300.542 201.651876,300.542 C200.823872,300.542 200.01888,300.710665 199.236876,301.048 C198.454872,301.385335 197.757213,301.898997 197.143876,302.589 C196.53054,303.279003 196.039878,304.152995 195.671876,305.211 C195.303875,306.269005 195.119876,307.518659 195.119876,308.96 L195.119876,320 L191.991876,320 L191.991876,303.21 C191.991876,302.62733 191.976543,301.876005 191.945876,300.956 C191.91521,300.035995 191.86921,299.208004 191.807876,298.472 L194.797876,298.472 Z M239.261251,309.236 C239.261251,310.861341 238.977587,312.363993 238.410251,313.744 C237.842915,315.124007 237.053256,316.319995 236.041251,317.332 C235.029246,318.344005 233.817925,319.133664 232.407251,319.701 C230.996577,320.268336 229.447926,320.552 227.761251,320.552 C226.105243,320.552 224.571925,320.268336 223.161251,319.701 C221.750577,319.133664 220.539256,318.344005 219.527251,317.332 C218.515246,316.319995 217.725587,315.124007 217.158251,313.744 C216.590915,312.363993 216.307251,310.861341 216.307251,309.236 C216.307251,307.610659 216.590915,306.108007 217.158251,304.728 C217.725587,303.347993 218.515246,302.152005 219.527251,301.14 C220.539256,300.127995 221.750577,299.338336 223.161251,298.771 C224.571925,298.203664 226.105243,297.92 227.761251,297.92 C229.447926,297.92 230.996577,298.203664 232.407251,298.771 C233.817925,299.338336 235.029246,300.127995 236.041251,301.14 C237.053256,302.152005 237.842915,303.347993 238.410251,304.728 C238.977587,306.108007 239.261251,307.610659 239.261251,309.236 L239.261251,309.236 Z M235.949251,309.236 C235.949251,308.039994 235.757586,306.913005 235.374251,305.855 C234.990916,304.796995 234.446588,303.877004 233.741251,303.095 C233.035914,302.312996 232.177256,301.692002 231.165251,301.232 C230.153246,300.771998 229.018591,300.542 227.761251,300.542 C226.503911,300.542 225.376923,300.771998 224.380251,301.232 C223.383579,301.692002 222.532588,302.312996 221.827251,303.095 C221.121914,303.877004 220.577586,304.796995 220.194251,305.855 C219.810916,306.913005 219.619251,308.039994 219.619251,309.236 C219.619251,310.432006 219.810916,311.558995 220.194251,312.617 C220.577586,313.675005 221.121914,314.594996 221.827251,315.377 C222.532588,316.159004 223.383579,316.772331 224.380251,317.217 C225.376923,317.661669 226.503911,317.884 227.761251,317.884 C229.018591,317.884 230.153246,317.661669 231.165251,317.217 C232.177256,316.772331 233.035914,316.159004 233.741251,315.377 C234.446588,314.594996 234.990916,313.675005 235.374251,312.617 C235.757586,311.558995 235.949251,310.432006 235.949251,309.236 L235.949251,309.236 Z M272.206,307.58 C272.114,305.55599 271.462339,303.877007 270.251,302.543 C269.039661,301.208993 267.314678,300.542 265.076,300.542 C264.033328,300.542 263.067338,300.733665 262.178,301.117 C261.288662,301.500335 260.50667,302.021663 259.832,302.681 C259.15733,303.340337 258.620669,304.091662 258.222,304.935 C257.823331,305.778338 257.593334,306.659995 257.532,307.58 L272.206,307.58 Z M275.38,308.592 L275.38,309.282 C275.38,309.527335 275.364667,309.787999 275.334,310.064 L257.486,310.064 C257.516667,311.137339 257.731331,312.149329 258.13,313.1 C258.528669,314.050671 259.080663,314.878663 259.786,315.584 C260.491337,316.289337 261.319329,316.848998 262.27,317.263 C263.220671,317.677002 264.247994,317.884 265.352,317.884 C266.977341,317.884 268.380327,317.508337 269.561,316.757 C270.741673,316.005663 271.638664,315.139338 272.252,314.158 L274.598,315.998 C273.309994,317.623341 271.891674,318.788663 270.343,319.494 C268.794326,320.199337 267.130676,320.552 265.352,320.552 C263.757325,320.552 262.277673,320.268336 260.913,319.701 C259.548327,319.133664 258.375338,318.344005 257.394,317.332 C256.412662,316.319995 255.638336,315.124007 255.071,313.744 C254.503664,312.363993 254.22,310.861341 254.22,309.236 C254.22,307.610659 254.495997,306.108007 255.048,304.728 C255.600003,303.347993 256.366662,302.152005 257.348,301.14 C258.329338,300.127995 259.479327,299.338336 260.798,298.771 C262.116673,298.203664 263.542659,297.92 265.076,297.92 C266.762675,297.92 268.249994,298.203664 269.538,298.771 C270.826006,299.338336 271.899329,300.104995 272.758,301.071 C273.616671,302.037005 274.268331,303.163994 274.713,304.452 C275.157669,305.740006 275.38,307.119993 275.38,308.592 L275.38,308.592 Z M284.055375,298.472 C284.116708,299.05467 284.162708,299.698663 284.193375,300.404 C284.224041,301.109337 284.239375,301.691998 284.239375,302.152 L284.331375,302.152 C284.944711,300.89466 285.941368,299.875004 287.321375,299.093 C288.701381,298.310996 290.158034,297.92 291.691375,297.92 C294.420722,297.92 296.467701,298.732659 297.832375,300.358 C299.197048,301.983341 299.879375,304.129987 299.879375,306.798 L299.879375,320 L296.751375,320 L296.751375,308.086 C296.751375,306.951328 296.659375,305.924005 296.475375,305.004 C296.291374,304.083995 295.977043,303.294337 295.532375,302.635 C295.087706,301.975663 294.489712,301.462002 293.738375,301.094 C292.987037,300.725998 292.044047,300.542 290.909375,300.542 C290.08137,300.542 289.276378,300.710665 288.494375,301.048 C287.712371,301.385335 287.014711,301.898997 286.401375,302.589 C285.788038,303.279003 285.297376,304.152995 284.929375,305.211 C284.561373,306.269005 284.377375,307.518659 284.377375,308.96 L284.377375,320 L281.249375,320 L281.249375,303.21 C281.249375,302.62733 281.234041,301.876005 281.203375,300.956 C281.172708,300.035995 281.126708,299.208004 281.065375,298.472 L284.055375,298.472 Z M322.630749,303.394 C322.109413,302.565996 321.350421,301.883669 320.353749,301.347 C319.357077,300.810331 318.276088,300.542 317.110749,300.542 C315.853409,300.542 314.718754,300.764331 313.706749,301.209 C312.694744,301.653669 311.828419,302.266996 311.107749,303.049 C310.387079,303.831004 309.835084,304.750995 309.451749,305.809 C309.068414,306.867005 308.876749,308.009327 308.876749,309.236 C308.876749,310.462673 309.068414,311.597328 309.451749,312.64 C309.835084,313.682672 310.379412,314.594996 311.084749,315.377 C311.790086,316.159004 312.648744,316.772331 313.660749,317.217 C314.672754,317.661669 315.807409,317.884 317.064749,317.884 C318.444756,317.884 319.610078,317.623336 320.560749,317.102 C321.511421,316.580664 322.293413,315.906004 322.906749,315.078 L325.252749,316.826 C324.332745,317.960672 323.205756,318.86533 321.871749,319.54 C320.537742,320.21467 318.935425,320.552 317.064749,320.552 C315.31674,320.552 313.737423,320.268336 312.326749,319.701 C310.916075,319.133664 309.712421,318.344005 308.715749,317.332 C307.719077,316.319995 306.944752,315.124007 306.392749,313.744 C305.840746,312.363993 305.564749,310.861341 305.564749,309.236 C305.564749,307.610659 305.840746,306.108007 306.392749,304.728 C306.944752,303.347993 307.719077,302.152005 308.715749,301.14 C309.712421,300.127995 310.916075,299.338336 312.326749,298.771 C313.737423,298.203664 315.31674,297.92 317.064749,297.92 C318.50609,297.92 319.970408,298.23433 321.457749,298.863 C322.94509,299.49167 324.148745,300.419327 325.068749,301.646 L322.630749,303.394 Z M350.672124,309.236 C350.672124,310.861341 350.38846,312.363993 349.821124,313.744 C349.253787,315.124007 348.464129,316.319995 347.452124,317.332 C346.440119,318.344005 345.228797,319.133664 343.818124,319.701 C342.40745,320.268336 340.858799,320.552 339.172124,320.552 C337.516115,320.552 335.982797,320.268336 334.572124,319.701 C333.16145,319.133664 331.950129,318.344005 330.938124,317.332 C329.926119,316.319995 329.13646,315.124007 328.569124,313.744 C328.001787,312.363993 327.718124,310.861341 327.718124,309.236 C327.718124,307.610659 328.001787,306.108007 328.569124,304.728 C329.13646,303.347993 329.926119,302.152005 330.938124,301.14 C331.950129,300.127995 333.16145,299.338336 334.572124,298.771 C335.982797,298.203664 337.516115,297.92 339.172124,297.92 C340.858799,297.92 342.40745,298.203664 343.818124,298.771 C345.228797,299.338336 346.440119,300.127995 347.452124,301.14 C348.464129,302.152005 349.253787,303.347993 349.821124,304.728 C350.38846,306.108007 350.672124,307.610659 350.672124,309.236 L350.672124,309.236 Z M347.360124,309.236 C347.360124,308.039994 347.168459,306.913005 346.785124,305.855 C346.401788,304.796995 345.857461,303.877004 345.152124,303.095 C344.446787,302.312996 343.588129,301.692002 342.576124,301.232 C341.564119,300.771998 340.429463,300.542 339.172124,300.542 C337.914784,300.542 336.787795,300.771998 335.791124,301.232 C334.794452,301.692002 333.943461,302.312996 333.238124,303.095 C332.532787,303.877004 331.988459,304.796995 331.605124,305.855 C331.221788,306.913005 331.030124,308.039994 331.030124,309.236 C331.030124,310.432006 331.221788,311.558995 331.605124,312.617 C331.988459,313.675005 332.532787,314.594996 333.238124,315.377 C333.943461,316.159004 334.794452,316.772331 335.791124,317.217 C336.787795,317.661669 337.914784,317.884 339.172124,317.884 C340.429463,317.884 341.564119,317.661669 342.576124,317.217 C343.588129,316.772331 344.446787,316.159004 345.152124,315.377 C345.857461,314.594996 346.401788,313.675005 346.785124,312.617 C347.168459,311.558995 347.360124,310.432006 347.360124,309.236 L347.360124,309.236 Z M359.347498,298.472 C359.408832,299.05467 359.454831,299.698663 359.485498,300.404 C359.516165,301.109337 359.531498,301.691998 359.531498,302.152 L359.623498,302.152 C360.236835,300.89466 361.233491,299.875004 362.613498,299.093 C363.993505,298.310996 365.450157,297.92 366.983498,297.92 C369.712845,297.92 371.759825,298.732659 373.124498,300.358 C374.489172,301.983341 375.171498,304.129987 375.171498,306.798 L375.171498,320 L372.043498,320 L372.043498,308.086 C372.043498,306.951328 371.951499,305.924005 371.767498,305.004 C371.583497,304.083995 371.269167,303.294337 370.824498,302.635 C370.379829,301.975663 369.781835,301.462002 369.030498,301.094 C368.279161,300.725998 367.336171,300.542 366.201498,300.542 C365.373494,300.542 364.568502,300.710665 363.786498,301.048 C363.004494,301.385335 362.306835,301.898997 361.693498,302.589 C361.080162,303.279003 360.5895,304.152995 360.221498,305.211 C359.853496,306.269005 359.669498,307.518659 359.669498,308.96 L359.669498,320 L356.541498,320 L356.541498,303.21 C356.541498,302.62733 356.526165,301.876005 356.495498,300.956 C356.464831,300.035995 356.418832,299.208004 356.357498,298.472 L359.347498,298.472 Z M392.126873,301.094 L386.054873,301.094 L386.054873,313.652 C386.054873,314.449337 386.131539,315.108664 386.284873,315.63 C386.438207,316.151336 386.660538,316.557665 386.951873,316.849 C387.243208,317.140335 387.588204,317.339666 387.986873,317.447 C388.385541,317.554334 388.81487,317.608 389.274873,317.608 C389.704208,317.608 390.156537,317.546667 390.631873,317.424 C391.107208,317.301333 391.559537,317.132668 391.988873,316.918 L392.126873,319.632 C391.57487,319.846668 390.999876,320.007666 390.401873,320.115 C389.80387,320.222334 389.15221,320.276 388.446873,320.276 C387.864203,320.276 387.250876,320.199334 386.606873,320.046 C385.96287,319.892666 385.364876,319.601335 384.812873,319.172 C384.26087,318.742665 383.808541,318.160004 383.455873,317.424 C383.103204,316.687996 382.926873,315.722006 382.926873,314.526 L382.926873,301.094 L378.464873,301.094 L378.464873,298.472 L382.926873,298.472 L382.926873,292.4 L386.054873,292.4 L386.054873,298.472 L392.126873,298.472 L392.126873,301.094 Z M396.156247,303.21 C396.156247,302.62733 396.140914,301.876005 396.110247,300.956 C396.07958,300.035995 396.033581,299.208004 395.972247,298.472 L398.962247,298.472 C399.023581,299.05467 399.06958,299.698663 399.100247,300.404 C399.130914,301.109337 399.146247,301.691998 399.146247,302.152 L399.238247,302.152 C399.851584,300.89466 400.771575,299.875004 401.998247,299.093 C403.22492,298.310996 404.604906,297.92 406.138247,297.92 C406.536916,297.92 406.897246,297.935333 407.219247,297.966 C407.541249,297.996667 407.870912,298.058 408.208247,298.15 L407.794247,301.094 C407.610246,301.032666 407.303583,300.971334 406.874247,300.91 C406.444912,300.848666 406.015583,300.818 405.586247,300.818 C404.758243,300.818 403.960918,300.971332 403.194247,301.278 C402.427577,301.584668 401.760583,302.067663 401.193247,302.727 C400.625911,303.386337 400.165916,304.229662 399.813247,305.257 C399.460579,306.284338 399.284247,307.518659 399.284247,308.96 L399.284247,320 L396.156247,320 L396.156247,303.21 Z M424.887622,306.108 C424.887622,304.237324 424.39696,302.842005 423.415622,301.922 C422.434284,301.001995 421.008298,300.542 419.137622,300.542 C417.849615,300.542 416.653627,300.771998 415.549622,301.232 C414.445616,301.692002 413.510292,302.305329 412.743622,303.072 L410.995622,301.002 C411.88496,300.112662 413.057948,299.37667 414.514622,298.794 C415.971296,298.21133 417.619613,297.92 419.459622,297.92 C420.624961,297.92 421.713617,298.080998 422.725622,298.403 C423.737627,298.725002 424.626951,299.207997 425.393622,299.852 C426.160292,300.496003 426.758286,301.308662 427.187622,302.29 C427.616957,303.271338 427.831622,304.421327 427.831622,305.74 L427.831622,315.17 C427.831622,315.998004 427.862288,316.856662 427.923622,317.746 C427.984956,318.635338 428.076955,319.386664 428.199622,320 L425.393622,320 C425.301621,319.478664 425.224956,318.911336 425.163622,318.298 C425.102288,317.684664 425.071622,317.08667 425.071622,316.504 L424.979622,316.504 C423.998284,317.945341 422.886628,318.98033 421.644622,319.609 C420.402616,320.23767 418.907631,320.552 417.159622,320.552 C416.331618,320.552 415.480626,320.437001 414.606622,320.207 C413.732617,319.976999 412.935292,319.601336 412.214622,319.08 C411.493952,318.558664 410.895958,317.884004 410.420622,317.056 C409.945286,316.227996 409.707622,315.216006 409.707622,314.02 C409.707622,312.363992 410.129284,311.053005 410.972622,310.087 C411.815959,309.120995 412.942948,308.400336 414.353622,307.925 C415.764296,307.449664 417.381946,307.143001 419.206622,307.005 C421.031298,306.866999 422.924945,306.798 424.887622,306.798 L424.887622,306.108 Z M423.967622,309.236 C422.679615,309.236 421.383962,309.289666 420.080622,309.397 C418.777282,309.504334 417.596627,309.718998 416.538622,310.041 C415.480617,310.363002 414.614292,310.830664 413.939622,311.444 C413.264952,312.057336 412.927622,312.869995 412.927622,313.882 C412.927622,314.64867 413.073287,315.292664 413.364622,315.814 C413.655957,316.335336 414.046953,316.756998 414.537622,317.079 C415.028291,317.401002 415.572619,317.630999 416.170622,317.769 C416.768625,317.907001 417.374285,317.976 417.987622,317.976 C419.091627,317.976 420.072951,317.784335 420.931622,317.401 C421.790293,317.017665 422.510952,316.496337 423.093622,315.837 C423.676291,315.177663 424.120954,314.418671 424.427622,313.56 C424.73429,312.701329 424.887622,311.796671 424.887622,310.846 L424.887622,309.236 L423.967622,309.236 Z M452.744996,316.366 C451.824992,317.746007 450.629004,318.788663 449.156996,319.494 C447.684989,320.199337 446.167004,320.552 444.602996,320.552 C442.916321,320.552 441.39067,320.26067 440.025996,319.678 C438.661323,319.09533 437.496001,318.298005 436.529996,317.286 C435.563992,316.273995 434.812666,315.078007 434.275996,313.698 C433.739327,312.317993 433.470996,310.830675 433.470996,309.236 C433.470996,307.641325 433.739327,306.154007 434.275996,304.774 C434.812666,303.393993 435.563992,302.198005 436.529996,301.186 C437.496001,300.173995 438.661323,299.37667 440.025996,298.794 C441.39067,298.21133 442.916321,297.92 444.602996,297.92 C446.167004,297.92 447.684989,298.28033 449.156996,299.001 C450.629004,299.72167 451.824992,300.787326 452.744996,302.198 L452.836996,302.198 L452.836996,285.224 L455.964996,285.224 L455.964996,320 L452.836996,320 L452.836996,316.366 L452.744996,316.366 Z M436.782996,309.236 C436.782996,310.432006 436.966995,311.558995 437.334996,312.617 C437.702998,313.675005 438.231993,314.594996 438.921996,315.377 C439.612,316.159004 440.462991,316.772331 441.474996,317.217 C442.487001,317.661669 443.63699,317.884 444.924996,317.884 C446.121002,317.884 447.224991,317.661669 448.236996,317.217 C449.249001,316.772331 450.122993,316.166671 450.858996,315.4 C451.595,314.63333 452.169994,313.721005 452.583996,312.663 C452.997998,311.604995 453.204996,310.462673 453.204996,309.236 C453.204996,308.009327 452.997998,306.867005 452.583996,305.809 C452.169994,304.750995 451.595,303.831004 450.858996,303.049 C450.122993,302.266996 449.249001,301.653669 448.236996,301.209 C447.224991,300.764331 446.121002,300.542 444.924996,300.542 C443.63699,300.542 442.487001,300.771998 441.474996,301.232 C440.462991,301.692002 439.612,302.312996 438.921996,303.095 C438.231993,303.877004 437.702998,304.796995 437.334996,305.855 C436.966995,306.913005 436.782996,308.039994 436.782996,309.236 L436.782996,309.236 Z M477.060371,306.108 C477.060371,304.237324 476.569709,302.842005 475.588371,301.922 C474.607033,301.001995 473.181047,300.542 471.310371,300.542 C470.022365,300.542 468.826376,300.771998 467.722371,301.232 C466.618365,301.692002 465.683041,302.305329 464.916371,303.072 L463.168371,301.002 C464.057709,300.112662 465.230697,299.37667 466.687371,298.794 C468.144045,298.21133 469.792362,297.92 471.632371,297.92 C472.79771,297.92 473.886366,298.080998 474.898371,298.403 C475.910376,298.725002 476.7997,299.207997 477.566371,299.852 C478.333041,300.496003 478.931035,301.308662 479.360371,302.29 C479.789706,303.271338 480.004371,304.421327 480.004371,305.74 L480.004371,315.17 C480.004371,315.998004 480.035037,316.856662 480.096371,317.746 C480.157705,318.635338 480.249704,319.386664 480.372371,320 L477.566371,320 C477.474371,319.478664 477.397705,318.911336 477.336371,318.298 C477.275037,317.684664 477.244371,317.08667 477.244371,316.504 L477.152371,316.504 C476.171033,317.945341 475.059377,318.98033 473.817371,319.609 C472.575365,320.23767 471.08038,320.552 469.332371,320.552 C468.504367,320.552 467.653375,320.437001 466.779371,320.207 C465.905367,319.976999 465.108041,319.601336 464.387371,319.08 C463.666701,318.558664 463.068707,317.884004 462.593371,317.056 C462.118035,316.227996 461.880371,315.216006 461.880371,314.02 C461.880371,312.363992 462.302033,311.053005 463.145371,310.087 C463.988709,309.120995 465.115697,308.400336 466.526371,307.925 C467.937045,307.449664 469.554695,307.143001 471.379371,307.005 C473.204047,306.866999 475.097694,306.798 477.060371,306.798 L477.060371,306.108 Z M476.140371,309.236 C474.852365,309.236 473.556711,309.289666 472.253371,309.397 C470.950031,309.504334 469.769376,309.718998 468.711371,310.041 C467.653366,310.363002 466.787041,310.830664 466.112371,311.444 C465.437701,312.057336 465.100371,312.869995 465.100371,313.882 C465.100371,314.64867 465.246036,315.292664 465.537371,315.814 C465.828706,316.335336 466.219702,316.756998 466.710371,317.079 C467.20104,317.401002 467.745368,317.630999 468.343371,317.769 C468.941374,317.907001 469.547035,317.976 470.160371,317.976 C471.264376,317.976 472.2457,317.784335 473.104371,317.401 C473.963042,317.017665 474.683701,316.496337 475.266371,315.837 C475.849041,315.177663 476.293703,314.418671 476.600371,313.56 C476.907039,312.701329 477.060371,311.796671 477.060371,310.846 L477.060371,309.236 L476.140371,309.236 Z M502.92112,311.168 L499.60912,311.168 L499.60912,287.432 L502.92112,287.432 L502.92112,311.168 Z M503.74912,317.792 C503.74912,318.436003 503.519122,319.010997 503.05912,319.517 C502.599118,320.023003 502.001124,320.276 501.26512,320.276 C500.529116,320.276 499.931122,320.023003 499.47112,319.517 C499.011118,319.010997 498.78112,318.436003 498.78112,317.792 C498.78112,317.147997 499.011118,316.573003 499.47112,316.067 C499.931122,315.560997 500.529116,315.308 501.26512,315.308 C502.001124,315.308 502.599118,315.560997 503.05912,316.067 C503.519122,316.573003 503.74912,317.147997 503.74912,317.792 L503.74912,317.792 Z M50.347503,354 L50.347503,332.052 L55.679503,332.052 L55.679503,349.381 L64.173503,349.381 L64.173503,354 L50.347503,354 Z M81.6139511,346.219 C81.6139511,347.479673 81.38662,348.621495 80.9319511,349.6445 C80.4772821,350.667505 79.8572883,351.535496 79.0719511,352.2485 C78.2866138,352.961504 77.3772896,353.514331 76.3439511,353.907 C75.3106126,354.299669 74.204957,354.496 73.0269511,354.496 C71.869612,354.496 70.769123,354.299669 69.7254511,353.907 C68.6817792,353.514331 67.772455,352.961504 66.9974511,352.2485 C66.2224472,351.535496 65.60762,350.667505 65.1529511,349.6445 C64.6982821,348.621495 64.4709511,347.479673 64.4709511,346.219 C64.4709511,344.958327 64.6982821,343.821672 65.1529511,342.809 C65.60762,341.796328 66.2224472,340.93867 66.9974511,340.236 C67.772455,339.53333 68.6817792,338.996002 69.7254511,338.624 C70.769123,338.251998 71.869612,338.066 73.0269511,338.066 C74.204957,338.066 75.3106126,338.251998 76.3439511,338.624 C77.3772896,338.996002 78.2866138,339.53333 79.0719511,340.236 C79.8572883,340.93867 80.4772821,341.796328 80.9319511,342.809 C81.38662,343.821672 81.6139511,344.958327 81.6139511,346.219 L81.6139511,346.219 Z M76.7159511,346.219 C76.7159511,345.722998 76.6332852,345.237336 76.4679511,344.762 C76.3026169,344.286664 76.0649526,343.868168 75.7549511,343.5065 C75.4449495,343.144832 75.06262,342.850334 74.6079511,342.623 C74.1532821,342.395666 73.6262874,342.282 73.0269511,342.282 C72.4276148,342.282 71.90062,342.395666 71.4459511,342.623 C70.9912821,342.850334 70.6141192,343.144832 70.3144511,343.5065 C70.0147829,343.868168 69.7874519,344.286664 69.6324511,344.762 C69.4774503,345.237336 69.3999511,345.722998 69.3999511,346.219 C69.3999511,346.715002 69.4774503,347.200664 69.6324511,347.676 C69.7874519,348.151336 70.0199495,348.580165 70.3299511,348.9625 C70.6399526,349.344835 71.0222821,349.649666 71.4769511,349.877 C71.93162,350.104334 72.4586148,350.218 73.0579511,350.218 C73.6572874,350.218 74.1842821,350.104334 74.6389511,349.877 C75.09362,349.649666 75.4759495,349.344835 75.7859511,348.9625 C76.0959526,348.580165 76.3284503,348.151336 76.4834511,347.676 C76.6384519,347.200664 76.7159511,346.715002 76.7159511,346.219 L76.7159511,346.219 Z M102.761847,361.44 L102.761847,352.295 L102.699847,352.295 C102.203845,352.956337 101.537351,353.478165 100.700347,353.8605 C99.863343,354.242835 98.9695186,354.434 98.0188472,354.434 C96.8408413,354.434 95.7971851,354.206669 94.8878472,353.752 C93.9785093,353.297331 93.2138503,352.692837 92.5938472,351.9385 C91.9738441,351.184163 91.4985155,350.311005 91.1678472,349.319 C90.8371789,348.326995 90.6718472,347.293672 90.6718472,346.219 C90.6718472,345.144328 90.8423455,344.116172 91.1833472,343.1345 C91.5243489,342.152828 92.0100107,341.290004 92.6403472,340.546 C93.2706837,339.801996 94.0353427,339.213002 94.9343472,338.779 C95.8333517,338.344998 96.8408416,338.128 97.9568472,338.128 C99.1141863,338.128 100.111343,338.360498 100.948347,338.8255 C101.785351,339.290502 102.441512,339.832997 102.916847,340.453 L103.009847,340.453 L103.009847,338.562 L107.814847,338.562 L107.814847,361.44 L102.761847,361.44 Z M102.947847,346.25 C102.947847,345.753998 102.860015,345.268336 102.684347,344.793 C102.50868,344.317664 102.260682,343.894002 101.940347,343.522 C101.620012,343.149998 101.232516,342.850334 100.777847,342.623 C100.323178,342.395666 99.8065168,342.282 99.2278472,342.282 C98.6285109,342.282 98.1015162,342.395666 97.6468472,342.623 C97.1921783,342.850334 96.8098488,343.144832 96.4998472,343.5065 C96.1898457,343.868168 95.957348,344.286664 95.8023472,344.762 C95.6473464,345.237336 95.5698472,345.722998 95.5698472,346.219 C95.5698472,346.715002 95.6473464,347.205831 95.8023472,347.6915 C95.957348,348.177169 96.1898457,348.605998 96.4998472,348.978 C96.8098488,349.350002 97.1921783,349.649666 97.6468472,349.877 C98.1015162,350.104334 98.6285109,350.218 99.2278472,350.218 C99.8065168,350.218 100.323178,350.104334 100.777847,349.877 C101.232516,349.649666 101.620012,349.350002 101.940347,348.978 C102.260682,348.605998 102.50868,348.182336 102.684347,347.707 C102.860015,347.231664 102.947847,346.746002 102.947847,346.25 L102.947847,346.25 Z M121.411295,354 L121.411295,351.861 L121.349295,351.861 C121.163294,352.212335 120.920463,352.542998 120.620795,352.853 C120.321127,353.163002 119.969797,353.431666 119.566795,353.659 C119.163793,353.886334 118.719464,354.072333 118.233795,354.217 C117.748126,354.361667 117.236631,354.434 116.699295,354.434 C115.665957,354.434 114.792799,354.248002 114.079795,353.876 C113.366792,353.503998 112.788131,353.023503 112.343795,352.4345 C111.89946,351.845497 111.57913,351.173837 111.382795,350.4195 C111.186461,349.665163 111.088295,348.895337 111.088295,348.11 L111.088295,338.562 L116.203295,338.562 L116.203295,346.932 C116.203295,347.366002 116.234295,347.779331 116.296295,348.172 C116.358296,348.564669 116.477128,348.915998 116.652795,349.226 C116.828463,349.536002 117.060961,349.778832 117.350295,349.9545 C117.63963,350.130168 118.02196,350.218 118.497295,350.218 C119.385966,350.218 120.062793,349.887337 120.527795,349.226 C120.992798,348.564663 121.225295,347.789671 121.225295,346.901 L121.225295,338.562 L126.309295,338.562 L126.309295,354 L121.411295,354 Z M140.339743,344.514 C140.339743,343.707996 140.086579,343.01567 139.580243,342.437 C139.073907,341.85833 138.314415,341.569 137.301743,341.569 C136.805741,341.569 136.351079,341.646499 135.937743,341.8015 C135.524408,341.956501 135.162745,342.168332 134.852743,342.437 C134.542742,342.705668 134.294744,343.020832 134.108743,343.3825 C133.922742,343.744168 133.81941,344.121331 133.798743,344.514 L140.339743,344.514 Z M145.020743,346.467 L145.020743,347.087 C145.020743,347.293668 145.01041,347.489999 144.989743,347.676 L133.798743,347.676 C133.840077,348.110002 133.969242,348.502665 134.186243,348.854 C134.403244,349.205335 134.682242,349.510165 135.023243,349.7685 C135.364245,350.026835 135.746575,350.228333 136.170243,350.373 C136.593912,350.517667 137.033074,350.59 137.487743,350.59 C138.293747,350.59 138.975741,350.440168 139.533743,350.1405 C140.091746,349.840832 140.546408,349.453336 140.897743,348.978 L144.431743,351.21 C143.708406,352.264005 142.752583,353.075164 141.564243,353.6435 C140.375904,354.211836 138.996418,354.496 137.425743,354.496 C136.268404,354.496 135.173082,354.315168 134.139743,353.9535 C133.106405,353.591832 132.202247,353.064837 131.427243,352.3725 C130.652239,351.680163 130.042579,350.827672 129.598243,349.815 C129.153908,348.802328 128.931743,347.645007 128.931743,346.343 C128.931743,345.082327 129.148741,343.940505 129.582743,342.9175 C130.016746,341.894495 130.60574,341.026504 131.349743,340.3135 C132.093747,339.600496 132.972072,339.047669 133.984743,338.655 C134.997415,338.262331 136.092737,338.066 137.270743,338.066 C138.407416,338.066 139.451072,338.257165 140.401743,338.6395 C141.352415,339.021835 142.16874,339.574663 142.850743,340.298 C143.532747,341.021337 144.064908,341.899661 144.447243,342.933 C144.829579,343.966339 145.020743,345.144327 145.020743,346.467 L145.020743,346.467 Z M171.996639,346.219 C171.996639,347.293672 171.831308,348.326995 171.500639,349.319 C171.169971,350.311005 170.689476,351.184163 170.059139,351.9385 C169.428803,352.692837 168.658977,353.297331 167.749639,353.752 C166.840302,354.206669 165.806979,354.434 164.649639,354.434 C163.616301,354.434 162.639811,354.222169 161.720139,353.7985 C160.800468,353.374831 160.092642,352.770337 159.596639,351.985 L159.534639,351.985 L159.534639,354 L154.853639,354 L154.853639,330.564 L159.937639,330.564 L159.937639,340.205 L159.999639,340.205 C160.433642,339.688331 161.043302,339.213002 161.828639,338.779 C162.613977,338.344998 163.574967,338.128 164.711639,338.128 C165.827645,338.128 166.835135,338.344998 167.734139,338.779 C168.633144,339.213002 169.397803,339.801996 170.028139,340.546 C170.658476,341.290004 171.144138,342.152828 171.485139,343.1345 C171.826141,344.116172 171.996639,345.144328 171.996639,346.219 L171.996639,346.219 Z M167.098639,346.219 C167.098639,345.722998 167.02114,345.237336 166.866139,344.762 C166.711139,344.286664 166.478641,343.868168 166.168639,343.5065 C165.858638,343.144832 165.476308,342.850334 165.021639,342.623 C164.566971,342.395666 164.039976,342.282 163.440639,342.282 C162.86197,342.282 162.345308,342.395666 161.890639,342.623 C161.435971,342.850334 161.048474,343.149998 160.728139,343.522 C160.407805,343.894002 160.159807,344.317664 159.984139,344.793 C159.808472,345.268336 159.720639,345.753998 159.720639,346.25 C159.720639,346.746002 159.808472,347.231664 159.984139,347.707 C160.159807,348.182336 160.407805,348.605998 160.728139,348.978 C161.048474,349.350002 161.435971,349.649666 161.890639,349.877 C162.345308,350.104334 162.86197,350.218 163.440639,350.218 C164.039976,350.218 164.566971,350.104334 165.021639,349.877 C165.476308,349.649666 165.858638,349.350002 166.168639,348.978 C166.478641,348.605998 166.711139,348.177169 166.866139,347.6915 C167.02114,347.205831 167.098639,346.715002 167.098639,346.219 L167.098639,346.219 Z M184.818088,354 L184.818088,351.861 L184.756088,351.861 C184.570087,352.212335 184.327256,352.542998 184.027588,352.853 C183.727919,353.163002 183.37659,353.431666 182.973588,353.659 C182.570586,353.886334 182.126257,354.072333 181.640588,354.217 C181.154918,354.361667 180.643424,354.434 180.106088,354.434 C179.072749,354.434 178.199591,354.248002 177.486588,353.876 C176.773584,353.503998 176.194923,353.023503 175.750588,352.4345 C175.306252,351.845497 174.985922,351.173837 174.789588,350.4195 C174.593253,349.665163 174.495088,348.895337 174.495088,348.11 L174.495088,338.562 L179.610088,338.562 L179.610088,346.932 C179.610088,347.366002 179.641087,347.779331 179.703088,348.172 C179.765088,348.564669 179.88392,348.915998 180.059588,349.226 C180.235255,349.536002 180.467753,349.778832 180.757088,349.9545 C181.046422,350.130168 181.428752,350.218 181.904088,350.218 C182.792759,350.218 183.469585,349.887337 183.934588,349.226 C184.39959,348.564663 184.632088,347.789671 184.632088,346.901 L184.632088,338.562 L189.716088,338.562 L189.716088,354 L184.818088,354 Z M202.196536,343.119 C201.7832,342.726331 201.297538,342.395668 200.739536,342.127 C200.181533,341.858332 199.592539,341.724 198.972536,341.724 C198.4972,341.724 198.058038,341.816999 197.655036,342.003 C197.252034,342.189001 197.050536,342.509331 197.050536,342.964 C197.050536,343.398002 197.2727,343.707999 197.717036,343.894 C198.161371,344.080001 198.879531,344.286666 199.871536,344.514 C200.450205,344.638001 201.034033,344.813666 201.623036,345.041 C202.212039,345.268334 202.7442,345.567998 203.219536,345.94 C203.694871,346.312002 204.077201,346.766664 204.366536,347.304 C204.65587,347.841336 204.800536,348.481996 204.800536,349.226 C204.800536,350.197338 204.604204,351.01883 204.211536,351.6905 C203.818867,352.36217 203.307372,352.904665 202.677036,353.318 C202.046699,353.731335 201.338873,354.030999 200.553536,354.217 C199.768198,354.403001 198.982873,354.496 198.197536,354.496 C196.936863,354.496 195.702042,354.294502 194.493036,353.8915 C193.28403,353.488498 192.27654,352.894337 191.470536,352.109 L194.322536,349.102 C194.777205,349.598002 195.335199,350.011332 195.996536,350.342 C196.657872,350.672668 197.360532,350.838 198.104536,350.838 C198.517871,350.838 198.926034,350.739834 199.329036,350.5435 C199.732038,350.347166 199.933536,350.001002 199.933536,349.505 C199.933536,349.029664 199.685538,348.678334 199.189536,348.451 C198.693533,348.223666 197.918541,347.986001 196.864536,347.738 C196.3272,347.613999 195.789872,347.448668 195.252536,347.242 C194.7152,347.035332 194.234704,346.756335 193.811036,346.405 C193.387367,346.053665 193.041204,345.619669 192.772536,345.103 C192.503868,344.586331 192.369536,343.966337 192.369536,343.243 C192.369536,342.312995 192.565867,341.522503 192.958536,340.8715 C193.351204,340.220497 193.857533,339.688335 194.477536,339.275 C195.097539,338.861665 195.784699,338.556834 196.539036,338.3605 C197.293373,338.164166 198.042532,338.066 198.786536,338.066 C199.943875,338.066 201.075363,338.246832 202.181036,338.6085 C203.286708,338.970168 204.221865,339.512663 204.986536,340.236 L202.196536,343.119 Z M217.807984,343.553 C217.518649,343.180998 217.125986,342.881334 216.629984,342.654 C216.133981,342.426666 215.627653,342.313 215.110984,342.313 C214.573648,342.313 214.087986,342.421499 213.653984,342.6385 C213.219982,342.855501 212.847985,343.144832 212.537984,343.5065 C212.227982,343.868168 211.985151,344.286664 211.809484,344.762 C211.633816,345.237336 211.545984,345.743664 211.545984,346.281 C211.545984,346.818336 211.62865,347.324664 211.793984,347.8 C211.959318,348.275336 212.202149,348.693832 212.522484,349.0555 C212.842819,349.417168 213.225148,349.701332 213.669484,349.908 C214.113819,350.114668 214.614981,350.218 215.172984,350.218 C215.689653,350.218 216.201148,350.119834 216.707484,349.9235 C217.21382,349.727166 217.621982,349.443002 217.931984,349.071 L220.752984,352.512 C220.112314,353.132003 219.285655,353.617665 218.272984,353.969 C217.260312,354.320335 216.185656,354.496 215.048984,354.496 C213.829644,354.496 212.692989,354.310002 211.638984,353.938 C210.584978,353.565998 209.670488,353.023504 208.895484,352.3105 C208.12048,351.597496 207.510819,350.734672 207.066484,349.722 C206.622148,348.709328 206.399984,347.56234 206.399984,346.281 C206.399984,345.020327 206.622148,343.883672 207.066484,342.871 C207.510819,341.858328 208.12048,340.995504 208.895484,340.2825 C209.670488,339.569496 210.584978,339.021835 211.638984,338.6395 C212.692989,338.257165 213.819311,338.066 215.017984,338.066 C215.575986,338.066 216.128814,338.117666 216.676484,338.221 C217.224153,338.324334 217.751148,338.463832 218.257484,338.6395 C218.76382,338.815168 219.228815,339.032165 219.652484,339.2905 C220.076152,339.548835 220.442982,339.832998 220.752984,340.143 L217.807984,343.553 Z M231.311432,347.273 L230.660432,347.273 C230.102429,347.273 229.539268,347.298833 228.970932,347.3505 C228.402596,347.402167 227.896267,347.500333 227.451932,347.645 C227.007596,347.789667 226.640767,348.001499 226.351432,348.2805 C226.062097,348.559501 225.917432,348.926331 225.917432,349.381 C225.917432,349.670335 225.984598,349.918332 226.118932,350.125 C226.253266,350.331668 226.423764,350.496999 226.630432,350.621 C226.837099,350.745001 227.074764,350.832833 227.343432,350.8845 C227.6121,350.936167 227.870431,350.962 228.118432,350.962 C229.15177,350.962 229.942262,350.677836 230.489932,350.1095 C231.037601,349.541164 231.311432,348.771338 231.311432,347.8 L231.311432,347.273 Z M221.980432,340.67 C222.88977,339.801996 223.948926,339.151002 225.157932,338.717 C226.366938,338.282998 227.601759,338.066 228.862432,338.066 C230.164438,338.066 231.264927,338.226165 232.163932,338.5465 C233.062936,338.866835 233.791429,339.36283 234.349432,340.0345 C234.907435,340.70617 235.315597,341.553495 235.573932,342.5765 C235.832266,343.599505 235.961432,344.81366 235.961432,346.219 L235.961432,354 L231.311432,354 L231.311432,352.357 L231.218432,352.357 C230.825763,352.99767 230.231602,353.493665 229.435932,353.845 C228.640261,354.196335 227.777436,354.372 226.847432,354.372 C226.227429,354.372 225.586768,354.289334 224.925432,354.124 C224.264095,353.958666 223.659601,353.690002 223.111932,353.318 C222.564262,352.945998 222.114767,352.450003 221.763432,351.83 C221.412097,351.209997 221.236432,350.445338 221.236432,349.536 C221.236432,348.419994 221.541262,347.521003 222.150932,346.839 C222.760601,346.156997 223.545927,345.630002 224.506932,345.258 C225.467937,344.885998 226.537426,344.638001 227.715432,344.514 C228.893438,344.389999 230.040426,344.328 231.156432,344.328 L231.156432,344.08 C231.156432,343.31533 230.887768,342.752168 230.350432,342.3905 C229.813096,342.028832 229.151769,341.848 228.366432,341.848 C227.643095,341.848 226.945602,342.002998 226.273932,342.313 C225.602262,342.623002 225.028767,342.994998 224.553432,343.429 L221.980432,340.67 Z M248.25588,343.119 C247.842544,342.726331 247.356883,342.395668 246.79888,342.127 C246.240877,341.858332 245.651883,341.724 245.03188,341.724 C244.556544,341.724 244.117382,341.816999 243.71438,342.003 C243.311378,342.189001 243.10988,342.509331 243.10988,342.964 C243.10988,343.398002 243.332044,343.707999 243.77638,343.894 C244.220715,344.080001 244.938875,344.286666 245.93088,344.514 C246.509549,344.638001 247.093377,344.813666 247.68238,345.041 C248.271383,345.268334 248.803544,345.567998 249.27888,345.94 C249.754216,346.312002 250.136545,346.766664 250.42588,347.304 C250.715215,347.841336 250.85988,348.481996 250.85988,349.226 C250.85988,350.197338 250.663548,351.01883 250.27088,351.6905 C249.878211,352.36217 249.366716,352.904665 248.73638,353.318 C248.106043,353.731335 247.398217,354.030999 246.61288,354.217 C245.827543,354.403001 245.042217,354.496 244.25688,354.496 C242.996207,354.496 241.761386,354.294502 240.55238,353.8915 C239.343374,353.488498 238.335884,352.894337 237.52988,352.109 L240.38188,349.102 C240.836549,349.598002 241.394543,350.011332 242.05588,350.342 C242.717216,350.672668 243.419876,350.838 244.16388,350.838 C244.577215,350.838 244.985378,350.739834 245.38838,350.5435 C245.791382,350.347166 245.99288,350.001002 245.99288,349.505 C245.99288,349.029664 245.744882,348.678334 245.24888,348.451 C244.752877,348.223666 243.977885,347.986001 242.92388,347.738 C242.386544,347.613999 241.849216,347.448668 241.31188,347.242 C240.774544,347.035332 240.294049,346.756335 239.87038,346.405 C239.446711,346.053665 239.100548,345.619669 238.83188,345.103 C238.563212,344.586331 238.42888,343.966337 238.42888,343.243 C238.42888,342.312995 238.625211,341.522503 239.01788,340.8715 C239.410548,340.220497 239.916877,339.688335 240.53688,339.275 C241.156883,338.861665 241.844043,338.556834 242.59838,338.3605 C243.352717,338.164166 244.101876,338.066 244.84588,338.066 C246.003219,338.066 247.134708,338.246832 248.24038,338.6085 C249.346052,338.970168 250.281209,339.512663 251.04588,340.236 L248.25588,343.119 Z M270.550776,354 L270.550776,345.568 C270.550776,345.133998 270.51461,344.720669 270.442276,344.328 C270.369942,343.935331 270.25111,343.589168 270.085776,343.2895 C269.920442,342.989832 269.687944,342.752168 269.388276,342.5765 C269.088608,342.400832 268.711445,342.313 268.256776,342.313 C267.802107,342.313 267.404278,342.400832 267.063276,342.5765 C266.722274,342.752168 266.43811,342.994998 266.210776,343.305 C265.983441,343.615002 265.812943,343.971498 265.699276,344.3745 C265.585609,344.777502 265.528776,345.195998 265.528776,345.63 L265.528776,354 L260.413776,354 L260.413776,338.562 L265.342776,338.562 L265.342776,340.701 L265.404776,340.701 C265.590777,340.370332 265.833608,340.044835 266.133276,339.7245 C266.432944,339.404165 266.784274,339.130334 267.187276,338.903 C267.590278,338.675666 268.02944,338.489667 268.504776,338.345 C268.980112,338.200333 269.48644,338.128 270.023776,338.128 C271.057114,338.128 271.935439,338.313998 272.658776,338.686 C273.382113,339.058002 273.96594,339.538497 274.410276,340.1275 C274.854612,340.716503 275.174942,341.39333 275.371276,342.158 C275.56761,342.92267 275.665776,343.68733 275.665776,344.452 L275.665776,354 L270.550776,354 Z M295.307224,346.219 C295.307224,347.479673 295.079893,348.621495 294.625224,349.6445 C294.170555,350.667505 293.550561,351.535496 292.765224,352.2485 C291.979887,352.961504 291.070563,353.514331 290.037224,353.907 C289.003886,354.299669 287.89823,354.496 286.720224,354.496 C285.562885,354.496 284.462396,354.299669 283.418724,353.907 C282.375052,353.514331 281.465728,352.961504 280.690724,352.2485 C279.91572,351.535496 279.300893,350.667505 278.846224,349.6445 C278.391555,348.621495 278.164224,347.479673 278.164224,346.219 C278.164224,344.958327 278.391555,343.821672 278.846224,342.809 C279.300893,341.796328 279.91572,340.93867 280.690724,340.236 C281.465728,339.53333 282.375052,338.996002 283.418724,338.624 C284.462396,338.251998 285.562885,338.066 286.720224,338.066 C287.89823,338.066 289.003886,338.251998 290.037224,338.624 C291.070563,338.996002 291.979887,339.53333 292.765224,340.236 C293.550561,340.93867 294.170555,341.796328 294.625224,342.809 C295.079893,343.821672 295.307224,344.958327 295.307224,346.219 L295.307224,346.219 Z M290.409224,346.219 C290.409224,345.722998 290.326558,345.237336 290.161224,344.762 C289.99589,344.286664 289.758226,343.868168 289.448224,343.5065 C289.138222,343.144832 288.755893,342.850334 288.301224,342.623 C287.846555,342.395666 287.31956,342.282 286.720224,342.282 C286.120888,342.282 285.593893,342.395666 285.139224,342.623 C284.684555,342.850334 284.307392,343.144832 284.007724,343.5065 C283.708056,343.868168 283.480725,344.286664 283.325724,344.762 C283.170723,345.237336 283.093224,345.722998 283.093224,346.219 C283.093224,346.715002 283.170723,347.200664 283.325724,347.676 C283.480725,348.151336 283.713222,348.580165 284.023224,348.9625 C284.333226,349.344835 284.715555,349.649666 285.170224,349.877 C285.624893,350.104334 286.151888,350.218 286.751224,350.218 C287.35056,350.218 287.877555,350.104334 288.332224,349.877 C288.786893,349.649666 289.169222,349.344835 289.479224,348.9625 C289.789226,348.580165 290.021723,348.151336 290.176724,347.676 C290.331725,347.200664 290.409224,346.715002 290.409224,346.219 L290.409224,346.219 Z M315.77312,344.514 C315.77312,343.707996 315.519956,343.01567 315.01362,342.437 C314.507284,341.85833 313.747792,341.569 312.73512,341.569 C312.239118,341.569 311.784456,341.646499 311.37112,341.8015 C310.957785,341.956501 310.596122,342.168332 310.28612,342.437 C309.976119,342.705668 309.728121,343.020832 309.54212,343.3825 C309.356119,343.744168 309.252787,344.121331 309.23212,344.514 L315.77312,344.514 Z M320.45412,346.467 L320.45412,347.087 C320.45412,347.293668 320.443787,347.489999 320.42312,347.676 L309.23212,347.676 C309.273454,348.110002 309.402619,348.502665 309.61962,348.854 C309.836621,349.205335 310.115618,349.510165 310.45662,349.7685 C310.797622,350.026835 311.179951,350.228333 311.60362,350.373 C312.027289,350.517667 312.466451,350.59 312.92112,350.59 C313.727124,350.59 314.409117,350.440168 314.96712,350.1405 C315.525123,349.840832 315.979785,349.453336 316.33112,348.978 L319.86512,351.21 C319.141783,352.264005 318.185959,353.075164 316.99762,353.6435 C315.809281,354.211836 314.429795,354.496 312.85912,354.496 C311.701781,354.496 310.606459,354.315168 309.57312,353.9535 C308.539782,353.591832 307.635624,353.064837 306.86062,352.3725 C306.085616,351.680163 305.475956,350.827672 305.03162,349.815 C304.587285,348.802328 304.36512,347.645007 304.36512,346.343 C304.36512,345.082327 304.582118,343.940505 305.01612,342.9175 C305.450122,341.894495 306.039116,341.026504 306.78312,340.3135 C307.527124,339.600496 308.405448,339.047669 309.41812,338.655 C310.430792,338.262331 311.526114,338.066 312.70412,338.066 C313.840793,338.066 314.884449,338.257165 315.83512,338.6395 C316.785792,339.021835 317.602117,339.574663 318.28412,340.298 C318.966124,341.021337 319.498285,341.899661 319.88062,342.933 C320.262955,343.966339 320.45412,345.144327 320.45412,346.467 L320.45412,346.467 Z M332.128568,343.119 C331.715233,342.726331 331.229571,342.395668 330.671568,342.127 C330.113565,341.858332 329.524571,341.724 328.904568,341.724 C328.429233,341.724 327.99007,341.816999 327.587068,342.003 C327.184066,342.189001 326.982568,342.509331 326.982568,342.964 C326.982568,343.398002 327.204733,343.707999 327.649068,343.894 C328.093404,344.080001 328.811563,344.286666 329.803568,344.514 C330.382238,344.638001 330.966065,344.813666 331.555068,345.041 C332.144071,345.268334 332.676233,345.567998 333.151568,345.94 C333.626904,346.312002 334.009233,346.766664 334.298568,347.304 C334.587903,347.841336 334.732568,348.481996 334.732568,349.226 C334.732568,350.197338 334.536237,351.01883 334.143568,351.6905 C333.7509,352.36217 333.239405,352.904665 332.609068,353.318 C331.978732,353.731335 331.270905,354.030999 330.485568,354.217 C329.700231,354.403001 328.914905,354.496 328.129568,354.496 C326.868895,354.496 325.634074,354.294502 324.425068,353.8915 C323.216062,353.488498 322.208572,352.894337 321.402568,352.109 L324.254568,349.102 C324.709237,349.598002 325.267232,350.011332 325.928568,350.342 C326.589905,350.672668 327.292565,350.838 328.036568,350.838 C328.449904,350.838 328.858066,350.739834 329.261068,350.5435 C329.66407,350.347166 329.865568,350.001002 329.865568,349.505 C329.865568,349.029664 329.617571,348.678334 329.121568,348.451 C328.625566,348.223666 327.850574,347.986001 326.796568,347.738 C326.259232,347.613999 325.721904,347.448668 325.184568,347.242 C324.647232,347.035332 324.166737,346.756335 323.743068,346.405 C323.319399,346.053665 322.973236,345.619669 322.704568,345.103 C322.4359,344.586331 322.301568,343.966337 322.301568,343.243 C322.301568,342.312995 322.4979,341.522503 322.890568,340.8715 C323.283237,340.220497 323.789565,339.688335 324.409568,339.275 C325.029571,338.861665 325.716731,338.556834 326.471068,338.3605 C327.225405,338.164166 327.974565,338.066 328.718568,338.066 C329.875907,338.066 331.007396,338.246832 332.113068,338.6085 C333.21874,338.970168 334.153898,339.512663 334.918568,340.236 L332.128568,343.119 Z M342.625016,342.375 L342.625016,348.265 C342.625016,348.988337 342.764515,349.530832 343.043516,349.8925 C343.322518,350.254168 343.823679,350.435 344.547016,350.435 C344.795018,350.435 345.058515,350.414334 345.337516,350.373 C345.616518,350.331666 345.849015,350.269667 346.035016,350.187 L346.097016,353.907 C345.745681,354.031001 345.301352,354.1395 344.764016,354.2325 C344.22668,354.3255 343.689352,354.372 343.152016,354.372 C342.118678,354.372 341.250686,354.242835 340.548016,353.9845 C339.845346,353.726165 339.282185,353.354169 338.858516,352.8685 C338.434848,352.382831 338.130017,351.80417 337.944016,351.1325 C337.758015,350.46083 337.665016,349.711671 337.665016,348.885 L337.665016,342.375 L335.185016,342.375 L335.185016,338.562 L337.634016,338.562 L337.634016,334.501 L342.625016,334.501 L342.625016,338.562 L346.252016,338.562 L346.252016,342.375 L342.625016,342.375 Z M357.182464,347.273 L356.531464,347.273 C355.973462,347.273 355.410301,347.298833 354.841964,347.3505 C354.273628,347.402167 353.7673,347.500333 353.322964,347.645 C352.878629,347.789667 352.511799,348.001499 352.222464,348.2805 C351.93313,348.559501 351.788464,348.926331 351.788464,349.381 C351.788464,349.670335 351.85563,349.918332 351.989964,350.125 C352.124298,350.331668 352.294797,350.496999 352.501464,350.621 C352.708132,350.745001 352.945796,350.832833 353.214464,350.8845 C353.483132,350.936167 353.741463,350.962 353.989464,350.962 C355.022803,350.962 355.813295,350.677836 356.360964,350.1095 C356.908634,349.541164 357.182464,348.771338 357.182464,347.8 L357.182464,347.273 Z M347.851464,340.67 C348.760802,339.801996 349.819958,339.151002 351.028964,338.717 C352.23797,338.282998 353.472791,338.066 354.733464,338.066 C356.035471,338.066 357.13596,338.226165 358.034964,338.5465 C358.933969,338.866835 359.662462,339.36283 360.220464,340.0345 C360.778467,340.70617 361.18663,341.553495 361.444964,342.5765 C361.703299,343.599505 361.832464,344.81366 361.832464,346.219 L361.832464,354 L357.182464,354 L357.182464,352.357 L357.089464,352.357 C356.696796,352.99767 356.102635,353.493665 355.306964,353.845 C354.511294,354.196335 353.648469,354.372 352.718464,354.372 C352.098461,354.372 351.457801,354.289334 350.796464,354.124 C350.135128,353.958666 349.530634,353.690002 348.982964,353.318 C348.435295,352.945998 347.985799,352.450003 347.634464,351.83 C347.283129,351.209997 347.107464,350.445338 347.107464,349.536 C347.107464,348.419994 347.412295,347.521003 348.021964,346.839 C348.631634,346.156997 349.41696,345.630002 350.377964,345.258 C351.338969,344.885998 352.408458,344.638001 353.586464,344.514 C354.76447,344.389999 355.911459,344.328 357.027464,344.328 L357.027464,344.08 C357.027464,343.31533 356.7588,342.752168 356.221464,342.3905 C355.684128,342.028832 355.022802,341.848 354.237464,341.848 C353.514127,341.848 352.816634,342.002998 352.144964,342.313 C351.473294,342.623002 350.8998,342.994998 350.424464,343.429 L347.851464,340.67 Z M355.756464,336.268 L351.912464,336.268 L355.136464,331.804 L360.282464,331.804 L355.756464,336.268 Z M389.397361,346.219 C389.397361,347.293672 389.232029,348.326995 388.901361,349.319 C388.570692,350.311005 388.090197,351.184163 387.459861,351.9385 C386.829524,352.692837 386.059698,353.297331 385.150361,353.752 C384.241023,354.206669 383.2077,354.434 382.050361,354.434 C381.099689,354.434 380.200698,354.242835 379.353361,353.8605 C378.506023,353.478165 377.844696,352.956337 377.369361,352.295 L377.307361,352.295 L377.307361,361.44 L372.223361,361.44 L372.223361,338.562 L377.059361,338.562 L377.059361,340.453 L377.152361,340.453 C377.627696,339.832997 378.283856,339.290502 379.120861,338.8255 C379.957865,338.360498 380.944688,338.128 382.081361,338.128 C383.197366,338.128 384.210023,338.344998 385.119361,338.779 C386.028698,339.213002 386.798524,339.801996 387.428861,340.546 C388.059197,341.290004 388.544859,342.152828 388.885861,343.1345 C389.226862,344.116172 389.397361,345.144328 389.397361,346.219 L389.397361,346.219 Z M384.468361,346.219 C384.468361,345.722998 384.390861,345.237336 384.235861,344.762 C384.08086,344.286664 383.853529,343.868168 383.553861,343.5065 C383.254192,343.144832 382.877029,342.850334 382.422361,342.623 C381.967692,342.395666 381.440697,342.282 380.841361,342.282 C380.262691,342.282 379.746029,342.395666 379.291361,342.623 C378.836692,342.850334 378.449195,343.149998 378.128861,343.522 C377.808526,343.894002 377.560528,344.317664 377.384861,344.793 C377.209193,345.268336 377.121361,345.753998 377.121361,346.25 C377.121361,346.746002 377.209193,347.231664 377.384861,347.707 C377.560528,348.182336 377.808526,348.605998 378.128861,348.978 C378.449195,349.350002 378.836692,349.649666 379.291361,349.877 C379.746029,350.104334 380.262691,350.218 380.841361,350.218 C381.440697,350.218 381.967692,350.104334 382.422361,349.877 C382.877029,349.649666 383.254192,349.350002 383.553861,348.978 C383.853529,348.605998 384.08086,348.177169 384.235861,347.6915 C384.390861,347.205831 384.468361,346.715002 384.468361,346.219 L384.468361,346.219 Z M408.387809,346.219 C408.387809,347.479673 408.160478,348.621495 407.705809,349.6445 C407.25114,350.667505 406.631146,351.535496 405.845809,352.2485 C405.060471,352.961504 404.151147,353.514331 403.117809,353.907 C402.08447,354.299669 400.978814,354.496 399.800809,354.496 C398.643469,354.496 397.54298,354.299669 396.499309,353.907 C395.455637,353.514331 394.546312,352.961504 393.771309,352.2485 C392.996305,351.535496 392.381478,350.667505 391.926809,349.6445 C391.47214,348.621495 391.244809,347.479673 391.244809,346.219 C391.244809,344.958327 391.47214,343.821672 391.926809,342.809 C392.381478,341.796328 392.996305,340.93867 393.771309,340.236 C394.546312,339.53333 395.455637,338.996002 396.499309,338.624 C397.54298,338.251998 398.643469,338.066 399.800809,338.066 C400.978814,338.066 402.08447,338.251998 403.117809,338.624 C404.151147,338.996002 405.060471,339.53333 405.845809,340.236 C406.631146,340.93867 407.25114,341.796328 407.705809,342.809 C408.160478,343.821672 408.387809,344.958327 408.387809,346.219 L408.387809,346.219 Z M403.489809,346.219 C403.489809,345.722998 403.407143,345.237336 403.241809,344.762 C403.076474,344.286664 402.83881,343.868168 402.528809,343.5065 C402.218807,343.144832 401.836478,342.850334 401.381809,342.623 C400.92714,342.395666 400.400145,342.282 399.800809,342.282 C399.201472,342.282 398.674478,342.395666 398.219809,342.623 C397.76514,342.850334 397.387977,343.144832 397.088309,343.5065 C396.78864,343.868168 396.561309,344.286664 396.406309,344.762 C396.251308,345.237336 396.173809,345.722998 396.173809,346.219 C396.173809,346.715002 396.251308,347.200664 396.406309,347.676 C396.561309,348.151336 396.793807,348.580165 397.103809,348.9625 C397.41381,349.344835 397.79614,349.649666 398.250809,349.877 C398.705478,350.104334 399.232472,350.218 399.831809,350.218 C400.431145,350.218 400.95814,350.104334 401.412809,349.877 C401.867478,349.649666 402.249807,349.344835 402.559809,348.9625 C402.86981,348.580165 403.102308,348.151336 403.257309,347.676 C403.412309,347.200664 403.489809,346.715002 403.489809,346.219 L403.489809,346.219 Z M421.054257,342.716 C420.826922,342.654 420.604758,342.612667 420.387757,342.592 C420.170756,342.571333 419.958924,342.561 419.752257,342.561 C419.070253,342.561 418.496759,342.684999 418.031757,342.933 C417.566754,343.181001 417.194758,343.480665 416.915757,343.832 C416.636755,344.183335 416.435257,344.565665 416.311257,344.979 C416.187256,345.392335 416.125257,345.753998 416.125257,346.064 L416.125257,354 L411.041257,354 L411.041257,338.562 L415.939257,338.562 L415.939257,340.794 L416.001257,340.794 C416.393925,340.008663 416.95192,339.368002 417.675257,338.872 C418.398594,338.375998 419.235585,338.128 420.186257,338.128 C420.392924,338.128 420.594422,338.138333 420.790757,338.159 C420.987091,338.179667 421.147256,338.210666 421.271257,338.252 L421.054257,342.716 Z M439.040153,347.273 L438.389153,347.273 C437.83115,347.273 437.267989,347.298833 436.699653,347.3505 C436.131317,347.402167 435.624988,347.500333 435.180653,347.645 C434.736317,347.789667 434.369488,348.001499 434.080153,348.2805 C433.790818,348.559501 433.646153,348.926331 433.646153,349.381 C433.646153,349.670335 433.713319,349.918332 433.847653,350.125 C433.981987,350.331668 434.152485,350.496999 434.359153,350.621 C434.56582,350.745001 434.803485,350.832833 435.072153,350.8845 C435.340821,350.936167 435.599152,350.962 435.847153,350.962 C436.880491,350.962 437.670983,350.677836 438.218653,350.1095 C438.766322,349.541164 439.040153,348.771338 439.040153,347.8 L439.040153,347.273 Z M429.709153,340.67 C430.618491,339.801996 431.677647,339.151002 432.886653,338.717 C434.095659,338.282998 435.33048,338.066 436.591153,338.066 C437.893159,338.066 438.993648,338.226165 439.892653,338.5465 C440.791657,338.866835 441.52015,339.36283 442.078153,340.0345 C442.636156,340.70617 443.044318,341.553495 443.302653,342.5765 C443.560987,343.599505 443.690153,344.81366 443.690153,346.219 L443.690153,354 L439.040153,354 L439.040153,352.357 L438.947153,352.357 C438.554484,352.99767 437.960323,353.493665 437.164653,353.845 C436.368982,354.196335 435.506157,354.372 434.576153,354.372 C433.95615,354.372 433.315489,354.289334 432.654153,354.124 C431.992816,353.958666 431.388322,353.690002 430.840653,353.318 C430.292983,352.945998 429.843488,352.450003 429.492153,351.83 C429.140818,351.209997 428.965153,350.445338 428.965153,349.536 C428.965153,348.419994 429.269983,347.521003 429.879653,346.839 C430.489322,346.156997 431.274648,345.630002 432.235653,345.258 C433.196658,344.885998 434.266147,344.638001 435.444153,344.514 C436.622159,344.389999 437.769147,344.328 438.885153,344.328 L438.885153,344.08 C438.885153,343.31533 438.616489,342.752168 438.079153,342.3905 C437.541817,342.028832 436.88049,341.848 436.095153,341.848 C435.371816,341.848 434.674323,342.002998 434.002653,342.313 C433.330983,342.623002 432.757488,342.994998 432.282153,343.429 L429.709153,340.67 Z M457.534601,343.553 C457.245266,343.180998 456.852603,342.881334 456.356601,342.654 C455.860598,342.426666 455.35427,342.313 454.837601,342.313 C454.300265,342.313 453.814603,342.421499 453.380601,342.6385 C452.946599,342.855501 452.574602,343.144832 452.264601,343.5065 C451.954599,343.868168 451.711768,344.286664 451.536101,344.762 C451.360433,345.237336 451.272601,345.743664 451.272601,346.281 C451.272601,346.818336 451.355267,347.324664 451.520601,347.8 C451.685935,348.275336 451.928766,348.693832 452.249101,349.0555 C452.569436,349.417168 452.951765,349.701332 453.396101,349.908 C453.840436,350.114668 454.341598,350.218 454.899601,350.218 C455.41627,350.218 455.927765,350.119834 456.434101,349.9235 C456.940437,349.727166 457.348599,349.443002 457.658601,349.071 L460.479601,352.512 C459.838931,353.132003 459.012273,353.617665 457.999601,353.969 C456.986929,354.320335 455.912273,354.496 454.775601,354.496 C453.556261,354.496 452.419606,354.310002 451.365601,353.938 C450.311596,353.565998 449.397105,353.023504 448.622101,352.3105 C447.847097,351.597496 447.237436,350.734672 446.793101,349.722 C446.348765,348.709328 446.126601,347.56234 446.126601,346.281 C446.126601,345.020327 446.348765,343.883672 446.793101,342.871 C447.237436,341.858328 447.847097,340.995504 448.622101,340.2825 C449.397105,339.569496 450.311596,339.021835 451.365601,338.6395 C452.419606,338.257165 453.545928,338.066 454.744601,338.066 C455.302604,338.066 455.855431,338.117666 456.403101,338.221 C456.95077,338.324334 457.477765,338.463832 457.984101,338.6395 C458.490437,338.815168 458.955432,339.032165 459.379101,339.2905 C459.80277,339.548835 460.169599,339.832998 460.479601,340.143 L457.534601,343.553 Z M471.038049,347.273 L470.387049,347.273 C469.829046,347.273 469.265885,347.298833 468.697549,347.3505 C468.129213,347.402167 467.622884,347.500333 467.178549,347.645 C466.734213,347.789667 466.367384,348.001499 466.078049,348.2805 C465.788714,348.559501 465.644049,348.926331 465.644049,349.381 C465.644049,349.670335 465.711215,349.918332 465.845549,350.125 C465.979883,350.331668 466.150381,350.496999 466.357049,350.621 C466.563717,350.745001 466.801381,350.832833 467.070049,350.8845 C467.338717,350.936167 467.597048,350.962 467.845049,350.962 C468.878387,350.962 469.66888,350.677836 470.216549,350.1095 C470.764218,349.541164 471.038049,348.771338 471.038049,347.8 L471.038049,347.273 Z M461.707049,340.67 C462.616387,339.801996 463.675543,339.151002 464.884549,338.717 C466.093555,338.282998 467.328376,338.066 468.589049,338.066 C469.891055,338.066 470.991544,338.226165 471.890549,338.5465 C472.789553,338.866835 473.518046,339.36283 474.076049,340.0345 C474.634052,340.70617 475.042214,341.553495 475.300549,342.5765 C475.558884,343.599505 475.688049,344.81366 475.688049,346.219 L475.688049,354 L471.038049,354 L471.038049,352.357 L470.945049,352.357 C470.55238,352.99767 469.95822,353.493665 469.162549,353.845 C468.366878,354.196335 467.504054,354.372 466.574049,354.372 C465.954046,354.372 465.313386,354.289334 464.652049,354.124 C463.990712,353.958666 463.386218,353.690002 462.838549,353.318 C462.29088,352.945998 461.841384,352.450003 461.490049,351.83 C461.138714,351.209997 460.963049,350.445338 460.963049,349.536 C460.963049,348.419994 461.267879,347.521003 461.877549,346.839 C462.487219,346.156997 463.272544,345.630002 464.233549,345.258 C465.194554,344.885998 466.264043,344.638001 467.442049,344.514 C468.620055,344.389999 469.767043,344.328 470.883049,344.328 L470.883049,344.08 C470.883049,343.31533 470.614385,342.752168 470.077049,342.3905 C469.539713,342.028832 468.878386,341.848 468.093049,341.848 C467.369712,341.848 466.672219,342.002998 466.000549,342.313 C465.328879,342.623002 464.755385,342.994998 464.280049,343.429 L461.707049,340.67 Z M469.612049,336.268 L465.768049,336.268 L468.992049,331.804 L474.138049,331.804 L469.612049,336.268 Z" id="!-Pgina-no-encontra" fill="#60D8FF"></path>
        </g>
    </g>
</svg>