<?xml version="1.0" encoding="UTF-8"?>
<svg width="13px" height="18px" viewBox="0 0 13 18" version="1.1" xmlns="http://www.w3.org/2000/svg" xmlns:xlink="http://www.w3.org/1999/xlink">
    <!-- Generator: Sketch 41.2 (35397) - http://www.bohemiancoding.com/sketch -->
    <title>Group</title>
    <desc>Created with Sketch.</desc>
    <defs></defs>
    <g id="Page-1" stroke="none" stroke-width="1" fill="none" fill-rule="evenodd">
        <g id="iPhone-7-Copy-4" transform="translate(-281.000000, -613.000000)" stroke="#FFFFFF" stroke-width="0.5" fill="#FFFFFF">
            <g id="faq" transform="translate(81.000000, 613.000000)">
                <g id="Group" transform="translate(201.000000, 0.000000)">
                    <path d="M5.57058707,17.0979498 C5.65001589,17.1773787 5.75775666,17.222 5.87015726,17.222 C5.98248726,17.222 6.09022804,17.1773787 6.16965685,17.0979498 L11.5614261,11.70611 C11.7269205,11.5406862 11.7269205,11.2724639 11.5614261,11.1070402 C11.396073,10.9416164 11.1277095,10.9416164 10.9624269,11.1070402 L5.87015726,16.1993099 L0.777887595,11.1070402 C0.612463846,10.9416164 0.344170956,10.9416164 0.178817811,11.1070402 C0.013394063,11.2724639 0.013394063,11.5406862 0.178817811,11.70611 L5.57058707,17.0979498 Z" id="Shape"></path>
                    <path d="M5.87015726,12.8355347 C6.1040663,12.8355347 6.29377762,12.6458234 6.29377762,12.4119144 L6.29377762,1.15625098 C6.29377762,0.922341944 6.1040663,0.732630629 5.87015726,0.732630629 C5.63624822,0.732630629 5.44653691,0.922341944 5.44653691,1.15625098 L5.44653691,12.4119144 C5.44653691,12.645894 5.63617762,12.8355347 5.87015726,12.8355347 Z" id="Shape"></path>
                </g>
            </g>
        </g>
    </g>
</svg>