<?xml version="1.0" encoding="UTF-8" standalone="no"?>
<svg width="22px" height="14px" viewBox="0 0 22 14" version="1.1" xmlns="http://www.w3.org/2000/svg" xmlns:xlink="http://www.w3.org/1999/xlink">
    <g id="Page-1" stroke="none" stroke-width="1" fill="none" fill-rule="evenodd">
        <path d="M1.74319308,0.526736446 C2.29248784,0.194001431 2.92073666,-0.0112791559 3.56703212,0.00112791559 C7.10755824,-9.36000672e-17 10.6480843,-0.00112791559 14.1886105,0.00225583118 C15.6492608,0.00676749355 17.0038871,1.04557748 17.4934023,2.4035875 C17.8250094,3.32960595 17.658078,4.32555516 17.7009387,5.28653899 C18.6010151,4.83424496 19.5010915,4.38307884 20.4022958,3.93529647 C20.7045771,3.74467879 21.1185221,4.04357633 21.0531029,4.3875905 C21.0463355,6.15954543 21.0553588,7.93150036 21.0485913,9.70232737 C21.0745333,10.0102482 20.7000655,10.2437267 20.4304937,10.0959698 C19.5157544,9.6526991 18.6100383,9.18461425 17.6975549,8.73570396 C17.6986828,9.05490399 17.6986828,9.37410402 17.7020666,9.69330405 C12.3828181,6.6366536 7.06469746,3.57774731 1.74319308,0.526736446 L1.74319308,0.526736446 Z M0.00169187295,3.59804979 C0.00169187295,2.58856561 0.461881313,1.61066304 1.19841,0.928274296 C3.01322572,1.96031679 4.82465769,3.00251051 6.63045006,4.05259966 C6.6248105,5.92606697 6.62932214,7.80066219 6.62819423,9.6741295 C4.71524989,10.7095557 2.78989848,11.7212958 0.883721635,12.7680011 C0.323147733,12.1070427 -0.00281978824,11.2532109 0.00169187295,10.3824603 C-0.000563957649,8.12099013 -0.000563957649,5.85951996 0.00169187295,3.59804979 L0.00169187295,3.59804979 Z M1.42173723,13.276691 C5.0175312,11.2486992 8.65054636,9.28612663 12.2576195,7.27618157 C14.0622839,8.34657318 15.899658,9.36395278 17.7156016,10.4162978 C17.6749966,11.2216293 17.4268553,12.0280888 16.9068863,12.6552096 C16.2493117,13.462797 15.2375717,14.0414175 14.1762034,13.995173 C10.7924575,13.9906613 7.4075837,13.994045 4.02383782,13.9929171 C3.5354505,13.9884055 3.03127235,14.03465 2.5620596,13.8688464 C2.14924259,13.7413921 1.77703055,13.515809 1.42173723,13.276691 L1.42173723,13.276691 Z" id="Shape" fill="#FFFFFF"></path>
    </g>
</svg>