<?xml version="1.0" encoding="UTF-8" standalone="no"?>
<svg width="23px" height="15px" version="1.1" xmlns="http://www.w3.org/2000/svg" xmlns:xlink="http://www.w3.org/1999/xlink" xmlns:sketch="http://www.bohemiancoding.com/sketch/ns">
    <!-- Generator: Sketch 3.4.3 (16044) - http://www.bohemiancoding.com/sketch -->
    <title>Shape</title>
    <desc>Created with Sketch.</desc>
    <defs></defs>
    <g id="Page-1" stroke="none" stroke-width="1" fill="none" fill-rule="evenodd" sketch:type="MSPage">
        <g id="01_IPSUMTPL_HOME_DESKTOP" sketch:type="MSArtboardGroup" transform="translate(-1034.000000, -148.000000)" fill="#CDCDCD">
            <g id="Header" sketch:type="MSLayerGroup">
                <g id="poweredBy" transform="translate(1034.000000, 129.000000)" sketch:type="MSShapeGroup">
                    <path d="M1.86177902,19.5625693 C2.44844119,19.207199 3.11942852,18.9879535 3.80969017,19.0012046 C7.59107118,19 11.3724522,18.9987954 15.1538332,19.0024093 C16.7138486,19.0072279 18.1606274,20.116706 18.6834434,21.5670987 C19.037609,22.5561124 18.8593216,23.619814 18.9050981,24.6461716 C19.8664049,24.163109 20.8277117,23.6812509 21.7902231,23.2030068 C22.113068,22.9994218 22.5551728,23.3186527 22.4853034,23.6860695 C22.4780755,25.578567 22.4877126,27.4710644 22.4804848,29.3623573 C22.5081916,29.6912254 22.1082494,29.9405869 21.8203393,29.7827784 C20.8433721,29.3093529 19.876042,28.8094252 18.9014841,28.3299764 C18.9026888,28.670891 18.9026888,29.0118055 18.9063027,29.3527201 C13.2251964,26.0881318 7.54529467,22.8211343 1.86177902,19.5625693 Z M0.00180696767,22.8428179 C0.00180696767,21.7646605 0.493302174,20.7202332 1.27993543,19.9914229 C3.21820942,21.0936732 5.15286947,22.2067653 7.0815063,23.3282899 C7.07548307,25.3292054 7.08030165,27.3313256 7.07909701,29.3322411 C5.03601889,30.4381053 2.97968969,31.518672 0.943839446,32.6365827 C0.345130825,31.9306606 -0.00301161278,31.0187443 0.00180696767,30.0887583 C-0.000602322557,27.6734448 -0.000602322557,25.2581314 0.00180696767,22.8428179 Z M1.51845516,33.1798776 C5.35886379,31.0139257 9.23902569,28.9178432 13.0914808,26.7711656 C15.0189129,27.9143738 16.9812798,29.0009637 18.9207585,30.1248976 C18.8773912,30.9850142 18.6123693,31.8463355 18.0570279,32.5161182 C17.3547198,33.3786441 16.2741532,33.996627 15.1405821,33.9472366 C11.5266468,33.942418 7.91150678,33.9460319 4.29757144,33.9448273 C3.77596011,33.9400087 3.23748374,33.9893991 2.73635137,33.8123163 C2.29545126,33.6761914 1.89791838,33.4352624 1.51845516,33.1798776 Z" id="Shape"></path>
                </g>
            </g>
        </g>
    </g>
</svg>