<?xml version="1.0" encoding="UTF-8" standalone="no"?>
<svg width="13px" height="9px" version="1.1" xmlns="http://www.w3.org/2000/svg" xmlns:xlink="http://www.w3.org/1999/xlink" xmlns:sketch="http://www.bohemiancoding.com/sketch/ns">
    <!-- Generator: Sketch 3.4.4 (17249) - http://www.bohemiancoding.com/sketch -->
    <title>Shape</title>
    <desc>Created with Sketch.</desc>
    <defs></defs>
    <g id="Page-1" stroke="none" stroke-width="1" fill="none" fill-rule="evenodd" sketch:type="MSPage">
        <g id="07_IPSUMTPL_VIDEO_MOBILE" sketch:type="MSArtboardGroup" transform="translate(-113.000000, -81.000000)" fill="#CDCDCD">
            <g id="poweredBy" sketch:type="MSLayerGroup" transform="translate(113.000000, 78.000000)">
                <path d="M1.03383104,3.31239023 C1.35959987,3.11505593 1.73219378,2.9933107 2.11549057,3.00066893 C4.21526129,3 6.31503201,2.99933107 8.41480273,3.00133786 C9.28106685,3.00401358 10.0844516,3.62009795 10.3747671,4.42548946 C10.5714325,4.97468084 10.4724309,5.56534588 10.4978502,6.13527409 C11.0316562,5.86703323 11.5654622,5.5994613 12.0999371,5.33389616 C12.2792103,5.22084702 12.5247076,5.39811342 12.4859096,5.60213702 C12.4818961,6.65302577 12.4872475,7.70391453 12.4832339,8.75413435 C12.4986193,8.93675219 12.2765346,9.07522067 12.1166604,8.98759086 C11.5741583,8.72470144 11.0370076,8.44709556 10.4958434,8.18086149 C10.4965123,8.37016863 10.4965123,8.55947577 10.4985191,8.74878291 C7.34384608,6.93598309 4.18984196,5.1218454 1.03383104,3.31239023 Z M0.00100339474,5.13388614 C0.00100339474,4.53519395 0.273926763,3.95523179 0.710737939,3.55052925 C1.78704603,4.16260004 2.86134733,4.78069119 3.93230397,5.40346486 C3.92895933,6.5145573 3.93163504,7.62631867 3.93096611,8.73741111 C2.79646113,9.35148869 1.65459792,9.95151874 0.524106518,10.5722856 C0.191648395,10.1802927 -0.00167232456,9.67391286 0.00100339474,9.15749904 C-0.000334464912,7.81629474 -0.000334464912,6.47509044 0.00100339474,5.13388614 Z M0.843186044,10.873973 C2.97573433,9.67123714 5.13035729,8.50729925 7.26959487,7.3152663 C8.33988259,7.9500807 9.42956927,8.5534554 10.5065463,9.17756693 C10.4824648,9.65518283 10.3353003,10.1334677 10.0269236,10.5053926 C9.63693752,10.9843464 9.03690747,11.3275074 8.4074445,11.3000813 C6.40065503,11.2974055 4.39319662,11.2994123 2.38640715,11.2987434 C2.09676054,11.2960677 1.7977489,11.3234938 1.5194741,11.2251611 C1.27464578,11.1495721 1.05389894,11.0157861 0.843186044,10.873973 Z" id="Shape" sketch:type="MSShapeGroup"></path>
            </g>
        </g>
    </g>
</svg>