<?xml version="1.0" encoding="UTF-8"?>
<svg width="205px" height="51px" viewBox="0 0 205 51" version="1.1" xmlns="http://www.w3.org/2000/svg" xmlns:xlink="http://www.w3.org/1999/xlink">
    <!-- Generator: Sketch 41.2 (35397) - http://www.bohemiancoding.com/sketch -->
    <title>logo_entel</title>
    <desc>Created with Sketch.</desc>
    <defs></defs>
    <g id="Page-1" stroke="none" stroke-width="1" fill="none" fill-rule="evenodd">
        <g id="iPhone-7" transform="translate(-85.000000, -213.000000)">
            <g id="logo_entel" transform="translate(187.500000, 238.000000) scale(1, -1) translate(-187.500000, -238.000000) translate(85.000000, 212.000000)">
                <g id="g22" transform="translate(48.264219, 1.272978)" fill="#F05522">
                    <path d="M8.5370368,46.2222211 C7.76644423,46.7576285 6.56287018,46.6728877 5.87048131,46.0334803 L1.45864809,41.9466656 C0.766259215,41.3091842 0.821574029,40.3288879 1.57309253,39.7703694 C1.57309253,39.7703694 8.39588865,34.7205917 8.39588865,23.8718513 C8.39588865,13.5816293 1.21259254,7.65748129 1.21259254,7.65748129 C0.487777741,7.05851834 0.45916663,6.04162948 1.1515555,5.40607394 L5.52333317,1.38474071 C6.22144426,0.749185166 7.42120349,0.662518502 8.19561088,1.19407404 C8.19561088,1.19407404 18.487981,8.26414794 18.487981,23.8371846 C18.487981,39.3062212 8.5370368,46.2222211 8.5370368,46.2222211" id="path24"></path>
                </g>
                <g id="g26" transform="translate(84.268685, 8.687274)" fill="#FFFFFF">
                    <path d="M19.0740736,22.1111105 C18.242444,23.8945179 16.5028885,25.2253327 13.8763885,25.2253327 C11.2441664,25.2253327 9.50842569,23.8945179 8.67488867,22.1111105 C8.19612942,21.0171846 8.01301832,20.2082958 7.9557961,18.8832588 L19.7912588,18.8832588 C19.7378514,20.2082958 19.5509254,21.0171846 19.0740736,22.1111105 L19.0740736,22.1111105 Z M8.75309237,13.7525922 C8.75309237,13.7525922 7.97105536,13.8238515 7.97105536,13.1940737 C7.97105536,9.61185159 10.6166294,7.06192572 14.77287,7.06192572 C17.8571477,7.06192572 19.1732588,7.80340719 21.0291661,9.21703678 C21.4697772,9.54637011 21.9313698,9.84874047 22.2842402,9.46933307 C22.5283883,9.19777752 25.7995919,6.15481464 25.7995919,6.15481464 C26.2096845,5.76385168 26.1028697,5.30162947 25.664166,4.924148 C25.2216475,4.55822208 20.3348699,0.719851809 14.7137404,0.719851809 C7.36259241,0.719851809 0.297555548,3.94770358 0.297555548,16.1118514 C0.297555548,25.9148141 5.80042578,31.4499251 13.8763885,31.4499251 C22.5417402,31.4499251 27.4494993,25.3408882 27.4494993,17.0921477 L27.4494993,15.0102218 C27.4494993,14.1628144 26.7666475,13.7525922 26.2020549,13.7525922 L8.75309237,13.7525922 Z" id="path28"></path>
                </g>
                <g id="g30" transform="translate(160.928150, 8.687274)" fill="#FFFFFF">
                    <path d="M19.0740736,22.1111105 C18.232907,23.8945179 16.5028885,25.2253327 13.8706663,25.2253327 C11.2403516,25.2253327 9.50651828,23.8945179 8.66916645,22.1111105 C8.19231461,21.0171846 8.01111091,20.2082958 7.95388869,18.8832588 L19.7893514,18.8832588 C19.7302217,20.2082958 19.5547403,21.0171846 19.0740736,22.1111105 L19.0740736,22.1111105 Z M8.75118497,13.7525922 C8.75118497,13.7525922 7.97296276,13.8238515 7.97296276,13.1940737 C7.97296276,9.61185159 10.614722,7.06192572 14.7671478,7.06192572 C17.8514255,7.06192572 19.1675366,7.80340719 21.032981,9.21703678 C21.4697772,9.54637011 21.9294624,9.84874047 22.2842402,9.46933307 C22.5302957,9.19777752 25.7976845,6.15481464 25.7976845,6.15481464 C26.2077771,5.76385168 26.0971475,5.30162947 25.664166,4.924148 C25.2254623,4.55822208 20.3329625,0.719851809 14.7080182,0.719851809 C7.35305537,0.719851809 0.293740733,3.94770358 0.293740733,16.1118514 C0.293740733,25.9148141 5.79661097,31.4499251 13.8706663,31.4499251 C22.5417402,31.4499251 27.4494993,25.3408882 27.4494993,17.0921477 L27.4494993,15.0102218 C27.4494993,14.1628144 26.7609253,13.7525922 26.1963327,13.7525922 L8.75118497,13.7525922 Z" id="path32"></path>
                </g>
                <g id="g34" transform="translate(114.075305, 9.752444)" fill="#FFFFFF">
                    <path d="M19.981481,0 C19.4226106,0 18.9572032,0.466074062 18.9572032,1.0342222 L18.9572032,17.1330366 C18.9572032,19.7715551 18.3182217,23.6368883 13.8129256,23.6368883 C11.3599997,23.6368883 8.61333309,22.2579254 8.61333309,18.163407 L8.61333309,1.0342222 C8.61333309,0.466074062 8.15555533,0 7.59096275,0 L1.85920363,0 C1.29842587,0 0.838740695,0.466074062 0.838740695,1.0342222 L0.838740695,29.0082956 C0.838740695,29.5725919 1.29842587,30.0386659 1.85920363,30.0386659 L7.40594423,30.0386659 C7.97244422,30.0386659 8.43022199,29.5725919 8.43022199,29.0082956 L8.43022199,28.3072586 C8.43022199,27.7410363 8.81551827,27.5234067 9.29427752,27.8238512 C9.29427752,27.8238512 12.1077034,30.3834066 16.2067218,30.3834066 C19.3138884,30.3834066 21.8297587,29.4069622 23.563592,27.7352586 C26.0718327,25.3124438 26.7317956,22.4871105 26.7317956,19.201481 L26.7317956,1.0342222 C26.7317956,0.466074062 26.2740178,0 25.7075179,0 L19.981481,0 Z" id="path36"></path>
                </g>
                <g id="g38" transform="translate(145.136152, 9.084207)" fill="#FFFFFF">
                    <path d="M7.62962944,29.814814 L12.136833,29.814814 C12.6995182,29.814814 13.1592034,29.3795548 13.1592034,28.8094807 L13.1592034,24.2122957 C13.1592034,23.6441475 12.6995182,23.1799994 12.136833,23.1799994 L8.67679608,23.1799994 C8.11792572,23.1799994 7.65633314,22.7139253 7.65633314,22.1419253 L7.65633314,10.7558516 C7.65633314,10.1857775 7.79366647,9.27866641 7.96533313,8.73748124 C7.96533313,8.73748124 8.49749979,7.00992573 10.3495923,7.00992573 L12.136833,7.00992573 C12.6995182,7.00992573 13.1592034,6.54770352 13.1592034,5.97570353 L13.1592034,1.70207401 C13.1592034,1.13392587 12.6995182,0.66785181 12.136833,0.66785181 L8.91140718,0.66785181 C2.56927771,0.66785181 0.539796283,4.98962948 0.539796283,9.26133308 L0.539796283,23.1048883 L0.539796283,25.1714068 L0.539796283,28.8094807 L0.539796283,30.8798511 L0.539796283,34.7066658 C0.539796283,35.272888 0.999481456,35.738962 1.56788885,35.738962 L6.6358702,35.738962 C7.19664797,35.738962 7.62962944,35.272888 7.62962944,34.7066658 L7.62962944,29.814814" id="path40"></path>
                </g>
                <g id="g42" transform="translate(191.377566, 9.752444)" fill="#FFFFFF">
                    <path d="M8.5370368,0 C2.13768511,0 0.110111083,4.32177767 0.110111083,8.59348127 L0.110111083,34.038814 C0.110111083,34.6050362 0.571703664,35.0711102 1.12866661,35.0711102 L6.2042776,35.0711102 C6.75933314,35.0711102 7.22474054,34.6050362 7.22474054,34.038814 L7.22474054,10.0879997 C7.22474054,9.51599976 7.35062942,8.60696275 7.50322201,8.06192572 C7.50322201,8.06192572 7.9934257,6.34207392 9.97903676,6.34207392 L11.9341293,6.34207392 C12.5044441,6.34207392 12.9660367,5.8798517 12.9660367,5.30785172 L12.9660367,1.0342222 C12.9660367,0.466074062 12.5044441,0 11.9341293,0 L8.5370368,0 Z" id="path44"></path>
                </g>
                <g id="g46" transform="translate(0.162130, 0.266681)" fill="#FFFFFF">
                    <path d="M30.9953696,35.1481472 C29.6277585,38.0794064 26.7819067,40.2672582 22.4559068,40.2672582 C18.1375365,40.2672582 15.2916848,38.0794064 13.9145367,35.1481472 C13.1286848,33.3512584 12.8311293,32.0223695 12.7338515,29.8499251 L32.1798695,29.8499251 C32.0768695,32.0223695 31.7831288,33.3512584 30.9953696,35.1481472 L30.9953696,35.1481472 Z M14.0423329,21.4182217 C14.0423329,21.4182217 12.7605552,21.5376291 12.7605552,20.5034069 C12.7605552,14.6197033 17.1018144,10.4346664 23.9246105,10.4346664 C28.988777,10.4346664 31.1555918,11.6557034 34.2131658,13.9745181 C34.9265361,14.5157033 35.6875917,15.016444 36.2712583,14.3808885 C36.6718139,13.9437033 42.0468878,8.94014789 42.0468878,8.94014789 C42.7182952,8.30459235 42.5351841,7.54385163 41.8103693,6.93333312 C41.0950915,6.32281462 33.0629991,0.0211851485 23.8349623,0.0211851485 C11.7515367,0.0211851485 0.164036997,5.32518502 0.164036997,25.3047401 C0.164036997,41.3977767 9.19751825,50.4862209 22.4559068,50.4862209 C36.6966102,50.4862209 44.7420544,40.4521471 44.7420544,26.9109623 L44.7420544,23.4905179 C44.7420544,22.0922957 43.6224063,21.4182217 42.6934989,21.4182217 L14.0423329,21.4182217 Z" id="path48"></path>
                </g>
            </g>
        </g>
    </g>
</svg>