<?xml version="1.0" encoding="UTF-8"?>
<svg width="116px" height="27px" viewBox="0 0 116 27" version="1.1" xmlns="http://www.w3.org/2000/svg" xmlns:xlink="http://www.w3.org/1999/xlink">
    <!-- Generator: Sketch 42 (36781) - http://www.bohemiancoding.com/sketch -->
    <title>viddeo logo</title>
    <desc>Created with Sketch.</desc>
    <defs></defs>
    <g id="Page-1" stroke="none" stroke-width="1" fill="none" fill-rule="evenodd">
        <g id="user_account" transform="translate(-908.000000, -262.000000)" fill="#FFFFFF">
            <g id="box1" transform="translate(387.000000, 242.000000)">
                <path d="M530.217954,42.3801598 C530.217954,42.3681757 530.241966,42.4161113 530.28999,42.523968 C530.362027,42.7037293 530.446069,42.7037293 530.542119,42.523968 L530.578137,42.4161119 L536.611208,28.3768309 C536.899356,27.7057223 537.403608,27.3701731 538.123978,27.3701731 L538.159996,27.3701731 C538.748299,27.3701731 539.204526,27.6158431 539.528693,28.1071904 C539.85286,28.5985377 539.900883,29.1138455 539.672766,29.6531292 L532.973356,45.2563249 C532.517122,46.4187808 531.664696,47 530.416055,47 C529.155407,47 528.296978,46.4187808 527.840744,45.2563249 L521.141334,29.6531292 C520.913217,29.1138455 520.96124,28.5985377 521.285407,28.1071904 C521.609574,27.6158431 522.065801,27.3701731 522.654104,27.3701731 L522.708131,27.3701731 C523.428502,27.3701731 523.92675,27.7057223 524.202892,28.3768309 C527.084373,35.0759323 529.089374,39.7436619 530.217954,42.3801598 L530.217954,42.3801598 Z M544.35515,27.3701731 C544.811384,27.3701731 545.195576,27.5319558 545.507736,27.855526 C545.831903,28.1790962 545.993984,28.568573 545.993984,29.023968 L545.993984,45.3641811 C545.993984,45.8195762 545.831903,46.203061 545.507736,46.5146471 C545.195576,46.8382173 544.811384,47 544.35515,47 L544.319131,47 C543.862897,47 543.472702,46.8382173 543.148535,46.5146471 C542.824369,46.203061 542.662288,45.8195762 542.662288,45.3641811 L542.662288,29.023968 C542.662288,28.568573 542.824369,28.1790962 543.148535,27.855526 C543.472702,27.5319558 543.862897,27.3701731 544.319131,27.3701731 L544.35515,27.3701731 Z M544.33714,23.954727 C543.784857,23.954727 543.316623,23.7629846 542.932425,23.379494 C542.548228,22.9960034 542.356132,22.5286313 542.356132,21.9773635 C542.356132,21.4380799 542.548228,20.9766997 542.932425,20.5932091 C543.316623,20.2097185 543.784857,20.017976 544.33714,20.017976 C544.877418,20.017976 545.339649,20.2097185 545.723846,20.5932091 C546.12005,20.9766997 546.318149,21.4380799 546.318149,21.9773635 C546.318149,22.5286313 546.12005,22.9960034 545.723846,23.379494 C545.339649,23.7629846 544.877418,23.954727 544.33714,23.954727 L544.33714,23.954727 Z M554.962549,32.6371505 C553.701901,33.9074631 553.071586,35.4414025 553.071586,37.2390146 C553.071586,39.0246427 553.701901,40.5525902 554.962549,41.8229028 C556.235203,43.0932154 557.77197,43.7283622 559.572895,43.7283622 C561.373821,43.7283622 562.904585,43.0932154 564.165233,41.8229028 C565.437887,40.5525902 566.074205,39.0246427 566.074205,37.2390146 C566.074205,35.4414025 565.437887,33.9074631 564.165233,32.6371505 C562.904585,31.3668379 561.373821,30.7316911 559.572895,30.7316911 C557.77197,30.7316911 556.235203,31.3668379 554.962549,32.6371505 L554.962549,32.6371505 Z M567.767066,20 C568.211295,20 568.595486,20.1557907 568.919653,20.4673768 C569.243819,20.790947 569.4059,21.1804238 569.4059,21.6358189 L569.4059,37.2390146 C569.393894,39.9354329 568.427412,42.236342 566.506425,44.1418109 C564.585437,46.0472798 562.274284,47 559.572895,47 C556.859501,47 554.542344,46.0412879 552.621357,44.1238349 C550.70037,42.2063819 549.73989,39.8934889 549.73989,37.1850866 C549.73989,34.4766842 550.70037,32.1637912 552.621357,30.2463382 C554.542344,28.3288852 556.859501,27.3701731 559.572895,27.3701731 C562.046167,27.3701731 564.213248,28.1910704 566.074205,29.8328895 L566.074205,21.6358189 C566.074205,21.1804238 566.236285,20.790947 566.560452,20.4673768 C566.884619,20.1557907 567.26881,20 567.713039,20 L567.767066,20 Z M577.690117,32.6371505 C576.429469,33.9074631 575.799154,35.4414025 575.799154,37.2390146 C575.799154,39.0246427 576.429469,40.5525902 577.690117,41.8229028 C578.962771,43.0932154 580.499538,43.7283622 582.300464,43.7283622 C584.101389,43.7283622 585.632153,43.0932154 586.892801,41.8229028 C588.165455,40.5525902 588.801773,39.0246427 588.801773,37.2390146 C588.801773,35.4414025 588.165455,33.9074631 586.892801,32.6371505 C585.632153,31.3668379 584.101389,30.7316911 582.300464,30.7316911 C580.499538,30.7316911 578.962771,31.3668379 577.690117,32.6371505 L577.690117,32.6371505 Z M590.494634,20 C590.938863,20 591.323054,20.1557907 591.647221,20.4673768 C591.971388,20.790947 592.133469,21.1804238 592.133469,21.6358189 L592.133469,37.2390146 C592.121462,39.9354329 591.15498,42.236342 589.233993,44.1418109 C587.313005,46.0472798 585.001852,47 582.300464,47 C579.587069,47 577.269913,46.0412879 575.348925,44.1238349 C573.427938,42.2063819 572.467459,39.8934889 572.467459,37.1850866 C572.467459,34.4766842 573.427938,32.1637912 575.348925,30.2463382 C577.269913,28.3288852 579.587069,27.3701731 582.300464,27.3701731 C584.773735,27.3701731 586.940816,28.1910704 588.801773,29.8328895 L588.801773,21.6358189 C588.801773,21.1804238 588.963854,20.790947 589.28802,20.4673768 C589.612187,20.1557907 589.996379,20 590.440607,20 L590.494634,20 Z M609.998562,33.0505992 L598.598759,38.1917443 C598.550735,37.8801582 598.526723,37.5625848 598.526723,37.2390146 C598.526723,35.4414025 599.157037,33.9074631 600.417685,32.6371505 C601.690339,31.3668379 603.227106,30.7316911 605.028032,30.7316911 C607.045069,30.7316911 608.701895,31.5046527 609.998562,33.0505992 L609.998562,33.0505992 Z M610.394764,28.9700399 C608.77393,27.9034567 606.985038,27.3701731 605.028032,27.3701731 C602.314637,27.3701731 599.997481,28.3288852 598.076494,30.2463382 C596.155506,32.1637912 595.195027,34.4766842 595.195027,37.1850866 C595.195027,39.8934889 596.155506,42.2063819 598.076494,44.1238349 C599.997481,46.0412879 602.314637,47 605.028032,47 C607.141118,47 609.056074,46.3828291 610.772956,45.1484687 C612.45382,43.9500606 613.630407,42.3801695 614.302753,40.4387483 C614.494851,39.8994647 614.428819,39.4021328 614.104652,38.9467377 C613.768479,38.4793585 613.318254,38.2456724 612.753964,38.2456724 C611.961557,38.2456724 611.433294,38.6171734 611.169158,39.3601864 C610.724929,40.6424831 609.950543,41.6850825 608.845975,42.488016 C607.705389,43.3149176 606.432754,43.7283622 605.028032,43.7283622 C602.914946,43.7283622 601.210095,42.901473 599.913429,41.2476698 C600.921947,40.7922747 603.125046,39.7976109 606.522793,38.2636485 C609.2602,37.0292881 611.469302,36.0346243 613.150166,35.2796272 C613.570382,35.0878819 613.858526,34.7822924 614.014606,34.3628495 C614.170686,33.9314226 614.152677,33.5119861 613.960579,33.1045273 C613.180177,31.3908037 611.991584,30.012655 610.394764,28.9700399 L610.394764,28.9700399 Z M631.537525,32.6371505 C632.810179,33.9074631 633.446497,35.4414025 633.446497,37.2390146 C633.446497,39.0246427 632.810179,40.5525902 631.537525,41.8229028 C630.276877,43.0932154 628.746113,43.7283622 626.945188,43.7283622 C625.144262,43.7283622 623.607495,43.0932154 622.334841,41.8229028 C621.074193,40.5525902 620.443879,39.0246427 620.443879,37.2390146 C620.443879,35.4414025 621.074193,33.9074631 622.334841,32.6371505 C623.607495,31.3668379 625.144262,30.7316911 626.945188,30.7316911 C628.746113,30.7316911 630.276877,31.3668379 631.537525,32.6371505 L631.537525,32.6371505 Z M619.993649,30.2463382 C618.072662,32.1637912 617.112183,34.4766842 617.112183,37.1850866 C617.112183,39.8934889 618.072662,42.2063819 619.993649,44.1238349 C621.914637,46.0412879 624.231793,47 626.945188,47 C629.658582,47 631.975739,46.0412879 633.896726,44.1238349 C635.817713,42.2063819 636.778193,39.8934889 636.778193,37.1850866 C636.778193,34.4766842 635.817713,32.1637912 633.896726,30.2463382 C631.975739,28.3288852 629.658582,27.3701731 626.945188,27.3701731 C624.231793,27.3701731 621.914637,28.3288852 619.993649,30.2463382 L619.993649,30.2463382 Z" id="viddeo-logo"></path>
            </g>
        </g>
    </g>
</svg>