<?xml version="1.0" encoding="UTF-8"?>
<svg width="116px" height="116px" viewBox="0 0 116 116" version="1.1" xmlns="http://www.w3.org/2000/svg" xmlns:xlink="http://www.w3.org/1999/xlink">
    <!-- Generator: Sketch 42 (36781) - http://www.bohemiancoding.com/sketch -->
    <title>109693</title>
    <desc>Created with Sketch.</desc>
    <defs></defs>
    <g id="Page-1" stroke="none" stroke-width="1" fill="none" fill-rule="evenodd">
        <g id="404" transform="translate(-663.000000, -362.000000)" fill-rule="nonzero" fill="#FFFFFF">
            <g id="109693" transform="translate(663.000000, 362.000000)">
                <g id="Capa_1">
                    <g id="Group">
                        <path d="M98.9590102,16.9969492 C88.0168678,6.06109831 73.4606373,0.0251661017 57.9728678,0 L57.8800678,0 C44.4665356,0 31.3998237,4.68404068 21.0785763,13.1945085 C20.0731119,14.0234169 19.9303729,15.5105763 20.7588881,16.5156475 C21.5877966,17.5211119 23.0749559,17.6638508 24.0800271,16.8353356 C33.5589966,9.01968814 45.5585085,4.71864407 57.8800678,4.71864407 L57.9653966,4.71864407 C87.3299119,4.76583051 111.21962,28.6539661 111.21962,57.9689356 C111.21962,87.3310915 87.3314847,111.219227 57.9693288,111.219227 C28.6394169,111.21962 4.75128136,87.3303051 4.71864407,57.9665763 C4.7115661,51.7568407 5.76146441,45.6756881 7.83884746,39.8922034 C8.27925424,38.6657492 7.64223729,37.3146441 6.41578305,36.8742373 C5.19050847,36.4338305 3.83822373,37.0708475 3.39781695,38.2973017 C1.13562034,44.5955119 -0.00747118644,51.2149831 1.83223682e-13,57.9716881 C0.0353898305,89.9346034 26.0402305,115.938264 57.9689356,115.938264 C89.9334237,115.938264 115.937871,89.9334237 115.937871,57.9693288 C115.938264,42.4902102 109.908231,27.9390915 98.9590102,16.9969492 Z" id="Shape"></path>
                        <path d="M75.0280136,18.4801763 C69.6330305,16.1464136 63.8935864,14.9632136 57.9689356,14.9632136 C34.2553898,14.9632136 14.9632136,34.2557831 14.9632136,57.9689356 C14.9632136,81.6820881 34.2557831,100.975051 57.9689356,100.975051 C81.6820881,100.975051 100.975051,81.6824814 100.975051,57.9689356 C100.975051,56.6661966 99.9184678,55.6096136 98.6157288,55.6096136 L89.9872949,55.6096136 C88.6845559,55.6096136 87.6279729,56.6661966 87.6279729,57.9689356 C87.6279729,59.2716746 88.6845559,60.3282576 89.9872949,60.3282576 L96.1816949,60.3282576 C95.0063593,79.5642034 79.5649898,95.0059661 60.3286508,96.1813017 L60.3286508,89.9869017 C60.3286508,88.6841627 59.2720678,87.6275797 57.9693288,87.6275797 C56.6665898,87.6275797 55.6100068,88.6841627 55.6100068,89.9869017 L55.6100068,96.1813017 C36.374061,95.0059661 20.9322983,79.5645966 19.7569627,60.3282576 L25.9513627,60.3282576 C27.2541017,60.3282576 28.3106847,59.2716746 28.3106847,57.9689356 C28.3106847,56.6661966 27.2541017,55.6096136 25.9513627,55.6096136 L19.7569627,55.6096136 C20.9322983,36.3736678 36.3736678,20.9319051 55.6100068,19.7565695 L55.6100068,25.9509695 C55.6100068,27.2537085 56.6665898,28.3102915 57.9693288,28.3102915 C59.2720678,28.3102915 60.3286508,27.2537085 60.3286508,25.9509695 L60.3286508,19.7557831 C64.7692881,20.0235661 69.0742644,21.045939 73.1551051,22.8111051 C74.3508881,23.3289763 75.7397424,22.7784678 76.2572203,21.5822915 C76.7746983,20.3861153 76.2237966,18.9976542 75.0280136,18.4801763 Z" id="Shape"></path>
                        <path d="M74.7130441,38.1809085 L53.8326508,46.6382915 C52.2058983,47.2336271 50.7140203,48.1797153 49.4525695,49.4411661 C48.372,50.5217356 47.5426983,51.7584136 46.9583729,53.0784542 C46.8993898,53.1787254 46.8447322,53.2825356 46.7995119,53.3934237 L38.1529898,74.7409627 C37.7971254,75.6190237 38.0012068,76.6248814 38.6712542,77.2949288 C39.122278,77.7463458 39.7258712,77.9862102 40.3400814,77.9862102 C40.6377492,77.9862102 40.9381695,77.9295864 41.2248271,77.8139797 L62.5743322,69.1698169 C62.6773559,69.1281356 62.7740881,69.0778034 62.8676746,69.023539 C64.2136678,68.4285966 65.4530983,67.5863186 66.5246237,66.5144 C67.6665356,65.3724881 68.529261,64.0559864 69.1171254,62.6506169 C69.1242034,62.6341017 69.1340339,62.6199458 69.1407186,62.6034305 L77.7848814,41.2539254 C78.1403525,40.3758644 77.9362712,39.3700068 77.2662237,38.6999593 C76.5969627,38.0291254 75.5911051,37.8250441 74.7130441,38.1809085 Z M57.9885966,50.6235797 C59.9531254,50.6235797 61.7996881,51.3883932 63.1885424,52.7776407 C66.0559051,55.6450034 66.0559051,60.3101695 63.1885424,63.1775322 C61.7996881,64.5663864 59.9527322,65.3315932 57.9885966,65.3315932 C56.024461,65.3315932 54.1778983,64.5667797 52.7886508,63.1775322 C49.9212881,60.3101695 49.9212881,55.6450034 52.7886508,52.7776407 C53.4649898,52.1013017 54.2514305,51.5759593 55.1058983,51.2114441 C55.116122,51.2075119 55.1263458,51.2047593 55.1365695,51.2008271 L55.3064407,51.1320136 C56.1502915,50.8013153 57.0554847,50.6235797 57.9885966,50.6235797 Z M47.5658983,64.0693559 C48.0762983,64.9426983 48.7042712,65.7657085 49.4521763,66.5136136 C50.1930034,67.2544407 51.0144407,67.8851661 51.8952542,68.4018576 L44.6179254,71.3486508 L47.5658983,64.0693559 Z M68.3991051,51.8626169 C67.8910644,50.9975322 67.2670237,50.1823864 66.5254102,49.4407729 C65.791661,48.7070237 64.9792678,48.0810169 64.1082847,47.567078 L71.3211254,44.6454508 L68.3991051,51.8626169 Z" id="Shape"></path>
                    </g>
                </g>
            </g>
        </g>
    </g>
</svg>