<?xml version="1.0" encoding="UTF-8" standalone="no"?>
<svg width="18px" height="14px" version="1.1" xmlns="http://www.w3.org/2000/svg" xmlns:xlink="http://www.w3.org/1999/xlink">
    <!-- Generator: Sketch 3.6.1 (26313) - http://www.bohemiancoding.com/sketch -->
    <title>Shape</title>
    <desc>Created with Sketch.</desc>
    <defs></defs>
    <g id="Page-1" stroke="none" stroke-width="1" fill="none" fill-rule="evenodd">
        <path d="M7,6 L7,8.4 L10.97,8.4 C10.81,9.429 9.77,11.42 7,11.42 C4.61,11.42 2.66,9.441 2.66,7 C2.66,4.56 4.61,2.58 7,2.58 C8.36,2.58 9.27,3.16 9.79,3.66 L11.69,1.83 C10.47,0.69 8.89,0 7,0 C3.13,0 0,3.13 0,7 C0,10.87 3.13,14 7,14 C11.04,14 13.721,11.16 13.721,7.16 C13.721,6.7 13.67,6.35 13.61,6 L7,6 L7,6 Z M8,2.6875 L17.5625,3.8125 L15.875,3.8125 L15.875,5.5 L14.75,5.5 L14.75,3.8125 L13.0625,3.8125 L13.0625,2.6875 L14.75,2.6875 L14.75,1 L15.875,1 L15.875,2.6875 L17.5625,2.6875 L17.5625,3.8125 L8,2.6875 Z" id="Shape" fill="#FFFFFF"></path>
    </g>
</svg>