<?xml version="1.0" encoding="UTF-8" standalone="no"?>
<svg width="11px" height="18px" version="1.1" xmlns="http://www.w3.org/2000/svg" xmlns:xlink="http://www.w3.org/1999/xlink" xmlns:sketch="http://www.bohemiancoding.com/sketch/ns">
    <!-- Generator: Sketch 3.4.4 (17249) - http://www.bohemiancoding.com/sketch -->
    <title>tumblr-icon</title>
    <desc>Created with Sketch.</desc>
    <defs></defs>
    <g id="Page-1" stroke="none" stroke-width="1" fill="none" fill-rule="evenodd" sketch:type="MSPage">
        <g id="02_IPSUMTPL_HOME_DESKTOP_MENU" sketch:type="MSArtboardGroup" transform="translate(-919.000000, -473.000000)" fill="#FFFFFF">
            <g id="Big-thumbnail" sketch:type="MSLayerGroup" transform="translate(250.000000, 206.000000)">
                <path d="M672.46099,267 C672.352128,267.88014 672.153598,268.60445 671.86511,269.174089 C671.576953,269.74406 671.194568,270.2317 670.717706,270.638088 C670.240969,271.044351 669.668676,271.356594 669,271.574193 L669,274.007545 L670.870262,274.007545 L670.870262,279.99313 C670.870262,280.77299 670.951805,281.368083 671.115513,281.778575 C671.278847,282.189357 671.572683,282.577214 671.996109,282.941897 C672.419245,283.306622 672.930805,283.587276 673.530872,283.784396 C674.13036,283.981019 674.820095,284.0796 675.600287,284.0796 C676.287701,284.0796 676.927192,284.010577 677.518513,283.872821 C678.109543,283.734567 678.77026,283.494332 679.5,283.150874 L679.5,280.464935 C678.644194,281.027236 677.784035,281.308428 676.919813,281.308428 C676.433292,281.308428 676.000953,281.195297 675.623543,280.968369 C675.33833,280.801097 675.143075,280.576325 675.038151,280.295175 C674.933186,280.014065 674.880993,279.378346 674.880993,278.388183 L674.880993,274.007545 L678.936786,274.007545 L678.936786,271.32629 L674.880993,271.32629 L674.880993,267 L672.46099,267 L672.46099,267 Z" id="tumblr-icon" sketch:type="MSShapeGroup"></path>
            </g>
        </g>
    </g>
</svg>