<?xml version="1.0" encoding="UTF-8" standalone="no"?>
<svg width="18px" height="14px" version="1.1" xmlns="http://www.w3.org/2000/svg" xmlns:xlink="http://www.w3.org/1999/xlink" xmlns:sketch="http://www.bohemiancoding.com/sketch/ns">
    <!-- Generator: Sketch 3.4.3 (16044) - http://www.bohemiancoding.com/sketch -->
    <title>rss-square-rounded-icon-path + rss-square-rounded-icon-path + rss-square-rounded-icon-path</title>
    <desc>Created with Sketch.</desc>
    <defs></defs>
    <g id="Page-1" stroke="none" stroke-width="1" fill="none" fill-rule="evenodd" sketch:type="MSPage">
        <g id="rss-square-rounded-icon-path-+-rss-square-rounded-icon-path-+-rss-square-rounded-icon-path" sketch:type="MSLayerGroup" fill="#FFFFFF">
            <path d="M2.3681432,17.5 C1.06025485,17.5 6.0679612e-05,16.4398058 6.0679612e-05,15.1319175 C6.0679612e-05,13.8240898 1.06031553,12.7639563 2.3681432,12.7639563 C3.67597087,12.7639563 4.73610437,13.8241505 4.73610437,15.1319175 C4.73610437,16.4398665 3.67603155,17.5 2.3681432,17.5 L2.3681432,17.5 Z" id="rss-square-rounded-icon-path" sketch:type="MSShapeGroup"></path>
            <path d="M8.02730583,17.5 C7.98197816,13.093568 4.40643204,9.51808252 6.0679612e-05,9.47281553 L6.0679612e-05,5.96462379 C6.35097087,6.00995146 11.4900485,11.1490898 11.5354976,17.5 L8.02730583,17.5 L8.02730583,17.5 Z" id="rss-square-rounded-icon-path" sketch:type="MSShapeGroup"></path>
            <path d="M13.9698422,17.5 C13.959284,13.7669296 12.5010922,10.2587985 9.8601335,7.61796117 C7.22445388,4.98222087 3.72493932,3.52475728 0,3.50855583 L0,0 C9.64532767,0.0337378641 17.4563714,7.85200243 17.4783374,17.5 L13.9698422,17.5 L13.9698422,17.5 Z" id="rss-square-rounded-icon-path" sketch:type="MSShapeGroup"></path>
        </g>
    </g>
</svg>