<?xml version="1.0" encoding="UTF-8"?>
<svg width="116px" height="116px" viewBox="0 0 116 116" version="1.1" xmlns="http://www.w3.org/2000/svg" xmlns:xlink="http://www.w3.org/1999/xlink">
    <!-- Generator: Sketch 42 (36781) - http://www.bohemiancoding.com/sketch -->
    <title>182495</title>
    <desc>Created with Sketch.</desc>
    <defs></defs>
    <g id="Page-1" stroke="none" stroke-width="1" fill="none" fill-rule="evenodd">
        <g id="user_account" transform="translate(-664.000000, -307.000000)" fill-rule="nonzero" fill="#FFFFFF">
            <g id="182495" transform="translate(664.000000, 307.000000)">
                <g id="Layer_1">
                    <g id="Group">
                        <path d="M71.5230625,42.517625 C72.5901719,42.517625 73.4563203,41.6514766 73.4563203,40.5843672 L73.4545078,36.717625 C73.4524687,35.6505156 72.5883594,34.7861797 71.52125,34.7861797 L71.5192109,34.7861797 C70.4521016,34.7861797 69.5859531,35.6523281 69.5877656,36.7194375 L69.5898047,40.5861797 C69.5898047,41.6535156 70.4539141,42.517625 71.5230625,42.517625 Z" id="Shape"></path>
                        <path d="M59.1264688,43.1112187 C59.4126172,43.8962578 60.1530234,44.3833672 60.9419141,44.3833672 C61.1623594,44.3833672 61.3866563,44.3466641 61.6030234,44.2653281 C62.6064688,43.8998828 63.1225781,42.7922187 62.7571328,41.7887734 L61.4346875,38.1560703 C61.0692422,37.152625 59.9556875,36.6326641 58.9560938,37.0019609 C57.9526484,37.3674062 57.4365391,38.4750703 57.8019844,39.4785156 L59.1264688,43.1112187 Z" id="Shape"></path>
                        <path d="M81.4431016,44.2673672 C81.6615078,44.3466641 81.8839922,44.3854063 82.1023984,44.3854063 C82.8931016,44.3854063 83.6355469,43.8962578 83.9196562,43.1114453 L85.2400625,39.4767031 C85.6034687,38.4732578 85.0853203,37.3655938 84.0821016,37.0001484 C83.0825078,36.6347031 81.9709922,37.1548906 81.6055469,38.1581094 L80.2851406,41.7908125 C79.9215078,42.7940313 80.4396562,43.9037344 81.4431016,44.2673672 Z" id="Shape"></path>
                        <path d="M50.1577656,49.0639219 C50.5406563,49.5202187 51.0878047,49.7540312 51.6388047,49.7540312 C52.0776563,49.7540312 52.5185469,49.6069922 52.8819531,49.3015859 C53.6978047,48.6153281 53.8061016,47.3952891 53.1178047,46.577625 L50.6315078,43.6175859 C49.94525,42.7996953 48.72725,42.6934375 47.9075469,43.3796953 C47.0896563,44.0659531 46.9833984,45.2859922 47.6716953,46.1036562 L50.1577656,49.0639219 Z" id="Shape"></path>
                        <path d="M36.9145078,67.3803672 L40.7212109,68.0512188 C40.8333594,68.0704766 40.9455078,68.0802188 41.0576563,68.0802188 C41.9779531,68.0802188 42.7938047,67.4191094 42.9601016,66.4813672 C43.1438438,65.4296641 42.4419531,64.4282578 41.39025,64.2424766 L37.5835469,63.571625 C36.5336562,63.3840313 35.5304375,64.0877344 35.3446562,65.1414766 C35.1609141,66.1931797 35.8628047,67.1945859 36.9145078,67.3803672 Z" id="Shape"></path>
                        <path d="M10.6482109,43.4592187 C1.6040625,34.4130312 1.6040625,19.694625 10.6482109,10.6486641 C19.6962109,1.60270312 34.4146172,1.60451562 43.4569531,10.646625 L57.9066563,25.1563672 C58.6606563,25.9124062 59.8863594,25.9162578 60.6403594,25.1622578 C61.3963984,24.4082578 61.3982109,23.1843672 60.64625,22.4265156 L46.1926953,7.91496094 C35.6405469,-2.6371875 18.4686953,-2.639 7.91473438,7.91496094 C-2.63741406,18.4689219 -2.63741406,35.6389609 7.91473438,46.1929219 L22.3954766,60.6736641 C22.7724766,61.0506641 23.2675156,61.2400703 23.7623281,61.2400703 C24.2573672,61.2400703 24.7521797,61.0506641 25.1291797,60.6736641 C25.8852188,59.9178516 25.8852188,58.6939609 25.1291797,57.9399609 L10.6482109,43.4592187 Z" id="Shape"></path>
                        <path d="M100.082172,66.4852187 C100.248469,67.4229609 101.062281,68.0822578 101.984617,68.0822578 C102.094727,68.0822578 102.208914,68.0725156 102.321063,68.0532578 L106.127766,67.3803672 C107.179469,67.1948125 107.881359,66.1913672 107.695805,65.1396641 C107.51025,64.0879609 106.500914,63.3860703 105.455102,63.571625 L101.650211,64.2445156 C100.598508,64.4300703 99.8966172,65.4335156 100.082172,66.4852187 Z" id="Shape"></path>
                        <path d="M29.4556172,48.8126641 C30.2173203,48.0663672 30.228875,46.8406641 29.4807656,46.0789609 L18.8513594,35.2560703 C14.3293984,30.7341094 14.3293984,23.3737734 18.8513594,18.8518125 C23.3753594,14.3278125 30.7354688,14.3298516 35.2692109,18.8633672 L46.0998047,29.5004766 C46.8615078,30.2467734 48.0833594,30.2370313 48.8335078,29.4753281 C49.5816172,28.713625 49.5700625,27.4897344 48.8083594,26.741625 L37.9913594,16.1178828 C31.9613984,10.0879219 22.1476172,10.0879219 16.1176563,16.1178828 C10.0876953,22.1478438 10.0876953,31.9595859 16.1061016,37.9779922 L26.7221406,48.7891016 C27.1011797,49.1738047 27.5998438,49.3670625 28.1005469,49.3670625 C28.5894688,49.3675156 29.0786172,49.1837734 29.4556172,48.8126641 Z" id="Shape"></path>
                        <path d="M98.3131719,57.9861797 C98.6419141,57.9861797 98.9742813,57.9030313 99.277875,57.7272188 L102.626469,55.7939609 C103.550617,55.2604063 103.867578,54.0770703 103.332211,53.1529219 C102.798656,52.2287734 101.61532,51.9079609 100.693211,52.4453672 L97.3446172,54.378625 C96.4204688,54.9121797 96.1035078,56.0955156 96.6370625,57.0196641 C96.9948047,57.6402188 97.6443594,57.9861797 98.3131719,57.9861797 Z" id="Shape"></path>
                        <path d="M90.1641719,49.3056641 C90.5275781,49.6092578 90.9684688,49.7560703 91.4052813,49.7560703 C91.9580938,49.7560703 92.5072813,49.5220312 92.8881328,49.0659609 L95.3723906,46.1041094 C96.0568359,45.2844062 95.9485391,44.0643672 95.1326875,43.3781094 C94.3109453,42.6918516 93.0929453,42.8001484 92.4066875,43.6178125 L89.9242422,46.5817031 C89.24025,47.3993672 89.3465078,48.6191797 90.1641719,49.3056641 Z" id="Shape"></path>
                        <path d="M40.4158047,55.7937344 L43.7662109,57.7251797 C44.0698047,57.9012188 44.4021719,57.9841406 44.7291016,57.9841406 C45.3981406,57.9841406 46.0476953,57.6379531 46.4052109,57.0173984 C46.9387656,56.0912109 46.6218047,54.9101406 45.6976563,54.3763594 L42.34725,52.4449141 C41.4212891,51.9093203 40.2399922,52.2283203 39.70825,53.1545078 C39.1744688,54.0788828 39.4916563,55.2601797 40.4158047,55.7937344 Z" id="Shape"></path>
                        <path d="M42.9601016,76.5538828 C42.7745469,75.5021797 41.7690625,74.8061797 40.7193984,74.9858438 L36.9126953,75.6587344 C35.8609922,75.8442891 35.1611406,76.8456953 35.3446563,77.897625 C35.5109531,78.8371797 36.3268047,79.4964766 37.2471016,79.4964766 C37.35925,79.4964766 37.4713984,79.4867344 37.5853594,79.4654375 L41.3920625,78.7945859 C42.4437656,78.6090313 43.1436172,77.6055859 42.9601016,76.5538828 Z" id="Shape"></path>
                        <path d="M71.52125,46.3882188 C57.6612891,46.3882188 46.3879922,57.6615156 46.3879922,71.5214766 C46.3879922,85.379625 57.6612891,96.6547344 71.52125,96.6547344 C85.3793984,96.6547344 96.6545078,85.379625 96.6545078,71.5214766 C96.6545078,57.6615156 85.3791719,46.3882188 71.52125,46.3882188 Z M71.52125,92.7882188 C59.7936953,92.7882188 50.2545078,83.2472188 50.2545078,71.5214766 C50.2545078,60.4473281 58.7651016,51.333625 69.5877656,50.3514766 L69.5877656,59.9214766 C69.5877656,60.9885859 70.451875,61.8547344 71.5210234,61.8547344 C72.5881328,61.8547344 73.4542812,60.9885859 73.4542812,59.9214766 L73.4542812,50.3514766 C84.2751328,51.333625 92.7875391,60.4473281 92.7875391,71.5214766 C92.7877656,83.2472188 83.2467656,92.7882188 71.52125,92.7882188 Z" id="Shape"></path>
                        <path d="M92.8863203,93.9751797 C92.2000625,93.1554766 90.9800234,93.0510313 90.1623594,93.7354766 C89.3444687,94.4217344 89.2382109,95.6417734 89.9244687,96.4594375 L92.4087266,99.4212891 C92.7916172,99.8775859 93.3387656,100.111398 93.8915781,100.111398 C94.3304297,100.111398 94.7713203,99.9625469 95.1326875,99.6589531 C95.9505781,98.9726953 96.0568359,97.7526563 95.3705781,96.9368047 L92.8863203,93.9751797 Z" id="Shape"></path>
                        <path d="M71.52125,27.0547344 C47.0026562,27.0547344 27.0545078,47.0008437 27.0545078,71.5214766 C27.0545078,96.0400703 47.0026562,115.988219 71.52125,115.988219 C96.0398437,115.988219 115.987992,96.0400703 115.987992,71.5214766 C115.987766,47.0010703 96.0396172,27.0547344 71.52125,27.0547344 Z M71.52125,112.121477 C49.13325,112.121477 30.92125,93.9074375 30.92125,71.5214766 C30.92125,49.1334766 49.13325,30.9214766 71.52125,30.9214766 C93.9072109,30.9214766 112.12125,49.1334766 112.12125,71.5214766 C112.121023,93.9076641 93.9072109,112.121477 71.52125,112.121477 Z" id="Shape"></path>
                        <path d="M106.127766,75.6587344 L102.321063,74.9878828 C101.263469,74.8061797 100.265914,75.5039922 100.082172,76.5559219 C99.8966172,77.6058125 100.598281,78.6090313 101.650211,78.7948125 L105.455102,79.4656641 C105.571102,79.4869609 105.68325,79.4967031 105.793359,79.4967031 C106.715469,79.4967031 107.53132,78.8355938 107.695805,77.8978516 C107.881359,76.8459219 107.179469,75.8445156 106.127766,75.6587344 Z" id="Shape"></path>
                        <path d="M102.626469,87.2453672 L99.277875,85.3121094 C98.349875,84.7785547 97.1706172,85.0955156 96.6368359,86.0217031 C96.1032812,86.9458516 96.4202422,88.1271484 97.3443906,88.6627422 L100.692984,90.5941875 C100.996578,90.7702266 101.328945,90.8531484 101.657687,90.8531484 C102.324687,90.8531484 102.974242,90.5071875 103.333797,89.8864062 C103.867805,88.9620312 103.550617,87.7789219 102.626469,87.2453672 Z" id="Shape"></path>
                        <path d="M43.7623594,85.3118828 L40.4158047,87.2451406 C39.4898437,87.7786953 39.1746953,88.9620312 39.70825,89.8861797 C40.0659922,90.5067344 40.7155469,90.8529219 41.3843594,90.8529219 C41.7110625,90.8529219 42.0454687,90.7697734 42.3490625,90.5939609 L45.6956172,88.6607031 C46.6215781,88.1271484 46.9367266,86.9438125 46.4031719,86.0196641 C45.8696172,85.0955156 44.6844687,84.7744766 43.7623594,85.3118828 Z" id="Shape"></path>
                        <path d="M83.9176172,99.9278828 C83.5521719,98.922625 82.4406562,98.4062891 81.4410625,98.7717344 C80.4376172,99.1371797 79.9194687,100.244844 80.2831016,101.248289 L81.6055469,104.880992 C81.8916953,105.667844 82.6321016,106.154953 83.4228047,106.154953 C83.64325,106.154953 83.8655078,106.11825 84.0839141,106.038953 C85.0873594,105.673508 85.6034688,104.563805 85.2400625,103.560359 L83.9176172,99.9278828 Z" id="Shape"></path>
                        <path d="M52.8781016,93.7354766 C52.0602109,93.0492187 50.8403984,93.1534375 50.1541406,93.9733672 L47.6698828,96.9372578 C46.983625,97.7531094 47.0898828,98.9731484 47.9095859,99.6594062 C48.2711797,99.963 48.7118438,100.111852 49.1506953,100.111852 C49.7016953,100.111852 50.2506563,99.8778125 50.6335469,99.4217422 L53.1178047,96.4578516 C53.8040625,95.6417734 53.6957656,94.4217344 52.8781016,93.7354766 Z" id="Shape"></path>
                        <path d="M71.52125,100.521477 C70.4521016,100.521477 69.5879922,101.385586 69.5879922,102.454734 L69.5879922,106.321477 C69.5879922,107.388586 70.4521016,108.254734 71.52125,108.254734 C72.5883594,108.254734 73.4545078,107.388586 73.4545078,106.321477 L73.4545078,102.454734 C73.4545078,101.385586 72.5883594,100.521477 71.52125,100.521477 Z" id="Shape"></path>
                        <path d="M61.6012109,98.7699219 C60.6036562,98.4103672 59.4901016,98.922625 59.1226172,99.9260703 L57.8022109,103.560812 C57.4367656,104.564258 57.9549141,105.673961 58.9583594,106.039406 C59.1749531,106.118703 59.39925,106.157445 59.6176562,106.157445 C60.4083594,106.157445 61.1487656,105.668297 61.4349141,104.883484 L62.7573594,101.248742 C63.1207656,100.24507 62.6046562,99.1353672 61.6012109,98.7699219 Z" id="Shape"></path>
                    </g>
                </g>
            </g>
        </g>
    </g>
</svg>