<?xml version="1.0" encoding="UTF-8"?>
<svg width="12px" height="15px" viewBox="0 0 12 15" version="1.1" xmlns="http://www.w3.org/2000/svg" xmlns:xlink="http://www.w3.org/1999/xlink">
    <!-- Generator: Sketch 42 (36781) - http://www.bohemiancoding.com/sketch -->
    <title>Shape</title>
    <desc>Created with Sketch.</desc>
    <defs></defs>
    <g id="Page-1" stroke="none" stroke-width="1" fill="none" fill-rule="evenodd">
        <g id="user_account" transform="translate(-746.000000, -581.000000)" fill-rule="nonzero" fill="#E2E2E2">
            <g id="box1" transform="translate(387.000000, 242.000000)">
                <g id="password" transform="translate(344.000000, 327.000000)">
                    <path d="M26.6890909,19.1164552 C26.4952364,18.9175746 26.26,18.818209 25.9830182,18.818209 L25.6509818,18.818209 L25.6509818,16.7726493 C25.6509818,15.4658582 25.1942909,14.343806 24.2806182,13.406306 C23.3670182,12.4687687 22.2736364,12 20.9999273,12 C19.7262545,12 18.6326545,12.4687687 17.7191273,13.4062687 C16.8054545,14.343806 16.3487636,15.4658209 16.3487636,16.7726493 L16.3487636,18.818209 L16.0165818,18.818209 C15.7398182,18.818209 15.5044364,18.9175746 15.3106182,19.1164552 C15.1168,19.3151866 15.0199273,19.5567164 15.0199273,19.8409701 L15.0199273,25.9772388 C15.0199273,26.2612313 15.1168364,26.5028358 15.3106182,26.7017537 C15.5044364,26.9004478 15.7398182,26.9999254 16.0165818,26.9999254 L25.9832727,26.9999254 C26.2602545,26.9999254 26.4954545,26.9005597 26.6893455,26.7017537 C26.8829818,26.5028358 26.9800364,26.2612313 26.9800364,25.9772388 L26.9800364,19.8408582 C26.9801818,19.5568284 26.8829818,19.3153358 26.6890909,19.1164552 Z M23.6577091,18.818209 L18.3421455,18.818209 L18.3421455,16.7726493 C18.3421455,16.0198507 18.6017455,15.3770522 19.1208364,14.8444776 C19.64,14.3118284 20.2663273,14.0455597 21.0000364,14.0455597 C21.7338182,14.0455597 22.36,14.311791 22.8792,14.8444776 C23.3981455,15.3770149 23.6577091,16.0198507 23.6577091,16.7726493 L23.6577091,18.818209 Z" id="Shape"></path>
                </g>
            </g>
        </g>
    </g>
</svg>