<?xml version="1.0" encoding="UTF-8" standalone="no"?>
<svg width="15px" height="15px" version="1.1" xmlns="http://www.w3.org/2000/svg" xmlns:xlink="http://www.w3.org/1999/xlink" xmlns:sketch="http://www.bohemiancoding.com/sketch/ns">
    <!-- Generator: Sketch 3.4.4 (17249) - http://www.bohemiancoding.com/sketch -->
    <title>icon_instagram</title>
    <desc>Created with Sketch.</desc>
    <defs></defs>
    <g id="Page-1" stroke="none" stroke-width="1" fill="none" fill-rule="evenodd" sketch:type="MSPage">
        <g id="icon_instagram" sketch:type="MSLayerGroup" fill="#FFFFFF">
            <g id="Page-1" sketch:type="MSShapeGroup">
                <g id="02_IPSUMTPL_HOME_DESKTOP_MENU">
                    <g id="Big-thumbnail">
                        <path d="M13.2697167,6.34556167 L11.9638033,6.34556167 C12.0589367,6.71491917 12.1151142,7.10080583 12.1151142,7.49965417 C12.1151142,10.0490417 10.0488958,12.1151875 7.50001833,12.1151875 C4.95114083,12.1151875 2.88484917,10.0490417 2.88484917,7.49965417 C2.88484917,7.10080583 2.941245,6.7148825 3.03637833,6.34556167 L1.730465,6.34556167 L1.730465,12.6921058 C1.730465,13.0103833 1.98881583,13.268515 2.30789417,13.268515 L12.6921058,13.268515 C13.0112575,13.268515 13.26968,13.0103833 13.26968,12.6921058 L13.26968,6.34556167 L13.2697167,6.34556167 L13.2697167,6.34556167 Z M13.2697167,2.30742083 C13.2697167,1.98885167 13.0112575,1.73050167 12.6921425,1.73050167 L10.9618225,1.73050167 C10.6430358,1.73050167 10.3849042,1.98885167 10.3849042,2.30742083 L10.3849042,4.0384325 C10.3849042,4.3567825 10.6430358,4.61535083 10.9618225,4.61535083 L12.6921425,4.61535083 C13.0112933,4.61535083 13.2697167,4.3567825 13.2697167,4.0384325 L13.2697167,2.30742083 L13.2697167,2.30742083 L13.2697167,2.30742083 Z M7.50001833,4.61535083 C5.90670083,4.61535083 4.615315,5.9064825 4.615315,7.49969083 C4.615315,9.0927525 5.9067375,10.3846492 7.50001833,10.3846492 C9.09318917,10.3846492 10.3848675,9.0927525 10.3848675,7.49969083 C10.3848675,5.90644667 9.09318917,4.61535083 7.50001833,4.61535083 L7.50001833,4.61535083 L7.50001833,4.61535083 Z M13.2697167,14.9999633 L1.730465,14.9999633 C0.774905,14.9999633 0,14.2248767 0,13.268515 L0,1.73050167 C0,0.77465 0.774905,0 1.730465,0 L13.26968,0 C14.2253867,0 15,0.77465 15,1.73050167 L15,13.268515 C15.0000367,14.2248767 14.2254225,14.9999633 13.2697167,14.9999633 L13.2697167,14.9999633 L13.2697167,14.9999633 Z" id="instagram-6-icon"></path>
                    </g>
                </g>
            </g>
        </g>
    </g>
</svg>