<?xml version="1.0" encoding="UTF-8" standalone="no"?>
<svg width="15px" height="18px" version="1.1" xmlns="http://www.w3.org/2000/svg" xmlns:xlink="http://www.w3.org/1999/xlink" xmlns:sketch="http://www.bohemiancoding.com/sketch/ns">
    <!-- Generator: Sketch 3.4.4 (17249) - http://www.bohemiancoding.com/sketch -->
    <title>youtube-icon</title>
    <desc>Created with Sketch.</desc>
    <defs></defs>
    <g id="Page-1" stroke="none" stroke-width="1" fill="none" fill-rule="evenodd" sketch:type="MSPage">
        <g id="02_IPSUMTPL_HOME_DESKTOP_MENU" sketch:type="MSArtboardGroup" transform="translate(-1075.000000, -473.000000)" fill="#FFFFFF">
            <path d="M1077.20052,473 L1078.23971,473 L1078.95112,475.669971 L1079.61223,473 L1080.6605,473 L1079.45977,476.9704 L1079.45977,479.679653 L1078.42801,479.679653 L1078.42801,476.9704 L1077.20052,473 L1077.20052,473 Z M1080.61378,478.45073 C1080.61378,479.319055 1081.06752,479.771116 1081.95606,479.771116 C1082.69288,479.771116 1083.27317,479.278345 1083.27317,478.45073 L1083.27317,476.035442 C1083.27317,475.264209 1082.69868,474.711653 1081.95606,474.711653 C1081.14924,474.711653 1080.61378,475.244841 1080.61378,476.035442 L1080.61378,478.45073 L1080.61378,478.45073 Z M1081.55656,476.116695 C1081.55656,475.847014 1081.68075,475.646822 1081.93808,475.646822 C1082.21906,475.646822 1082.33926,475.841006 1082.33926,476.116695 L1082.33926,478.408717 C1082.33926,478.67697 1082.20255,478.87523 1081.95602,478.87523 C1081.70301,478.87523 1081.55656,478.668273 1081.55656,478.408717 L1081.55656,476.116695 L1081.55656,476.116695 Z M1085.74967,474.752196 L1085.74967,478.492407 C1085.63804,478.632226 1085.38966,478.861407 1085.21102,478.861407 C1085.01498,478.861407 1084.96696,478.727554 1084.96696,478.52942 L1084.96696,474.752196 L1084.05083,474.752196 L1084.05083,478.870692 C1084.05083,479.357455 1084.19968,479.750823 1084.69077,479.750823 C1084.96797,479.750823 1085.35269,479.606593 1085.74962,479.135711 L1085.74962,479.679653 L1086.66576,479.679653 L1086.66576,474.752196 L1085.74967,474.752196 L1085.74967,474.752196 Z M1084.40206,484.853307 C1084.46424,484.935401 1084.49533,485.0556 1084.49533,485.213905 L1084.49533,487.636881 C1084.49533,487.78649 1084.47008,487.894295 1084.41979,487.960298 C1084.32362,488.086169 1084.11536,488.080455 1083.9734,488.008571 C1083.90664,487.97496 1083.83782,487.919923 1083.76686,487.843627 L1083.76686,484.919226 C1083.82606,484.85482 1083.88597,484.807093 1083.94672,484.776255 C1084.09944,484.698951 1084.29656,484.713992 1084.40206,484.853307 L1084.40206,484.853307 Z M1087.33915,484.747014 C1087.01586,484.747014 1086.94939,484.974515 1086.94939,485.297007 L1086.94939,485.772048 L1087.7202,485.772048 L1087.7202,485.297007 C1087.72016,484.979851 1087.6529,484.747014 1087.33915,484.747014 L1087.33915,484.747014 Z M1090,488.208721 C1090,489.368869 1089.0595,490.309373 1087.89935,490.309373 L1077.10065,490.309373 C1075.9405,490.309373 1075,489.368869 1075,488.208721 L1075,482.901802 C1075,481.741611 1075.9405,480.801149 1077.10065,480.801149 L1087.89931,480.801149 C1089.05945,480.801149 1089.99996,481.741611 1089.99996,482.901802 L1089.99996,488.208721 L1090,488.208721 Z M1078.5396,483.298573 L1079.5561,483.298573 L1079.5561,482.37521 L1076.54049,482.37521 L1076.54049,483.298573 L1077.557,483.298573 L1077.557,488.736741 L1078.5396,488.736741 L1078.5396,483.298573 L1078.5396,483.298573 Z M1082.03466,484.04401 L1081.16214,484.04401 L1081.16214,487.606086 C1081.05568,487.739435 1080.81918,487.957525 1080.64912,487.957525 C1080.46249,487.957525 1080.41674,487.830099 1080.41674,487.641293 L1080.41674,484.04401 L1079.54421,484.04401 L1079.54421,487.966306 C1079.54421,488.918489 1080.18983,488.924329 1080.66012,488.654941 C1080.8341,488.555118 1081.00131,488.409627 1081.16214,488.21872 L1081.16214,488.736741 L1082.03466,488.736741 L1082.03466,484.04401 L1082.03466,484.04401 Z M1085.39327,485.161053 C1085.39327,484.524555 1085.18165,483.98473 1084.54263,483.98473 C1084.23106,483.98473 1083.96373,484.183325 1083.76686,484.42322 L1083.76686,482.37521 L1082.88585,482.37521 L1082.88585,488.736741 L1083.76686,488.736741 L1083.76686,488.376017 C1084.01007,488.679309 1084.2761,488.796063 1084.59557,488.796063 C1085.1761,488.796063 1085.39327,488.345137 1085.39327,487.764433 L1085.39327,485.161053 L1085.39327,485.161053 Z M1088.61811,485.305662 C1088.61811,484.457502 1088.21365,483.925407 1087.37662,483.925407 C1086.58955,483.925407 1086.0514,484.491029 1086.0514,485.305662 L1086.0514,487.412027 C1086.0514,488.256784 1086.47746,488.863872 1087.31058,488.863872 C1088.22999,488.863872 1088.61811,488.316274 1088.61811,487.412027 L1088.61811,487.059538 L1087.72016,487.059538 L1087.72016,487.385685 C1087.72016,487.794262 1087.69869,488.042139 1087.33041,488.042139 C1086.97914,488.042139 1086.94939,487.737713 1086.94939,487.385685 L1086.94939,486.500429 L1088.61815,486.500429 L1088.61815,485.305662 L1088.61811,485.305662 Z" id="youtube-icon" sketch:type="MSShapeGroup"></path>
        </g>
    </g>
</svg>