<?xml version="1.0" encoding="UTF-8" standalone="no"?>
<svg width="17px" height="14px" version="1.1" xmlns="http://www.w3.org/2000/svg" xmlns:xlink="http://www.w3.org/1999/xlink" xmlns:sketch="http://www.bohemiancoding.com/sketch/ns">
    <!-- Generator: Sketch 3.4.3 (16044) - http://www.bohemiancoding.com/sketch -->
    <title>twitter-3-icon-path</title>
    <desc>Created with Sketch.</desc>
    <defs></defs>
    <g id="Page-1" stroke="none" stroke-width="1" fill="none" fill-rule="evenodd" sketch:type="MSPage">
        <path d="M14.9230583,3.36492718 C15.1386529,8.1621966 11.5609223,13.5107403 5.22839806,13.5107403 C3.30224515,13.5107403 1.50940534,12.9461165 0,11.9783981 C1.8095267,12.1916869 3.61565534,11.6896845 5.04963592,10.5658981 C3.55716019,10.5384102 2.29745146,9.5523665 1.86347087,8.19726942 C2.39793689,8.29945388 2.92372573,8.26947816 3.40370146,8.13889563 C1.76353155,7.8092233 0.631128641,6.33161408 0.668082524,4.75139563 C1.12785194,5.00691748 1.65382282,5.16037621 2.21298544,5.17809466 C0.693932039,4.16292476 0.263956311,2.15709951 1.15740291,0.624393204 C2.83962379,2.68786408 5.3529733,4.04581311 8.18756068,4.18804612 C7.69004854,2.05455097 9.30855583,0 11.5100728,0 C12.4911408,0 13.3775485,0.41413835 13.9996966,1.07706311 C14.7766383,0.924150485 15.5065534,0.640291262 16.1655947,0.249453883 C15.9109223,1.04593447 15.370085,1.71432039 14.6658981,2.13646845 C15.3558252,2.05412621 16.0132282,1.87075243 16.6248786,1.5993932 C16.1677184,2.28337379 15.5895631,2.88410194 14.9230583,3.36492718 L14.9230583,3.36492718 Z" id="twitter-3-icon-path" fill="#FFFFFF" sketch:type="MSShapeGroup"></path>
    </g>
</svg>