<?xml version="1.0" encoding="UTF-8" standalone="no"?>
<svg width="14px" height="14px" version="1.1" xmlns="http://www.w3.org/2000/svg" xmlns:xlink="http://www.w3.org/1999/xlink" xmlns:sketch="http://www.bohemiancoding.com/sketch/ns">
    <!-- Generator: Sketch 3.4.3 (16044) - http://www.bohemiancoding.com/sketch -->
    <title>pinterest-square-rounded-icon-path</title>
    <desc>Created with Sketch.</desc>
    <defs></defs>
    <g id="Page-1" stroke="none" stroke-width="1" fill="none" fill-rule="evenodd" sketch:type="MSPage">
        <path d="M8.12378641,12.6473908 C7.03841019,12.6473908 6.01765777,12.0606189 5.66850728,11.3944782 C5.66850728,11.3944782 5.08458738,13.7103155 4.96134709,14.1575243 C4.52615291,15.7368325 3.24581311,17.3174757 3.14654126,17.4469053 C3.07718447,17.5370146 2.92396845,17.5086772 2.90782767,17.3894417 C2.88009709,17.1882282 2.55382282,15.195267 2.93792476,13.5695388 C3.13076456,12.7532767 4.23082524,8.09217233 4.23082524,8.09217233 C4.23082524,8.09217233 3.91019417,7.45036408 3.91019417,6.50163835 C3.91019417,5.01195388 4.77372573,3.89987864 5.84872573,3.89987864 C6.76274272,3.89987864 7.20449029,4.58616505 7.20449029,5.4089199 C7.20449029,6.32809466 6.61923544,7.70230583 6.31699029,8.97578883 C6.06474515,10.042415 6.85182039,10.9120752 7.90351942,10.9120752 C9.80764563,10.9120752 11.0903519,8.46589806 11.0903519,5.56759709 C11.0903519,3.3648665 9.60728155,1.7154733 6.90800971,1.7154733 C3.8595267,1.7154733 1.9589199,3.98950243 1.9589199,6.52979369 C1.9589199,7.40533981 2.21765777,8.02348301 2.62245146,8.50103155 C2.80825243,8.72075243 2.83428398,8.80916262 2.76699029,9.06128641 C2.71796117,9.24648058 2.60807039,9.69156553 2.56158981,9.86796117 C2.49484223,10.1228762 2.28859223,10.2136529 2.05843447,10.1195388 C0.654550971,9.54629854 0,8.00819175 0,6.27930825 C0,3.42402913 2.40813107,0 7.18379854,0 C11.0220267,0 13.5475121,2.77675971 13.5475121,5.75849515 C13.5474515,9.70163835 11.3551578,12.6473908 8.12378641,12.6473908 L8.12378641,12.6473908 Z" id="pinterest-square-rounded-icon-path" fill="#FFFFFF" sketch:type="MSShapeGroup"></path>
    </g>
</svg>