<?xml version="1.0" encoding="UTF-8" standalone="no"?>
<svg width="14px" height="11px" version="1.1" xmlns="http://www.w3.org/2000/svg" xmlns:xlink="http://www.w3.org/1999/xlink" xmlns:sketch="http://www.bohemiancoding.com/sketch/ns">
    <!-- Generator: Sketch 3.4.3 (16044) - http://www.bohemiancoding.com/sketch -->
    <title>eye-icon</title>
    <desc>Created with Sketch.</desc>
    <defs></defs>
    <g id="Page-1" stroke="none" stroke-width="1" fill="none" fill-rule="evenodd" sketch:type="MSPage">
        <g id="01_IPSUMTPL_HOME_DESKTOP" sketch:type="MSArtboardGroup" transform="translate(-579.000000, -871.000000)" fill="#697272">
            <g id="Medium-thumbnails" sketch:type="MSLayerGroup" transform="translate(248.000000, 689.000000)">
                <g id="thumbnail_2" transform="translate(315.000000, 0.000000)" sketch:type="MSShapeGroup">
                    <g id="social" transform="translate(16.000000, 179.000000)">
                        <path d="M8.40562914,8.12161342 C8.40562914,8.92404058 7.75519868,9.57442799 6.95281457,9.57442799 C6.15043046,9.57442799 5.5,8.92404058 5.5,8.12161342 C5.5,7.31922932 6.15043046,6.66879885 6.95281457,6.66879885 C7.75519868,6.66879885 8.40562914,7.31922932 8.40562914,8.12161342 L8.40562914,8.12161342 Z M14,7.77285838 C14,7.77285838 11.5194175,13.1999998 7.00849515,13.1999998 C2.82038835,13.1999998 0,7.77285838 0,7.77285838 C0,7.77285838 2.59383981,3 7.00849515,3 C11.4967864,3 14,7.77285838 14,7.77285838 L14,7.77285838 Z M10.3874172,8.12161342 C10.3874172,6.2196962 8.84562583,4.67790481 6.94370861,4.67790481 C5.04179139,4.67790481 3.5,6.2196962 3.5,8.12161342 C3.5,10.0235737 5.04179139,11.565322 6.94370861,11.565322 C8.84562583,11.565322 10.3874172,10.0235737 10.3874172,8.12161342 L10.3874172,8.12161342 Z" id="eye-icon"></path>
                    </g>
                </g>
            </g>
        </g>
    </g>
</svg>