<?xml version="1.0" encoding="UTF-8"?>
<svg width="17px" height="17px" viewBox="0 0 17 17" version="1.1" xmlns="http://www.w3.org/2000/svg" xmlns:xlink="http://www.w3.org/1999/xlink">
    <!-- Generator: Sketch 41.2 (35397) - http://www.bohemiancoding.com/sketch -->
    <title>Shape</title>
    <desc>Created with Sketch.</desc>
    <defs></defs>
    <g id="Page-1" stroke="none" stroke-width="1" fill="none" fill-rule="evenodd">
        <g id="iPhone-7-Copy-4" transform="translate(-81.000000, -616.000000)" fill="#FFFFFF">
            <g id="faq" transform="translate(81.000000, 613.000000)">
                <path d="M8.5,4.41666667 C12.40575,4.41666667 15.5833333,7.59425 15.5833333,11.5 C15.5833333,15.40575 12.40575,18.5833333 8.5,18.5833333 C4.59425,18.5833333 1.41666667,15.40575 1.41666667,11.5 C1.41666667,7.59425 4.59425,4.41666667 8.5,4.41666667 Z M8.5,3 C3.805875,3 0,6.805875 0,11.5 C0,16.194125 3.805875,20 8.5,20 C13.194125,20 17,16.194125 17,11.5 C17,6.805875 13.194125,3 8.5,3 Z M7.05995833,14.3404167 C7.45945833,13.0732083 8.21595833,11.55525 8.34983333,11.1713333 C8.54320833,10.613875 8.200375,10.3666667 7.11733333,11.319375 L6.8765,10.8660417 C8.11183333,9.52233333 10.6554583,9.21845833 9.789875,11.30025 C9.24941667,12.6000417 8.86266667,13.4776667 8.64166667,14.1548333 C8.319375,15.1415417 9.13325,14.7413333 9.930125,14.005375 C10.0385,14.1824583 10.0739167,14.2398333 10.1822917,14.4438333 C8.412875,16.12825 6.44866667,16.277 7.05995833,14.3404167 L7.05995833,14.3404167 Z M10.418875,8.55404167 C10.0420417,8.87491667 9.483875,8.86783333 9.1715,8.53845833 C8.859125,8.20908333 8.91154167,7.68279167 9.28766667,7.36191667 C9.6645,7.04104167 10.2226667,7.04883333 10.5350417,7.3775 C10.846,7.70758333 10.795,8.233875 10.418875,8.55404167 Z" id="Shape"></path>
            </g>
        </g>
    </g>
</svg>