<?xml version="1.0" encoding="UTF-8" standalone="no"?>
<svg width="130px" height="87px" version="1.1" xmlns="http://www.w3.org/2000/svg" xmlns:xlink="http://www.w3.org/1999/xlink" xmlns:sketch="http://www.bohemiancoding.com/sketch/ns">
    <!-- Generator: Sketch 3.4.4 (17249) - http://www.bohemiancoding.com/sketch -->
    <title>Shape</title>
    <desc>Created with Sketch.</desc>
    <defs></defs>
    <g id="Page-1" stroke="none" stroke-width="1" fill="none" fill-rule="evenodd" sketch:type="MSPage">
        <g id="02_IPSUMTPL_HOME_DESKTOP_MENU" sketch:type="MSArtboardGroup" transform="translate(-596.000000, -32.000000)" fill="#CDCDCD">
            <g id="Header" sketch:type="MSLayerGroup">
                <path d="M606.760451,35.2514596 C610.15116,33.1975397 614.029239,31.9303756 618.018717,32.0069624 C639.873817,32 661.728917,31.9930376 683.584017,32.0139249 C692.600377,32.0417746 700.962268,38.4541821 703.983967,46.8369602 C706.030925,52.5531236 705.000483,58.7009584 705.265056,64.6329575 C710.821083,61.8410189 716.377111,59.0560428 721.940101,56.2919541 C723.806035,55.1153017 726.36125,56.9603483 725.957429,59.0838926 C725.915654,70.0218862 725.971353,80.9598799 725.929579,91.8909111 C726.089715,93.7916573 723.778185,95.2328824 722.114162,94.3208027 C716.467623,91.5845637 710.876783,88.695151 705.244169,85.9240998 C705.251131,87.8944704 705.251131,89.864841 705.272019,91.8352116 C672.43715,72.9669985 639.609245,54.0848605 606.760451,35.2514596 Z M596.010444,54.2101844 C596.010444,47.9788004 598.851119,41.9423647 603.397593,37.7300883 C614.600159,44.1007212 625.781838,50.534016 636.928705,57.0160478 C636.893893,68.5806611 636.921743,80.1522368 636.91478,91.7168501 C625.106481,98.1083702 613.221596,104.353679 601.455072,110.814824 C597.994739,106.734834 595.982594,101.464266 596.010444,96.0892626 C595.996519,82.1295698 595.996519,68.1698771 596.010444,54.2101844 Z M604.776156,113.954884 C626.972415,101.436417 649.398436,89.3217706 671.664319,76.9147021 C682.804224,83.5220579 694.146039,89.802179 705.355568,96.2981358 C705.10492,101.269318 703.573183,106.247463 700.363498,110.11858 C696.304396,115.103687 690.059087,118.675419 683.50743,118.389959 C662.62011,118.362109 641.725826,118.382996 620.838506,118.376034 C617.823769,118.348184 614.711558,118.633644 611.815183,117.610165 C609.26693,116.82341 606.969325,115.430922 604.776156,113.954884 Z" id="Shape" sketch:type="MSShapeGroup"></path>
            </g>
        </g>
    </g>
</svg>