<?xml version="1.0" encoding="UTF-8" standalone="no"?>
<svg width="150px" height="150px" version="1.1" xmlns="http://www.w3.org/2000/svg" xmlns:xlink="http://www.w3.org/1999/xlink" xmlns:sketch="http://www.bohemiancoding.com/sketch/ns">
    <!-- Generator: Sketch 3.4.4 (17249) - http://www.bohemiancoding.com/sketch -->
    <title>Rectangle 5 + B_Icon_Bottom</title>
    <desc>Created with Sketch.</desc>
    <defs></defs>
    <g id="Page-1" stroke="none" stroke-width="1" fill="none" fill-rule="evenodd" sketch:type="MSPage">
        <g id="Rectangle-5-+-B_Icon_Bottom" sketch:type="MSLayerGroup">
            <rect id="Rectangle-6" fill-opacity="0.00931272645" fill="#D8D8D8" sketch:type="MSShapeGroup" x="0" y="0" width="150" height="150"></rect>
            <rect id="Rectangle-5" stroke="#572C5E" stroke-width="5" opacity="0.35494403" sketch:type="MSShapeGroup" x="6" y="7" width="137" height="137" rx="22"></rect>
            <g id="B_Icon_Bottom" transform="translate(36.000000, 48.000000)" sketch:type="MSShapeGroup">
                <path d="M13.7570745,0.0303787156 C27.2814894,0.0260388991 40.8059043,0.0216990826 54.3303191,0.0347185321 C59.9098404,0.0520777982 65.0843617,4.04904881 66.9542553,9.27418789 C68.2209574,12.8371772 67.5832979,16.6692352 67.7470213,20.3667589 C71.1852128,18.6264925 74.6234043,16.8905659 78.0659043,15.1676587 C79.2205851,14.4342297 80.8018085,15.5842811 80.5519149,16.9079251 C80.5260638,23.7257769 80.5605319,30.5436286 80.5346809,37.3571406 C80.6337766,38.5419105 79.2033511,39.4402525 78.173617,38.8717365 C74.6794149,37.1661886 71.2196809,35.3651648 67.7340957,33.6379178 C67.7384043,34.8660859 67.7384043,36.0942539 67.7513298,37.322422 C47.4323936,25.5615193 27.117766,13.7919369 6.79021277,2.05273321 C8.88845745,0.772487339 11.2882979,-0.0173592661 13.7570745,0.0303787156 Z" id="Shape" fill="#00AEA8"></path>
                <path d="M0.13787234,13.8700536 C0.13787234,9.9859178 1.89574468,6.22329688 4.70920213,3.59770789 C11.6415957,7.56864 18.5610638,11.5786305 25.4589894,15.6189996 C25.4374468,22.8274349 25.4546809,30.0402099 25.4503723,37.2486451 C18.1431383,41.2325967 10.7885106,45.1254121 3.50712766,49.1527618 C1.36579787,46.6096294 0.120638298,43.3243883 0.13787234,39.9740499 C0.129255319,31.2727178 0.129255319,22.5713857 0.13787234,13.8700536 L0.13787234,13.8700536 Z" id="Shape" fill="#FF9200"></path>
                <path d="M5.56228723,51.1100191 C19.2978191,43.307029 33.1755319,35.7557483 46.9541489,28.0221952 C53.847766,32.1406811 60.8663298,36.0551956 67.8030319,40.1042444 C67.6479255,43.2028734 66.7000532,46.3058422 64.7138298,48.7187802 C62.2019681,51.8260888 58.337234,54.0524147 54.2829255,53.8744822 C41.3573936,53.8571229 28.4275532,53.8701424 15.5020213,53.8658026 C13.6364362,53.8484433 11.7105319,54.0263758 9.91819149,53.3884228 C8.3412766,52.8980235 6.91946809,52.0300602 5.56228723,51.1100191 L5.56228723,51.1100191 Z" id="Shape" fill="#FF3603"></path>
            </g>
        </g>
    </g>
</svg>