<?xml version="1.0" encoding="UTF-8" standalone="no"?>
<svg width="35px" height="28px" version="1.1" xmlns="http://www.w3.org/2000/svg" xmlns:xlink="http://www.w3.org/1999/xlink" xmlns:sketch="http://www.bohemiancoding.com/sketch/ns">
    <!-- Generator: Sketch 3.4.4 (17249) - http://www.bohemiancoding.com/sketch -->
    <title>Shape</title>
    <desc>Created with Sketch.</desc>
    <defs></defs>
    <g id="Page-1" stroke="none" stroke-width="1" fill="none" fill-rule="evenodd" sketch:type="MSPage">
        <g id="07_IPSUMTPL_VIDEO_MOBILE" sketch:type="MSArtboardGroup" transform="translate(-273.000000, -44.000000)" fill="#CDCDCD">
            <path d="M305.73052,71.125 C306.983919,71.125 308,70.1216806 308,68.8645833 L308,68.8645833 C308,67.6161897 306.990264,66.6041667 305.73052,66.6041667 L275.26948,66.6041667 C274.016081,66.6041667 273,67.6074861 273,68.8645833 L273,68.8645833 C273,70.112977 274.009736,71.125 275.26948,71.125 L305.73052,71.125 Z M305.73052,59.8229167 C306.983919,59.8229167 308,58.8195972 308,57.5625 L308,57.5625 C308,56.3141063 306.990264,55.3020833 305.73052,55.3020833 L275.26948,55.3020833 C274.016081,55.3020833 273,56.3054028 273,57.5625 L273,57.5625 C273,58.8108937 274.009736,59.8229167 275.26948,59.8229167 L305.73052,59.8229167 Z M273,46.2604167 C273,47.5088103 274.009736,48.5208333 275.26948,48.5208333 L305.73052,48.5208333 C306.983919,48.5208333 308,47.5175139 308,46.2604167 L308,46.2604167 C308,45.012023 306.990264,44 305.73052,44 L275.26948,44 C274.016081,44 273,45.0033194 273,46.2604167 L273,46.2604167 Z" id="Shape" sketch:type="MSShapeGroup"></path>
        </g>
    </g>
</svg>