<?xml version="1.0" encoding="UTF-8" standalone="no"?>
<svg width="80px" height="80px" version="1.1" xmlns="http://www.w3.org/2000/svg" xmlns:xlink="http://www.w3.org/1999/xlink" xmlns:sketch="http://www.bohemiancoding.com/sketch/ns">
    <!-- Generator: Sketch 3.4.3 (16044) - http://www.bohemiancoding.com/sketch -->
    <title>video-play-3-icon</title>
    <desc>Created with Sketch.</desc>
    <defs></defs>
    <g id="Page-1" stroke="none" stroke-width="1" fill="none" fill-rule="evenodd" sketch:type="MSPage">
        <g id="01_IPSUMTPL_HOME_DESKTOP" sketch:type="MSArtboardGroup" transform="translate(-681.000000, -743.000000)" fill="#FFFFFF" opacity="0.585354478">
            <g id="Medium-thumbnails" sketch:type="MSLayerGroup" transform="translate(248.000000, 689.000000)">
                <g id="thumbnail_2" transform="translate(315.000000, 0.000000)" sketch:type="MSShapeGroup">
                    <path d="M158.001769,61.7673339 C166.629918,61.7673339 174.73649,65.0816552 180.828604,71.1005622 C186.895086,77.0942254 190.236205,85.0561309 190.236205,93.5198063 C190.236205,101.983482 186.895086,109.945387 180.82841,115.939245 C174.73649,121.957763 166.629724,125.272473 158.001769,125.272473 C149.373815,125.272473 141.267243,121.957763 135.175129,115.939245 C129.108453,109.945387 125.767334,101.983482 125.767334,93.5198063 C125.767334,85.0561309 129.108453,77.0942254 135.175129,71.1007564 C141.267243,65.0818494 149.373815,61.7673339 158.001769,61.7673339 L158.001769,61.7673339 Z M158.001769,54 C135.909336,54 118,71.693404 118,93.5198063 C118,115.345626 135.909336,133.040001 158.001769,133.040001 C180.094397,133.040001 198.003539,115.34582 198.003539,93.5198063 C198.003539,71.6935981 180.094397,54 158.001769,54 L158.001769,54 L158.001769,54 Z M148.398238,113.163782 L148.398238,74.8459706 L179.646028,94.0052646 L148.398238,113.163782 L148.398238,113.163782 Z" id="video-play-3-icon"></path>
                </g>
            </g>
        </g>
    </g>
</svg>