<?xml version="1.0" encoding="UTF-8" standalone="no"?>
<svg width="20px" height="20px" viewBox="0 0 20 20" version="1.1" fill="#958E8E" xmlns="http://www.w3.org/2000/svg" xmlns:xlink="http://www.w3.org/1999/xlink" xmlns:sketch="http://www.bohemiancoding.com/sketch/ns">
    <g id="Page-1" stroke="none" stroke-width="1" fill-rule="evenodd" sketch:type="MSPage">
        <path d="M10,1.66666667 C14.595,1.66666667 18.3333333,5.405 18.3333333,10 C18.3333333,14.595 14.595,18.3333333 10,18.3333333 C5.405,18.3333333 1.66666667,14.595 1.66666667,10 C1.66666667,5.405 5.405,1.66666667 10,1.66666667 L10,1.66666667 Z M10,0 C4.4775,0 0,4.4775 0,10 C0,15.5225 4.4775,20 10,20 C15.5225,20 20,15.5225 20,10 C20,4.4775 15.5225,0 10,0 L10,0 Z M15,10.8333333 L10.8333333,10.8333333 L10.8333333,15 L9.16666667,15 L9.16666667,10.8333333 L5,10.8333333 L5,9.16666667 L9.16666667,9.16666667 L9.16666667,5 L10.8333333,5 L10.8333333,9.16666667 L15,9.16666667 L15,10.8333333 L15,10.8333333 Z" id="Shape" sketch:type="MSShapeGroup"></path>
    </g>
</svg>