<?xml version="1.0" encoding="UTF-8"?>
<svg width="112px" height="43px" viewBox="0 0 112 43" version="1.1" xmlns="http://www.w3.org/2000/svg" xmlns:xlink="http://www.w3.org/1999/xlink">
    <!-- Generator: Sketch 41.2 (35397) - http://www.bohemiancoding.com/sketch -->
    <title>Group 7</title>
    <desc>Created with Sketch.</desc>
    <defs></defs>
    <g id="Page-1" stroke="none" stroke-width="1" fill="none" fill-rule="evenodd">
        <g id="Group-7">
            <path d="M33.9892578,11.5678711 L33.9892578,15.0761719 L32.5976562,15.0761719 L32.5976562,4.15576172 L33.9892578,4.15576172 L33.9892578,4.80029297 C34.5166042,4.27294658 35.1538049,4.00927734 35.9008789,4.00927734 C37.0141657,4.00927734 37.8808563,4.35595356 38.5009766,5.04931641 C39.1210969,5.74267925 39.4311523,6.75829409 39.4311523,8.09619141 C39.4311523,9.28760361 39.1186555,10.2604943 38.4936523,11.0148926 C37.8686492,11.7692909 36.9653379,12.1464844 35.7836914,12.1464844 C35.4516585,12.1464844 35.0964374,12.0878912 34.7180176,11.9707031 C34.3395977,11.853515 34.0966802,11.719239 33.9892578,11.5678711 Z M33.9892578,5.84765625 L33.9892578,10.4179688 C34.0771489,10.5498053 34.2626939,10.6755365 34.5458984,10.795166 C34.829103,10.9147955 35.1049791,10.9746094 35.3735352,10.9746094 C37.1020594,10.9746094 37.9663086,9.99805664 37.9663086,8.04492188 C37.9663086,7.05370598 37.7612325,6.32861558 37.3510742,5.86962891 C36.9409159,5.41064224 36.2841842,5.18115234 35.3808594,5.18115234 C35.1855459,5.18115234 34.9462905,5.24951104 34.6630859,5.38623047 C34.3798814,5.5229499 34.1552743,5.67675696 33.9892578,5.84765625 Z M40.4418945,8.05957031 C40.4418945,6.84862676 40.767819,5.87085333 41.4196777,5.1262207 C42.0715365,4.38158807 42.9296822,4.00927734 43.9941406,4.00927734 C45.1171931,4.00927734 45.9887664,4.36693978 46.6088867,5.08227539 C47.229007,5.797611 47.5390625,6.79003271 47.5390625,8.05957031 C47.5390625,9.32422507 47.2216829,10.3215296 46.5869141,11.0515137 C45.9521453,11.7814978 45.0878961,12.1464844 43.9941406,12.1464844 C42.875971,12.1464844 42.0043977,11.7778357 41.3793945,11.0405273 C40.7543914,10.303219 40.4418945,9.30957656 40.4418945,8.05957031 Z M41.9067383,8.05957031 C41.9067383,10.0273536 42.6025321,11.0112305 43.9941406,11.0112305 C44.6435579,11.0112305 45.152586,10.7475612 45.5212402,10.2202148 C45.8898944,9.69286846 46.0742188,8.97266082 46.0742188,8.05957031 C46.0742188,6.11620122 45.3808663,5.14453125 43.9941406,5.14453125 C43.3593718,5.14453125 42.8527851,5.40331772 42.4743652,5.92089844 C42.0959454,6.43847915 41.9067383,7.15136265 41.9067383,8.05957031 Z M56.2548828,12.1464844 L55.8886719,12.1464844 L53.5888672,6.80712891 L51.2963867,12.1464844 L50.9301758,12.1464844 L48.125,4.13378906 L49.6118164,4.13378906 L51.2890625,9.28271484 L53.3764648,4.13378906 L53.7426758,4.13378906 L55.8959961,9.28271484 L57.6977539,4.13378906 L59.0673828,4.13378906 L56.2548828,12.1464844 Z M66.7724609,8.21337891 L61.1181641,8.21337891 C61.1181641,9.13135225 61.3696264,9.8369116 61.8725586,10.3300781 C62.3168968,10.7597678 62.8881801,10.9746094 63.5864258,10.9746094 C64.3823282,10.9746094 65.0463841,10.7426781 65.5786133,10.2788086 L66.1645508,11.2822266 C65.949706,11.4970714 65.6201194,11.6826164 65.1757812,11.8388672 C64.6191378,12.0439463 63.9990269,12.1464844 63.3154297,12.1464844 C62.3290966,12.1464844 61.4917027,11.8120151 60.8032227,11.1430664 C60.0366173,10.405758 59.6533203,9.41455701 59.6533203,8.16943359 C59.6533203,6.87548181 60.0463828,5.83789453 60.8325195,5.05664062 C61.535648,4.35839495 62.3681593,4.00927734 63.3300781,4.00927734 C64.4482478,4.00927734 65.3247039,4.3242156 65.9594727,4.95410156 C66.5747101,5.55957334 66.8823242,6.36278796 66.8823242,7.36376953 C66.8823242,7.67138826 66.8457035,7.95458855 66.7724609,8.21337891 Z M63.3959961,5.18115234 C62.7758758,5.18115234 62.2558615,5.38134565 61.8359375,5.78173828 C61.4355449,6.16259956 61.2084964,6.63622764 61.1547852,7.20263672 L65.4980469,7.20263672 C65.4980469,6.64111047 65.3222674,6.17236516 64.9707031,5.79638672 C64.584959,5.38622842 64.0600619,5.18115234 63.3959961,5.18115234 Z M72.6098633,5.49609375 C72.3071274,5.28613176 72.0019547,5.18115234 71.6943359,5.18115234 C71.2011694,5.18115234 70.7702655,5.40820085 70.4016113,5.86230469 C70.0329571,6.31640852 69.8486328,6.86327805 69.8486328,7.50292969 L69.8486328,12 L68.4570312,12 L68.4570312,4.15576172 L69.8486328,4.15576172 L69.8486328,5.40820312 C70.3564479,4.47558127 71.1108348,4.00927734 72.1118164,4.00927734 C72.3608411,4.00927734 72.7197242,4.05322222 73.1884766,4.14111328 L72.6098633,5.49609375 Z M80.7836914,8.21337891 L75.1293945,8.21337891 C75.1293945,9.13135225 75.3808569,9.8369116 75.8837891,10.3300781 C76.3281272,10.7597678 76.8994106,10.9746094 77.5976562,10.9746094 C78.3935587,10.9746094 79.0576145,10.7426781 79.5898438,10.2788086 L80.1757812,11.2822266 C79.9609364,11.4970714 79.6313499,11.6826164 79.1870117,11.8388672 C78.6303683,12.0439463 78.0102573,12.1464844 77.3266602,12.1464844 C76.3403271,12.1464844 75.5029331,11.8120151 74.8144531,11.1430664 C74.0478477,10.405758 73.6645508,9.41455701 73.6645508,8.16943359 C73.6645508,6.87548181 74.0576133,5.83789453 74.84375,5.05664062 C75.5468785,4.35839495 76.3793897,4.00927734 77.3413086,4.00927734 C78.4594782,4.00927734 79.3359343,4.3242156 79.9707031,4.95410156 C80.5859406,5.55957334 80.8935547,6.36278796 80.8935547,7.36376953 C80.8935547,7.67138826 80.856934,7.95458855 80.7836914,8.21337891 Z M77.4072266,5.18115234 C76.7871063,5.18115234 76.2670919,5.38134565 75.847168,5.78173828 C75.4467753,6.16259956 75.2197268,6.63622764 75.1660156,7.20263672 L79.5092773,7.20263672 C79.5092773,6.64111047 79.3334979,6.17236516 78.9819336,5.79638672 C78.5961895,5.38622842 78.0712924,5.18115234 77.4072266,5.18115234 Z M87.331543,11.9926758 L87.331543,11.4140625 C86.8481421,11.8974634 86.1450241,12.1391602 85.222168,12.1391602 C84.2407177,12.1391602 83.4448273,11.7876012 82.8344727,11.0844727 C82.224118,10.3813441 81.9189453,9.44385352 81.9189453,8.27197266 C81.9189453,7.09520896 82.2705043,6.09058033 82.9736328,5.25805664 C83.6767613,4.42553295 84.5141553,4.00927734 85.4858398,4.00927734 C86.2963908,4.00927734 86.911619,4.19970513 87.331543,4.58056641 L87.331543,0.940429688 L88.7231445,0.940429688 L88.7231445,11.9926758 L87.331543,11.9926758 Z M87.331543,5.97216797 C86.9799787,5.44482158 86.4990265,5.18115234 85.8886719,5.18115234 C85.1415978,5.18115234 84.5373558,5.45946987 84.0759277,6.01611328 C83.6144996,6.57275669 83.3837891,7.28075742 83.3837891,8.14013672 C83.3837891,10.0297946 84.2431555,10.9746094 85.9619141,10.9746094 C86.1816417,10.9746094 86.445311,10.90503 86.7529297,10.7658691 C87.0605484,10.6267083 87.2534176,10.4790047 87.331543,10.3227539 L87.331543,5.97216797 Z M96.4208984,11.4360352 L95.9301758,12.1464844 L95.234375,12.1464844 L95.234375,0.940429688 L96.6259766,0.940429688 L96.6259766,4.734375 C96.7578132,4.55371003 97.0056134,4.38769607 97.3693848,4.23632812 C97.7331561,4.08496018 98.0908186,4.00927734 98.4423828,4.00927734 C99.5166069,4.00927734 100.38696,4.38036738 101.053467,5.12255859 C101.719974,5.8647498 102.053223,6.80224043 102.053223,7.93505859 C102.053223,9.24365889 101.718753,10.2727013 101.049805,11.0222168 C100.380856,11.7717323 99.4751034,12.1464844 98.3325195,12.1464844 C97.9614239,12.1464844 97.5964373,12.076905 97.2375488,11.9377441 C96.8786603,11.7985833 96.6064462,11.6313486 96.4208984,11.4360352 Z M96.6259766,5.79638672 L96.6259766,10.3227539 C96.6259766,10.4008793 96.7993147,10.5290518 97.1459961,10.7072754 C97.4926775,10.8854989 97.7563468,10.9746094 97.9370117,10.9746094 C98.8842821,10.9746094 99.5629862,10.7475609 99.9731445,10.293457 C100.383303,9.8393532 100.588379,9.07764207 100.588379,8.00830078 C100.588379,7.11962446 100.349123,6.42627202 99.8706055,5.92822266 C99.3920875,5.43017329 98.7475626,5.18115234 97.9370117,5.18115234 C97.7661124,5.18115234 97.5280777,5.2543938 97.2229004,5.40087891 C96.9177231,5.54736401 96.7187505,5.67919863 96.6259766,5.79638672 Z M106.586914,13.3330078 C106.406249,13.8310572 106.026614,14.2460921 105.447998,14.578125 C104.869382,14.9101579 104.223636,15.0761719 103.510742,15.0761719 L103.510742,13.8310547 C104.0918,13.8310547 104.589842,13.695558 105.004883,13.4245605 C105.419924,13.1535631 105.627441,12.8227559 105.627441,12.4321289 C105.627441,12.0024393 105.551759,11.5788595 105.400391,11.161377 C105.249023,10.7438944 105.053712,10.2275421 104.814453,9.61230469 L102.69043,4.15576172 L104.111328,4.15576172 L106.418457,10.2202148 L108.491211,4.15576172 L109.912109,4.15576172 L106.586914,13.3330078 Z" id="powered-by" fill="#BFBFBF" opacity="0.900000036"></path>
            <path d="M8.87654807,38.551265 C8.87654807,38.5397248 8.89967071,38.585885 8.94591671,38.689747 C9.0152857,38.8628504 9.09621497,38.8628504 9.18870695,38.689747 L9.22339127,38.5858855 L15.033015,25.0665779 C15.310491,24.4203252 15.7960666,24.0972037 16.4897565,24.0972037 L16.5244408,24.0972037 C17.0909542,24.0972037 17.5302846,24.3337748 17.842445,24.8069241 C18.1546055,25.2800734 18.2008508,25.7762957 17.9811823,26.2956059 L11.5298986,41.3209055 C11.0905617,42.4403074 10.2697076,43 9.06731183,43 C7.85335453,43 7.02671981,42.4403074 6.58738289,41.3209055 L0.136099197,26.2956059 C-0.0835692671,25.7762957 -0.0373239684,25.2800734 0.274836481,24.8069241 C0.58699693,24.3337748 1.02632727,24.0972037 1.59284068,24.0972037 L1.64486716,24.0972037 C2.33855704,24.0972037 2.81835202,24.4203252 3.08426647,25.0665779 C5.85902602,31.5175644 7.78976724,36.0124152 8.87654807,38.551265 L8.87654807,38.551265 Z M22.490144,24.0972037 C22.9294809,24.0972037 23.2994433,24.2529944 23.6000423,24.5645806 C23.9122027,24.8761667 24.0682806,25.2512184 24.0682806,25.689747 L24.0682806,41.424767 C24.0682806,41.8632956 23.9122027,42.2325773 23.6000423,42.5326232 C23.2994433,42.8442093 22.9294809,43 22.490144,43 L22.4554597,43 C22.0161228,43 21.6403797,42.8442093 21.3282193,42.5326232 C21.0160588,42.2325773 20.8599809,41.8632956 20.8599809,41.424767 L20.8599809,25.689747 C20.8599809,25.2512184 21.0160588,24.8761667 21.3282193,24.5645806 C21.6403797,24.2529944 22.0161228,24.0972037 22.4554597,24.0972037 L22.490144,24.0972037 Z M22.4728019,20.8082557 C21.9409729,20.8082557 21.4900813,20.6236148 21.1201133,20.2543276 C20.7501454,19.8850403 20.5651642,19.4349782 20.5651642,18.9041278 C20.5651642,18.3848176 20.7501454,17.9405256 21.1201133,17.5712383 C21.4900813,17.2019511 21.9409729,17.0173103 22.4728019,17.0173103 C22.9930693,17.0173103 23.4381803,17.2019511 23.8081482,17.5712383 C24.1896777,17.9405256 24.3804395,18.3848176 24.3804395,18.9041278 C24.3804395,19.4349782 24.1896777,19.8850403 23.8081482,20.2543276 C23.4381803,20.6236148 22.9930693,20.8082557 22.4728019,20.8082557 L22.4728019,20.8082557 Z M32.7046765,29.1691079 C31.4907192,30.3923719 30.8837497,31.8694987 30.8837497,33.6005326 C30.8837497,35.3200264 31.4907192,36.7913831 32.7046765,38.0146471 C33.9301953,39.2379111 35.4100449,39.849534 37.1442696,39.849534 C38.8784943,39.849534 40.3525632,39.2379111 41.5665205,38.0146471 C42.7920393,36.7913831 43.4047895,35.3200264 43.4047895,33.6005326 C43.4047895,31.8694987 42.7920393,30.3923719 41.5665205,29.1691079 C40.3525632,27.9458439 38.8784943,27.334221 37.1442696,27.334221 C35.4100449,27.334221 33.9301953,27.9458439 32.7046765,29.1691079 L32.7046765,29.1691079 Z M45.0349526,17 C45.462728,17 45.8326904,17.1500207 46.1448509,17.4500666 C46.4570113,17.7616527 46.6130892,18.1367044 46.6130892,18.575233 L46.6130892,33.6005326 C46.6015277,36.1970836 45.6708411,38.4127738 43.8210014,40.2476698 C41.9711617,42.0825658 39.7456067,43 37.1442696,43 C34.531371,43 32.3000354,42.0767957 30.4501957,40.2303595 C28.600356,38.3839233 27.67545,36.156693 27.67545,33.5486019 C27.67545,30.9405107 28.600356,28.7132804 30.4501957,26.8668442 C32.3000354,25.020408 34.531371,24.0972037 37.1442696,24.0972037 C39.5259382,24.0972037 41.6127573,24.8876974 43.4047895,26.4687084 L43.4047895,18.575233 C43.4047895,18.1367044 43.5608674,17.7616527 43.8730279,17.4500666 C44.1851883,17.1500207 44.5551507,17 44.9829261,17 L45.0349526,17 Z M54.590483,29.1691079 C53.3765257,30.3923719 52.7695562,31.8694987 52.7695562,33.6005326 C52.7695562,35.3200264 53.3765257,36.7913831 54.590483,38.0146471 C55.8160018,39.2379111 57.2958514,39.849534 59.0300761,39.849534 C60.7643008,39.849534 62.2383697,39.2379111 63.452327,38.0146471 C64.6778458,36.7913831 65.290596,35.3200264 65.290596,33.6005326 C65.290596,31.8694987 64.6778458,30.3923719 63.452327,29.1691079 C62.2383697,27.9458439 60.7643008,27.334221 59.0300761,27.334221 C57.2958514,27.334221 55.8160018,27.9458439 54.590483,29.1691079 L54.590483,29.1691079 Z M66.9207591,17 C67.3485345,17 67.7184969,17.1500207 68.0306574,17.4500666 C68.3428178,17.7616527 68.4988957,18.1367044 68.4988957,18.575233 L68.4988957,33.6005326 C68.4873342,36.1970836 67.5566476,38.4127738 65.7068079,40.2476698 C63.8569682,42.0825658 61.6314132,43 59.0300761,43 C56.4171775,43 54.1858419,42.0767957 52.3360022,40.2303595 C50.4861625,38.3839233 49.5612565,36.156693 49.5612565,33.5486019 C49.5612565,30.9405107 50.4861625,28.7132804 52.3360022,26.8668442 C54.1858419,25.020408 56.4171775,24.0972037 59.0300761,24.0972037 C61.4117447,24.0972037 63.4985638,24.8876974 65.290596,26.4687084 L65.290596,18.575233 C65.290596,18.1367044 65.4466739,17.7616527 65.7588344,17.4500666 C66.0709948,17.1500207 66.4409572,17 66.8687326,17 L66.9207591,17 Z M85.7023189,29.5672437 L74.7247313,34.517976 C74.6784853,34.2179301 74.6553627,33.9121187 74.6553627,33.6005326 C74.6553627,31.8694987 75.2623322,30.3923719 76.4762895,29.1691079 C77.7018083,27.9458439 79.1816579,27.334221 80.9158826,27.334221 C82.8582143,27.334221 84.4536771,28.0785545 85.7023189,29.5672437 L85.7023189,29.5672437 Z M86.0838464,25.6378162 C84.5230442,24.6107361 82.8004068,24.0972037 80.9158826,24.0972037 C78.302984,24.0972037 76.0716484,25.020408 74.2218087,26.8668442 C72.371969,28.7132804 71.447063,30.9405107 71.447063,33.5486019 C71.447063,36.156693 72.371969,38.3839233 74.2218087,40.2303595 C76.0716484,42.0767957 78.302984,43 80.9158826,43 C82.9507063,43 84.7947375,42.4056873 86.4480318,41.2170439 C88.0666415,40.0630213 89.1996513,38.5512743 89.8470952,36.6817577 C90.0320792,36.1624475 89.9684919,35.6835353 89.6563315,35.2450067 C89.3326095,34.7949378 88.8990598,34.5699068 88.3556694,34.5699068 C87.5926105,34.5699068 87.0839123,34.9276484 86.8295593,35.6431425 C86.4017839,36.8779467 85.6560784,37.8819313 84.5924206,38.6551265 C83.4940783,39.4514021 82.2685779,39.849534 80.9158826,39.849534 C78.8810589,39.849534 77.2393508,39.0532703 75.990709,37.460719 C76.9618749,37.0221904 79.0833779,36.064366 82.3552819,34.587217 C84.9913035,33.3985737 87.1185872,32.4407493 88.737197,31.713715 C89.1418494,31.5290714 89.4193212,31.2348001 89.5696207,30.8308921 C89.7199201,30.415444 89.7025781,30.0115421 89.5175942,29.6191744 C88.7660968,27.9689221 87.6215257,26.6418159 86.0838464,25.6378162 L86.0838464,25.6378162 Z M106.443543,29.1691079 C107.669062,30.3923719 108.281812,31.8694987 108.281812,33.6005326 C108.281812,35.3200264 107.669062,36.7913831 106.443543,38.0146471 C105.229585,39.2379111 103.755517,39.849534 102.021292,39.849534 C100.287067,39.849534 98.8072176,39.2379111 97.5816988,38.0146471 C96.3677415,36.7913831 95.7607719,35.3200264 95.7607719,33.6005326 C95.7607719,31.8694987 96.3677415,30.3923719 97.5816988,29.1691079 C98.8072176,27.9458439 100.287067,27.334221 102.021292,27.334221 C103.755517,27.334221 105.229585,27.9458439 106.443543,29.1691079 L106.443543,29.1691079 Z M95.3272179,26.8668442 C93.4773782,28.7132804 92.5524723,30.9405107 92.5524723,33.5486019 C92.5524723,36.156693 93.4773782,38.3839233 95.3272179,40.2303595 C97.1770576,42.0767957 99.4083933,43 102.021292,43 C104.63419,43 106.865526,42.0767957 108.715366,40.2303595 C110.565205,38.3839233 111.490111,36.156693 111.490111,33.5486019 C111.490111,30.9405107 110.565205,28.7132804 108.715366,26.8668442 C106.865526,25.020408 104.63419,24.0972037 102.021292,24.0972037 C99.4083933,24.0972037 97.1770576,25.020408 95.3272179,26.8668442 L95.3272179,26.8668442 Z" id="viddeo-logo" fill="#C9C9C9"></path>
        </g>
    </g>
</svg>