<?xml version="1.0" encoding="UTF-8"?>
<svg width="60px" height="24px" viewBox="0 0 60 24" version="1.1" xmlns="http://www.w3.org/2000/svg" xmlns:xlink="http://www.w3.org/1999/xlink">
    <!-- Generator: Sketch 42 (36781) - http://www.bohemiancoding.com/sketch -->
    <title>Group 8</title>
    <desc>Created with Sketch.</desc>
    <defs></defs>
    <g id="Page-1" stroke="none" stroke-width="1" fill="none" fill-rule="evenodd">
        <g id="Group-8" fill="#CDCDCD">
            <path d="M7.39941406,6.56933594 C7.74446787,6.22428213 7.91699219,5.80924722 7.91699219,5.32421875 C7.91699219,4.83593506 7.74446787,4.41927256 7.39941406,4.07421875 C7.05761548,3.73242017 6.64258057,3.56152344 6.15429688,3.56152344 C5.66601318,3.56152344 5.24935068,3.73242017 4.90429688,4.07421875 C4.56249829,4.41927256 4.39160156,4.83593506 4.39160156,5.32421875 C4.39160156,5.80924722 4.56249829,6.22428213 4.90429688,6.56933594 C5.24935068,6.91438975 5.66601318,7.08691406 6.15429688,7.08691406 C6.64258057,7.08691406 7.05761548,6.91438975 7.39941406,6.56933594 Z M3.93261719,10.0068359 C3.81217388,10.0068359 3.70800825,9.96289106 3.62011719,9.875 C3.53222612,9.78710894 3.48828125,9.68294331 3.48828125,9.5625 L3.48828125,5.32421875 C3.49153647,4.58853799 3.75357812,3.96191665 4.27441406,3.44433594 C4.79199478,2.92675522 5.41861611,2.66796875 6.15429688,2.66796875 C6.88997764,2.66796875 7.51822656,2.92838281 8.0390625,3.44921875 C8.55989844,3.97005469 8.8203125,4.59830361 8.8203125,5.33398438 C8.8203125,6.06966514 8.55989844,6.69791406 8.0390625,7.21875 C7.51822656,7.73958594 6.88997764,8 6.15429688,8 C5.48046538,8 4.89290615,7.77702046 4.39160156,7.33105469 L4.39160156,9.5625 C4.39160156,9.68294331 4.34765669,9.78710894 4.25976562,9.875 C4.17187456,9.96289106 4.06770894,10.0068359 3.94726562,10.0068359 L3.93261719,10.0068359 Z M13.4150391,4.09863281 C13.0732405,3.753579 12.6582056,3.58105469 12.1699219,3.58105469 C11.6816382,3.58105469 11.2649757,3.753579 10.9199219,4.09863281 C10.5781233,4.44368662 10.4072266,4.86034912 10.4072266,5.34863281 C10.4072266,5.83366128 10.5781233,6.24869619 10.9199219,6.59375 C11.2649757,6.93880381 11.6816382,7.11132812 12.1699219,7.11132812 C12.6582056,7.11132812 13.0732405,6.93880381 13.4150391,6.59375 C13.7600929,6.24869619 13.9326172,5.83366128 13.9326172,5.34863281 C13.9326172,4.86034912 13.7600929,4.44368662 13.4150391,4.09863281 Z M10.2851562,3.44921875 C10.8059922,2.92838281 11.4342411,2.66796875 12.1699219,2.66796875 C12.9056026,2.66796875 13.5338516,2.92838281 14.0546875,3.44921875 C14.5755234,3.97005469 14.8359375,4.59830361 14.8359375,5.33398438 C14.8359375,6.06966514 14.5755234,6.69791406 14.0546875,7.21875 C13.5338516,7.73958594 12.9056026,8 12.1699219,8 C11.4342411,8 10.8059922,7.73958594 10.2851562,7.21875 C9.76432031,6.69791406 9.50390625,6.06966514 9.50390625,5.33398438 C9.50390625,4.59830361 9.76432031,3.97005469 10.2851562,3.44921875 Z M16.5693359,3.1171875 C16.5693359,2.99348896 16.5253911,2.88769575 16.4375,2.79980469 C16.3496089,2.71191362 16.2454433,2.66796875 16.125,2.66796875 L16.1103516,2.66796875 C15.9899083,2.66796875 15.8857426,2.71191362 15.7978516,2.79980469 C15.7099605,2.88769575 15.6660156,2.99348896 15.6660156,3.1171875 L15.6660156,5.79785156 C15.6660156,6.40657856 15.8808572,6.9257791 16.3105469,7.35546875 C16.7402365,7.7851584 17.2594371,8 17.8681641,8 C18.5940792,8 19.1783832,7.71191694 19.6210937,7.13574219 C20.0605491,7.71191694 20.6432255,8 21.3691406,8 C21.9778676,8 22.4970682,7.7851584 22.9267578,7.35546875 C23.3564475,6.9257791 23.5712891,6.40657856 23.5712891,5.79785156 L23.5712891,3.1171875 C23.5712891,2.99348896 23.5289718,2.88769575 23.4443359,2.79980469 C23.3564449,2.71191362 23.2506517,2.66796875 23.1269531,2.66796875 L23.1171875,2.66796875 C22.993489,2.66796875 22.8893233,2.71191362 22.8046875,2.79980469 C22.7167964,2.88769575 22.6728516,2.99348896 22.6728516,3.1171875 L22.6728516,5.79785156 C22.6728516,6.15592627 22.5458997,6.46191279 22.2919922,6.71582031 C22.0380847,6.96972783 21.7304706,7.09667969 21.3691406,7.09667969 C21.0110659,7.09667969 20.7050794,6.96972783 20.4511719,6.71582031 C20.1972644,6.46191279 20.0703125,6.15592627 20.0703125,5.79785156 L20.0703125,3.1171875 C20.0703125,2.99348896 20.0263676,2.88769575 19.9384766,2.79980469 C19.8538407,2.71191362 19.7496751,2.66796875 19.6259766,2.66796875 L19.6162109,2.66796875 C19.4925124,2.66796875 19.3867192,2.71191362 19.2988281,2.79980469 C19.2109371,2.88769575 19.1669922,2.99348896 19.1669922,3.1171875 L19.1669922,5.79785156 C19.1669922,6.15592627 19.0400403,6.46191279 18.7861328,6.71582031 C18.5322253,6.96972783 18.2262388,7.09667969 17.8681641,7.09667969 C17.5100894,7.09667969 17.2041028,6.96972783 16.9501953,6.71582031 C16.6962878,6.46191279 16.5693359,6.15592627 16.5693359,5.79785156 L16.5693359,3.1171875 Z M28.4150391,4.2109375 C28.0634748,3.79101353 27.6142605,3.58105469 27.0673828,3.58105469 C26.5790991,3.58105469 26.1624366,3.753579 25.8173828,4.09863281 C25.4755842,4.44368662 25.3046875,4.86034912 25.3046875,5.34863281 C25.3046875,5.43652388 25.3111979,5.52278604 25.3242187,5.60742188 L28.4150391,4.2109375 Z M28.5224609,3.10253906 C28.9554058,3.3857436 29.2776682,3.76008882 29.4892578,4.22558594 C29.5413414,4.33626357 29.5462242,4.45019473 29.5039062,4.56738281 C29.4615883,4.68131567 29.3834641,4.76432266 29.2695312,4.81640625 C28.8137998,5.0214854 28.2148475,5.29166499 27.4726562,5.62695312 C26.5514277,6.04362188 25.9541029,6.31380146 25.6806641,6.4375 C26.0322283,6.886721 26.4944633,7.11132812 27.0673828,7.11132812 C27.4482441,7.11132812 27.7932927,6.99902456 28.1025391,6.77441406 C28.4020197,6.55631401 28.6119786,6.27311372 28.7324219,5.92480469 C28.8040368,5.72298076 28.9472646,5.62207031 29.1621094,5.62207031 C29.3151049,5.62207031 29.437174,5.68554624 29.5283203,5.8125 C29.6162114,5.93619854 29.6341148,6.07128833 29.5820312,6.21777344 C29.3997387,6.74511982 29.0807314,7.17154785 28.625,7.49707031 C28.1595029,7.83235845 27.6403023,8 27.0673828,8 C26.3317021,8 25.7034531,7.73958594 25.1826172,7.21875 C24.6617812,6.69791406 24.4013672,6.06966514 24.4013672,5.33398438 C24.4013672,4.59830361 24.6617812,3.97005469 25.1826172,3.44921875 C25.7034531,2.92838281 26.3317021,2.66796875 27.0673828,2.66796875 C27.5979844,2.66796875 28.0830056,2.81282407 28.5224609,3.10253906 Z M32.4970703,2.66796875 C31.9404269,2.66796875 31.4667988,2.8632793 31.0761719,3.25390625 C30.6920554,3.6445332 30.4967448,4.11816128 30.4902344,4.67480469 L30.4902344,7.55566406 C30.4902344,7.6793626 30.5341792,7.78352822 30.6220703,7.86816406 C30.7099614,7.95605513 30.814127,8 30.9345703,8 L30.9492188,8 C31.0696621,8 31.1738277,7.95605513 31.2617188,7.86816406 C31.3496098,7.78352822 31.3935547,7.6793626 31.3935547,7.55566406 L31.3935547,4.67480469 C31.3968099,4.36881357 31.5042307,4.10839951 31.7158203,3.89355469 C31.9306651,3.67870986 32.1910792,3.57128906 32.4970703,3.57128906 L32.7753906,3.57128906 C32.8990892,3.57128906 33.0048824,3.52734419 33.0927734,3.43945312 C33.1774093,3.35481729 33.2197266,3.25065166 33.2197266,3.12695312 L33.2197266,3.1171875 C33.2197266,2.99348896 33.1774093,2.88769575 33.0927734,2.79980469 C33.0048824,2.71191362 32.8990892,2.66796875 32.7753906,2.66796875 L32.4970703,2.66796875 Z M37.6240234,4.2109375 C37.2724592,3.79101353 36.8232449,3.58105469 36.2763672,3.58105469 C35.7880835,3.58105469 35.371421,3.753579 35.0263672,4.09863281 C34.6845686,4.44368662 34.5136719,4.86034912 34.5136719,5.34863281 C34.5136719,5.43652388 34.5201822,5.52278604 34.5332031,5.60742188 L37.6240234,4.2109375 Z M37.7314453,3.10253906 C38.1643902,3.3857436 38.4866526,3.76008882 38.6982422,4.22558594 C38.7503258,4.33626357 38.7552085,4.45019473 38.7128906,4.56738281 C38.6705727,4.68131567 38.5924485,4.76432266 38.4785156,4.81640625 C38.0227842,5.0214854 37.4238318,5.29166499 36.6816406,5.62695312 C35.7604121,6.04362188 35.1630873,6.31380146 34.8896484,6.4375 C35.2412127,6.886721 35.7034477,7.11132812 36.2763672,7.11132812 C36.6572285,7.11132812 37.0022771,6.99902456 37.3115234,6.77441406 C37.6110041,6.55631401 37.8209629,6.27311372 37.9414062,5.92480469 C38.0130212,5.72298076 38.1562489,5.62207031 38.3710938,5.62207031 C38.5240893,5.62207031 38.6461584,5.68554624 38.7373047,5.8125 C38.8251958,5.93619854 38.8430992,6.07128833 38.7910156,6.21777344 C38.608723,6.74511982 38.2897158,7.17154785 37.8339844,7.49707031 C37.3684873,7.83235845 36.8492867,8 36.2763672,8 C35.5406864,8 34.9124375,7.73958594 34.3916016,7.21875 C33.8707656,6.69791406 33.6103516,6.06966514 33.6103516,5.33398438 C33.6103516,4.59830361 33.8707656,3.97005469 34.3916016,3.44921875 C34.9124375,2.92838281 35.5406864,2.66796875 36.2763672,2.66796875 C36.8069688,2.66796875 37.29199,2.81282407 37.7314453,3.10253906 Z M40.96875,4.09863281 C40.6269514,4.44368662 40.4560547,4.86034912 40.4560547,5.34863281 C40.4560547,5.83366128 40.6269514,6.24869619 40.96875,6.59375 C41.3138038,6.93880381 41.7304663,7.11132812 42.21875,7.11132812 C42.7070337,7.11132812 43.1220686,6.93880381 43.4638672,6.59375 C43.808921,6.24869619 43.9814453,5.83366128 43.9814453,5.34863281 C43.9814453,4.86034912 43.808921,4.44368662 43.4638672,4.09863281 C43.1220686,3.753579 42.7070337,3.58105469 42.21875,3.58105469 C41.7304663,3.58105469 41.3138038,3.753579 40.96875,4.09863281 Z M44.4404297,0.666015625 C44.560873,0.666015625 44.6650386,0.70833291 44.7529297,0.79296875 C44.8408208,0.880859814 44.8847656,0.986653027 44.8847656,1.11035156 L44.8847656,5.34863281 C44.8815104,6.08105835 44.6194687,6.7060521 44.0986328,7.22363281 C43.5777969,7.74121353 42.9511755,8 42.21875,8 C41.4830692,8 40.8548203,7.73958594 40.3339844,7.21875 C39.8131484,6.69791406 39.5527344,6.06966514 39.5527344,5.33398438 C39.5527344,4.59830361 39.8131484,3.97005469 40.3339844,3.44921875 C40.8548203,2.92838281 41.4830692,2.66796875 42.21875,2.66796875 C42.8893263,2.66796875 43.4768855,2.89094829 43.9814453,3.33691406 L43.9814453,1.11035156 C43.9814453,0.986653027 44.0253902,0.880859814 44.1132812,0.79296875 C44.2011723,0.70833291 44.3053379,0.666015625 44.4257812,0.666015625 L44.4404297,0.666015625 Z M52.4628906,4.09863281 C52.121092,3.753579 51.7060571,3.58105469 51.2177734,3.58105469 C50.7294897,3.58105469 50.3128272,3.753579 49.9677734,4.09863281 C49.6259749,4.44368662 49.4550781,4.86034912 49.4550781,5.34863281 C49.4550781,5.83366128 49.6259749,6.24869619 49.9677734,6.59375 C50.3128272,6.93880381 50.7294897,7.11132812 51.2177734,7.11132812 C51.7060571,7.11132812 52.121092,6.93880381 52.4628906,6.59375 C52.8079444,6.24869619 52.9804687,5.83366128 52.9804687,5.34863281 C52.9804687,4.86034912 52.8079444,4.44368662 52.4628906,4.09863281 Z M48.9960937,0.666015625 L49.0107422,0.666015625 C49.1311855,0.666015625 49.2353511,0.70833291 49.3232422,0.79296875 C49.4111333,0.880859814 49.4550781,0.986653027 49.4550781,1.11035156 L49.4550781,3.33691406 C49.9563827,2.89094829 50.5439419,2.66796875 51.2177734,2.66796875 C51.9534542,2.66796875 52.5817031,2.92838281 53.1025391,3.44921875 C53.623375,3.97005469 53.8837891,4.59830361 53.8837891,5.33398438 C53.8837891,6.06966514 53.623375,6.69791406 53.1025391,7.21875 C52.5817031,7.73958594 51.9534542,8 51.2177734,8 C50.4820927,8 49.8554713,7.74121353 49.3378906,7.22363281 C48.8170547,6.7060521 48.555013,6.08105835 48.5517578,5.34863281 L48.5517578,1.11035156 C48.5517578,0.986653027 48.5957027,0.880859814 48.6835937,0.79296875 C48.7714848,0.70833291 48.8756504,0.666015625 48.9960937,0.666015625 Z M55.6171875,3.1171875 C55.6171875,2.99348896 55.5732426,2.88769575 55.4853516,2.79980469 C55.3974605,2.71191362 55.2932949,2.66796875 55.1728516,2.66796875 L55.1582031,2.66796875 C55.0377598,2.66796875 54.9335942,2.71191362 54.8457031,2.79980469 C54.7578121,2.88769575 54.7138672,2.99348896 54.7138672,3.1171875 L54.7138672,5.68066406 C54.7138672,6.29264629 54.9303364,6.81347441 55.3632812,7.24316406 C55.7962261,7.67610894 56.3186818,7.89257812 56.9306641,7.89257812 C57.4156925,7.89257812 57.8518861,7.74935039 58.2392578,7.46289062 L58.2392578,7.79003906 C58.2392578,8.14811377 58.1074232,8.45735547 57.84375,8.71777344 C57.583332,8.97493618 57.2789731,9.10351562 56.9306641,9.10351562 C56.6572252,9.10351562 56.4033215,9.03515693 56.1689453,8.8984375 C55.9378244,8.76497329 55.7636725,8.58756621 55.6464844,8.36621094 C55.5944008,8.2685542 55.5179042,8.19856792 55.4169922,8.15625 C55.3160802,8.1171873 55.2135422,8.11555972 55.109375,8.15136719 L55.0898437,8.16113281 C54.96289,8.20345073 54.8750002,8.2880853 54.8261719,8.41503906 C54.7740883,8.5387376 54.778971,8.66080669 54.8408203,8.78125 C55.0296233,9.15234561 55.3063133,9.44693901 55.6708984,9.66503906 C56.0485045,9.89290479 56.4684222,10.0068359 56.9306641,10.0068359 C57.5068388,10.0068359 58.0162738,9.79036675 58.4589844,9.35742188 C58.9147158,8.91471133 59.1425781,8.39225562 59.1425781,7.79003906 L59.1425781,3.1171875 C59.1425781,2.99348896 59.0986333,2.88769575 59.0107422,2.79980469 C58.9261063,2.71191362 58.8219407,2.66796875 58.6982422,2.66796875 L58.6884766,2.66796875 C58.564778,2.66796875 58.4589848,2.71191362 58.3710937,2.79980469 C58.2832027,2.88769575 58.2392578,2.99348896 58.2392578,3.1171875 L58.2392578,5.68066406 C58.2392578,6.04524922 58.1106784,6.35449092 57.8535156,6.60839844 C57.5996081,6.86556118 57.291994,6.99414062 56.9306641,6.99414062 C56.5660789,6.99414062 56.2552096,6.86556118 55.9980469,6.60839844 C55.7441394,6.35123569 55.6171875,6.04199399 55.6171875,5.68066406 L55.6171875,3.1171875 Z" id="powered-by"></path>
            <path d="M4.77780378,21.6211056 C4.77780378,21.6148827 4.79024955,21.6397737 4.81514146,21.6957793 C4.85247933,21.789122 4.89603953,21.789122 4.94582336,21.6957793 L4.9644922,21.639774 L8.09152335,14.3497471 C8.24087484,14.0012678 8.50223603,13.8270308 8.87561475,13.8270308 L8.89428359,13.8270308 C9.19920954,13.8270308 9.43567919,13.9545972 9.60369961,14.2097338 C9.77172003,14.4648705 9.79661158,14.7324488 9.67837498,15.0124769 L6.20597024,23.114581 C5.96949705,23.718197 5.52767219,24.0200005 4.88048241,24.0200005 C4.22706965,24.0200005 3.78213335,23.718197 3.54566016,23.114581 L0.0732554201,15.0124769 C-0.0449811748,14.7324488 -0.0200896335,14.4648705 0.147930791,14.2097338 C0.315951215,13.9545972 0.552420858,13.8270308 0.857346813,13.8270308 L0.885350077,13.8270308 C1.2587288,13.8270308 1.51697854,14.0012678 1.66010705,14.3497471 C3.15362193,17.8283177 4.19284378,20.2520796 4.77780378,21.6211056 L4.77780378,21.6211056 Z M12.1053245,13.8270308 C12.3417977,13.8270308 12.5409301,13.9110379 12.7027275,14.0790547 C12.8707479,14.2470716 12.9547569,14.449311 12.9547569,14.6857791 L12.9547569,23.1705863 C12.9547569,23.4070544 12.8707479,23.6061825 12.7027275,23.7679765 C12.5409301,23.9359933 12.3417977,24.0200005 12.1053245,24.0200005 L12.0866557,24.0200005 C11.8501825,24.0200005 11.6479387,23.9359933 11.4799183,23.7679765 C11.3118979,23.6061825 11.2278889,23.4070544 11.2278889,23.1705863 L11.2278889,14.6857791 C11.2278889,14.449311 11.3118979,14.2470716 11.4799183,14.0790547 C11.6479387,13.9110379 11.8501825,13.8270308 12.0866557,13.8270308 L12.1053245,13.8270308 Z M12.0959901,12.0535287 C11.8097331,12.0535287 11.5670406,11.9539647 11.3679052,11.7548336 C11.1687699,11.5557026 11.0692038,11.3130152 11.0692038,11.0267643 C11.0692038,10.7467363 11.1687699,10.5071604 11.3679052,10.3080293 C11.5670406,10.1088983 11.8097331,10.0093342 12.0959901,10.0093342 C12.3760241,10.0093342 12.6156052,10.1088983 12.8147406,10.3080293 C13.0200988,10.5071604 13.1227765,10.7467363 13.1227765,11.0267643 C13.1227765,11.3130152 13.0200988,11.5557026 12.8147406,11.7548336 C12.6156052,11.9539647 12.3760241,12.0535287 12.0959901,12.0535287 L12.0959901,12.0535287 Z M17.6032987,16.5619576 C16.9498859,17.2215792 16.6231845,18.0180915 16.6231845,18.9515183 C16.6231845,19.8787222 16.9498859,20.6721231 17.6032987,21.3317447 C18.2629344,21.9913663 19.0594638,22.3211722 19.9929106,22.3211722 C20.9263574,22.3211722 21.7197752,21.9913663 22.373188,21.3317447 C23.0328237,20.6721231 23.3626367,19.8787222 23.3626367,18.9515183 C23.3626367,18.0180915 23.0328237,17.2215792 22.373188,16.5619576 C21.7197752,15.902336 20.9263574,15.5725301 19.9929106,15.5725301 C19.0594638,15.5725301 18.2629344,15.902336 17.6032987,16.5619576 L17.6032987,16.5619576 Z M24.2400723,10 C24.4703225,10 24.6694548,10.0808958 24.8374752,10.2426898 C25.0054957,10.4107066 25.0895046,10.612946 25.0895046,10.8494141 L25.0895046,18.9515183 C25.0832816,20.3516585 24.5823394,21.5464269 23.5866628,22.5358593 C22.5909862,23.5252917 21.3930808,24.0200005 19.9929106,24.0200005 C18.5865174,24.0200005 17.3855005,23.5221803 16.3898239,22.526525 C15.3941473,21.5308698 14.8963165,20.3298787 14.8963165,18.9235156 C14.8963165,17.5171526 15.3941473,16.3161614 16.3898239,15.3205062 C17.3855005,14.3248509 18.5865174,13.8270308 19.9929106,13.8270308 C21.2748442,13.8270308 22.398075,14.2532893 23.3626367,15.1058191 L23.3626367,10.8494141 C23.3626367,10.612946 23.4466456,10.4107066 23.614666,10.2426898 C23.7826865,10.0808958 23.9818188,10 24.212069,10 L24.2400723,10 Z M29.3833384,16.5619576 C28.7299257,17.2215792 28.4032242,18.0180915 28.4032242,18.9515183 C28.4032242,19.8787222 28.7299257,20.6721231 29.3833384,21.3317447 C30.0429742,21.9913663 30.8395035,22.3211722 31.7729503,22.3211722 C32.7063971,22.3211722 33.499815,21.9913663 34.1532277,21.3317447 C34.8128635,20.6721231 35.1426764,19.8787222 35.1426764,18.9515183 C35.1426764,18.0180915 34.8128635,17.2215792 34.1532277,16.5619576 C33.499815,15.902336 32.7063971,15.5725301 31.7729503,15.5725301 C30.8395035,15.5725301 30.0429742,15.902336 29.3833384,16.5619576 L29.3833384,16.5619576 Z M36.020112,10 C36.2503622,10 36.4494945,10.0808958 36.617515,10.2426898 C36.7855354,10.4107066 36.8695444,10.612946 36.8695444,10.8494141 L36.8695444,18.9515183 C36.8633214,20.3516585 36.3623791,21.5464269 35.3667025,22.5358593 C34.3710259,23.5252917 33.1731205,24.0200005 31.7729503,24.0200005 C30.3665571,24.0200005 29.1655402,23.5221803 28.1698637,22.526525 C27.1741871,21.5308698 26.6763562,20.3298787 26.6763562,18.9235156 C26.6763562,17.5171526 27.1741871,16.3161614 28.1698637,15.3205062 C29.1655402,14.3248509 30.3665571,13.8270308 31.7729503,13.8270308 C33.0548839,13.8270308 34.1781147,14.2532893 35.1426764,15.1058191 L35.1426764,10.8494141 C35.1426764,10.612946 35.2266854,10.4107066 35.3947058,10.2426898 C35.5627262,10.0808958 35.7618585,10 35.9921087,10 L36.020112,10 Z M46.1292903,16.7766447 L40.2206016,19.446232 C40.1957097,19.284438 40.1832639,19.1195351 40.1832639,18.9515183 C40.1832639,18.0180915 40.5099654,17.2215792 41.1633782,16.5619576 C41.8230139,15.902336 42.6195432,15.5725301 43.55299,15.5725301 C44.5984504,15.5725301 45.4572086,15.9738976 46.1292903,16.7766447 L46.1292903,16.7766447 Z M46.3346476,14.6577765 C45.4945455,14.1039432 44.5673356,13.8270308 43.55299,13.8270308 C42.1465969,13.8270308 40.94558,14.3248509 39.9499034,15.3205062 C38.9542268,16.3161614 38.456396,17.5171526 38.456396,18.9235156 C38.456396,20.3298787 38.9542268,21.5308698 39.9499034,22.526525 C40.94558,23.5221803 42.1465969,24.0200005 43.55299,24.0200005 C44.6482343,24.0200005 45.6407845,23.6995287 46.5306704,23.0585757 C47.4018875,22.4362911 48.0117302,21.6211106 48.360217,20.6130097 C48.4597847,20.3329816 48.4255588,20.0747374 48.2575384,19.8382693 C48.083295,19.5955783 47.8499368,19.4742347 47.5574568,19.4742347 C47.1467402,19.4742347 46.8729332,19.66714 46.7360277,20.0529564 C46.5057775,20.7188008 46.1044014,21.2601803 45.5318874,21.6771109 C44.9407044,22.1064872 44.2810785,22.3211722 43.55299,22.3211722 C42.4577458,22.3211722 41.5740961,21.8918023 40.9020144,21.0330496 C41.4247446,20.7965815 42.566644,20.2800931 44.327747,19.4835689 C45.7465861,18.8426158 46.891597,18.3261274 47.7628141,17.9340881 C47.9806183,17.8345226 48.1299676,17.6758424 48.2108663,17.4580429 C48.291765,17.2340204 48.2824307,17.0162241 48.182863,16.8046474 C47.7783694,15.9147805 47.1623038,15.199164 46.3346476,14.6577765 L46.3346476,14.6577765 Z M57.2932582,16.5619576 C57.952894,17.2215792 58.2827069,18.0180915 58.2827069,18.9515183 C58.2827069,19.8787222 57.952894,20.6721231 57.2932582,21.3317447 C56.6398455,21.9913663 55.8464276,22.3211722 54.9129808,22.3211722 C53.979534,22.3211722 53.1830047,21.9913663 52.5233689,21.3317447 C51.8699562,20.6721231 51.5432547,19.8787222 51.5432547,18.9515183 C51.5432547,18.0180915 51.8699562,17.2215792 52.5233689,16.5619576 C53.1830047,15.902336 53.979534,15.5725301 54.9129808,15.5725301 C55.8464276,15.5725301 56.6398455,15.902336 57.2932582,16.5619576 L57.2932582,16.5619576 Z M51.3098942,15.3205062 C50.3142176,16.3161614 49.8163868,17.5171526 49.8163868,18.9235156 C49.8163868,20.3298787 50.3142176,21.5308698 51.3098942,22.526525 C52.3055708,23.5221803 53.5065876,24.0200005 54.9129808,24.0200005 C56.319374,24.0200005 57.5203909,23.5221803 58.5160674,22.526525 C59.511744,21.5308698 60.0095749,20.3298787 60.0095749,18.9235156 C60.0095749,17.5171526 59.511744,16.3161614 58.5160674,15.3205062 C57.5203909,14.3248509 56.319374,13.8270308 54.9129808,13.8270308 C53.5065876,13.8270308 52.3055708,14.3248509 51.3098942,15.3205062 L51.3098942,15.3205062 Z" id="viddeo-logo"></path>
        </g>
    </g>
</svg>