<?xml version="1.0" encoding="UTF-8" standalone="no"?>
<svg width="17px" height="21px" viewBox="0 0 17 21" version="1.1" fill="#958E8E" xmlns="http://www.w3.org/2000/svg" xmlns:xlink="http://www.w3.org/1999/xlink" xmlns:sketch="http://www.bohemiancoding.com/sketch/ns">
    <!-- Generator: Sketch 3.5.2 (25235) - http://www.bohemiancoding.com/sketch -->
    <g id="Page-1" stroke="none" stroke-width="1" fill-rule="evenodd" sketch:type="MSPage">
        <path d="M5.83450003,15.8365001 C5.83450003,16.2965921 5.46109202,16.6700001 5.00100002,16.6700001 C4.54090802,16.6700001 4.16750002,16.2965921 4.16750002,15.8365001 L4.16750002,7.50150003 C4.16750002,7.04140803 4.54090802,6.66800003 5.00100002,6.66800003 C5.46109202,6.66800003 5.83450003,7.04140803 5.83450003,7.50150003 L5.83450003,15.8365001 L5.83450003,15.8365001 Z M9.16850004,15.8365001 C9.16850004,16.2965921 8.79509204,16.6700001 8.33500004,16.6700001 C7.87490804,16.6700001 7.50150003,16.2965921 7.50150003,15.8365001 L7.50150003,7.50150003 C7.50150003,7.04140803 7.87490804,6.66800003 8.33500004,6.66800003 C8.79509204,6.66800003 9.16850004,7.04140803 9.16850004,7.50150003 L9.16850004,15.8365001 L9.16850004,15.8365001 Z M12.5025001,15.8365001 C12.5025001,16.2965921 12.1290921,16.6700001 11.6690001,16.6700001 C11.2089081,16.6700001 10.8355,16.2965921 10.8355,15.8365001 L10.8355,7.50150003 C10.8355,7.04140803 11.2089081,6.66800003 11.6690001,6.66800003 C12.1290921,6.66800003 12.5025001,7.04140803 12.5025001,7.50150003 L12.5025001,15.8365001 L12.5025001,15.8365001 Z M16.6700001,1.66700001 L16.6700001,3.33400002 L0,3.33400002 L0,1.66700001 L4.76011852,1.66700001 C5.51026853,1.66700001 6.11955703,0.750983503 6.11955703,0 L10.5496095,0 C10.5496095,0.750983503 11.1580646,1.66700001 11.9090481,1.66700001 L16.6700001,1.66700001 L16.6700001,1.66700001 Z M14.1695001,5.00100002 L14.1695001,18.3370001 L2.50050001,18.3370001 L2.50050001,5.00100002 L0.833500004,5.00100002 L0.833500004,20.0040001 L15.8365001,20.0040001 L15.8365001,5.00100002 L14.1695001,5.00100002 L14.1695001,5.00100002 Z" id="Shape" sketch:type="MSShapeGroup"></path>
    </g>
</svg>