<?xml version="1.0" encoding="UTF-8"?>
<svg width="68px" height="61px" viewBox="0 0 68 61" version="1.1" xmlns="http://www.w3.org/2000/svg" xmlns:xlink="http://www.w3.org/1999/xlink">
    <!-- Generator: Sketch 42 (36781) - http://www.bohemiancoding.com/sketch -->
    <title>137643</title>
    <desc>Created with Sketch.</desc>
    <defs></defs>
    <g id="Page-1" stroke="none" stroke-width="1" fill="none" fill-rule="evenodd">
        <g id="137643" fill-rule="nonzero" fill="#FFFFFF">
            <g id="Capa_1">
                <g id="Group">
                    <path d="M65.7333333,38.5248889 L65.7333333,38.4074074 L65.7333333,25.9814815 L65.7333333,13.5555556 L65.7333333,1.12962963 C65.7333333,0.504944444 65.2256,0 64.6,0 L53.2666667,0 L12.4666667,0 L1.13333333,0 C0.507733333,0 0,0.504944444 0,1.12962963 L0,13.5555556 L0,25.9814815 L0,38.4074074 L0,50.8333333 C0,51.4580185 0.507733333,51.962963 1.13333333,51.962963 L12.4666667,51.962963 L39.6700667,51.962963 C41.8948,57.2643148 47.1500667,61 53.2666667,61 C61.3904,61 68,54.412 68,46.3148148 C68,43.4512037 67.1613333,40.7852778 65.7333333,38.5248889 Z M54.4,31.6736852 L54.4,27.1111111 L63.4666667,27.1111111 L63.4666667,35.7211481 C63.274,35.5358889 63.0654667,35.3698333 62.8637333,35.1958704 C62.764,35.1111481 62.6699333,35.0207778 62.5679333,34.9383148 C62.3016,34.7214259 62.0239333,34.5203519 61.7428667,34.3226667 C61.6386,34.2492407 61.5377333,34.1701667 61.4312,34.099 C61.1535333,33.9148704 60.8668,33.7465556 60.5766667,33.5816296 C60.4531333,33.510463 60.3341333,33.4347778 60.2083333,33.3681296 C59.9408667,33.2257963 59.6654667,33.1004074 59.3900667,32.9738889 C59.3458667,32.9535556 59.3028,32.930963 59.2586,32.9106296 C59.143,32.8586667 59.0296667,32.8021852 58.9129333,32.7536111 C58.701,32.6655 58.4845333,32.5932037 58.2692,32.5152593 C58.1774,32.4825 58.0867333,32.4486111 57.9938,32.4169815 C57.8487333,32.3684074 57.7070667,32.3119259 57.5608667,32.2678704 C57.4033333,32.2204259 57.2424,32.1842778 57.0826,32.1413519 C56.9386667,32.1029444 56.7936,32.0679259 56.6485333,32.034037 C56.4864667,31.9956296 56.3289333,31.9493148 56.1646,31.9165556 C56.0569333,31.8950926 55.9481333,31.8826667 55.8404667,31.863463 C55.6308,31.8261852 55.4177333,31.7990741 55.2058,31.7708333 C55.0471333,31.7505 54.893,31.7188704 54.7332,31.7030556 C54.6697333,31.6974074 54.6062667,31.6962778 54.5428,31.6906296 C54.4952,31.6872407 54.4476,31.6770741 54.4,31.6736852 Z M63.4666667,24.8518519 L54.4,24.8518519 L54.4,14.6851852 L63.4666667,14.6851852 L63.4666667,24.8518519 Z M63.4666667,2.25925926 L63.4666667,12.4259259 L54.4,12.4259259 L54.4,2.25925926 L63.4666667,2.25925926 Z M11.3333333,24.8518519 L2.26666667,24.8518519 L2.26666667,14.6851852 L11.3333333,14.6851852 L11.3333333,24.8518519 Z M2.26666667,27.1111111 L11.3333333,27.1111111 L11.3333333,37.2777778 L2.26666667,37.2777778 L2.26666667,27.1111111 Z M2.26666667,2.25925926 L11.3333333,2.25925926 L11.3333333,12.4259259 L2.26666667,12.4259259 L2.26666667,2.25925926 Z M2.26666667,49.7037037 L2.26666667,39.537037 L11.3333333,39.537037 L11.3333333,49.7037037 L2.26666667,49.7037037 Z M38.9402,49.7037037 L13.6,49.7037037 L13.6,38.4074074 L13.6,25.9814815 L13.6,13.5555556 L13.6,2.25925926 L52.1333333,2.25925926 L52.1333333,13.5555556 L52.1333333,25.9814815 L52.1333333,31.6872407 C44.5388667,32.2667407 38.5333333,38.5994444 38.5333333,46.3148148 C38.5333333,46.8717222 38.5707333,47.418463 38.6319333,47.9595556 C38.6421333,48.0442778 38.6591333,48.1278704 38.6704667,48.2125926 C38.7339333,48.6960741 38.8189333,49.1716481 38.9277333,49.6381852 C38.9334,49.6596481 38.9345333,49.6822407 38.9402,49.7037037 Z M53.2666667,58.7407407 C47.8414,58.7407407 43.2264667,55.2614815 41.5174,50.4289259 C41.4108667,50.1273148 41.3179333,49.8234444 41.2352,49.5184444 C41.2182,49.4529259 41.2012,49.388537 41.1842,49.3230185 C41.1162,49.0541667 41.0572667,48.7853148 41.0074,48.5142037 C40.9802,48.363963 40.9598,48.2125926 40.9382667,48.0612222 C40.9088,47.8578889 40.8770667,47.6545556 40.8578,47.4512222 C40.8238,47.0761852 40.8,46.6977593 40.8,46.3148148 C40.8,39.4636111 46.393,33.8888889 53.2666667,33.8888889 C53.7494667,33.8888889 54.2277333,33.9239074 54.7003333,33.9781296 C54.7955333,33.9894259 54.8884667,34.0086296 54.9836667,34.0210556 C55.2783333,34.0628519 55.5696,34.1182037 55.8597333,34.1803333 C55.9402,34.1972778 56.0229333,34.2074444 56.1034,34.2266481 C56.1918,34.2469815 56.2790667,34.2718333 56.3674667,34.2944259 C56.746,34.3927037 57.1211333,34.5056667 57.4883333,34.638963 C57.5540667,34.6626852 57.6209333,34.6864074 57.6866667,34.7112593 C58.1048667,34.870537 58.5151333,35.0490185 58.9140667,35.2523519 C58.9254,35.258 58.9367333,35.2625185 58.9480667,35.2681667 C59.3560667,35.4771481 59.7516,35.7132407 60.1346667,35.9662778 C60.1607333,35.9832222 60.1879333,35.9979074 60.214,36.0148519 C60.5687333,36.2520741 60.9064667,36.5152778 61.2351333,36.7886481 C61.2906667,36.834963 61.3507333,36.8778889 61.4051333,36.9253333 C61.6998,37.1783704 61.9763333,37.454 62.2472,37.7352778 C62.322,37.8132222 62.4002,37.8877778 62.4738667,37.9679815 C62.4840667,37.9792778 62.4942667,37.9905741 62.5044667,38.0018704 C62.7402,38.2616852 62.9600667,38.5395741 63.1742667,38.8208519 C63.3261333,39.0196667 63.4882,39.2094444 63.6287333,39.4195556 C64.957,41.3930185 65.7333333,43.7652407 65.7333333,46.3148148 C65.7333333,53.1660185 60.1403333,58.7407407 53.2666667,58.7407407 Z" id="Shape"></path>
                    <path d="M58.8766667,40.7242778 C58.4335333,40.2825926 57.7172667,40.2825926 57.2741333,40.7242778 L53.2666667,44.7175185 L49.2592,40.7242778 C48.8160667,40.2825926 48.0998,40.2825926 47.6566667,40.7242778 C47.2135333,41.165963 47.2135333,41.8798889 47.6566667,42.3215741 L51.6641333,46.3148148 L47.6566667,50.3080556 C47.2135333,50.7497407 47.2135333,51.4636667 47.6566667,51.9053519 C47.8776667,52.1256296 48.1678,52.2363333 48.4579333,52.2363333 C48.7480667,52.2363333 49.0382,52.1256296 49.2592,51.9053519 L53.2666667,47.9121111 L57.2741333,51.9053519 C57.4951333,52.1256296 57.7852667,52.2363333 58.0754,52.2363333 C58.3655333,52.2363333 58.6556667,52.1256296 58.8766667,51.9053519 C59.3198,51.4636667 59.3198,50.7497407 58.8766667,50.3080556 L54.8692,46.3148148 L58.8766667,42.3215741 C59.3186667,41.8798889 59.3186667,41.1648333 58.8766667,40.7242778 Z" id="Shape"></path>
                    <path d="M41.9333333,25.9814815 C41.9333333,25.5951481 41.735,25.2359259 41.4086,25.0280741 L28.9419333,17.1206667 C28.5928667,16.9003889 28.1508667,16.8857037 27.7870667,17.0833889 C27.4255333,17.2822037 27.2,17.6617593 27.2,18.0740741 L27.2,33.8888889 C27.2,34.3012037 27.4255333,34.6807593 27.7882,34.8795741 C27.9582,34.9722037 28.1452,35.0185185 28.3333333,35.0185185 C28.5452667,35.0185185 28.7572,34.9586481 28.9419333,34.8422963 L41.4086,26.9348889 C41.735,26.727037 41.9333333,26.3678148 41.9333333,25.9814815 Z M29.4666667,31.8318333 L29.4666667,20.1311296 L38.6886,25.9814815 L29.4666667,31.8318333 Z" id="Shape"></path>
                </g>
            </g>
        </g>
    </g>
</svg>