<?xml version="1.0" encoding="UTF-8"?>
<svg width="23px" height="23px" viewBox="0 0 23 23" version="1.1" xmlns="http://www.w3.org/2000/svg" xmlns:xlink="http://www.w3.org/1999/xlink">
    <!-- Generator: Sketch 41.2 (35397) - http://www.bohemiancoding.com/sketch -->
    <title>M</title>
    <desc>Created with Sketch.</desc>
    <defs></defs>
    <g id="Page-1" stroke="none" stroke-width="1" fill="none" fill-rule="evenodd">
        <path d="M11.8544922,4.21191406 C11.1669888,4.49121233 10.6513689,4.92626658 10.3076172,5.51708984 C9.96386547,6.10791311 9.79199219,6.7900352 9.79199219,7.56347656 L9.79199219,9.67431641 L7.39111328,9.67431641 L7.39111328,12.4458008 L9.79199219,12.4458008 L9.79199219,19.5678711 L12.6601562,19.5678711 L12.6601562,12.4458008 L15.0610352,12.4458008 C15.0717774,12.3706051 15.1899403,11.4467862 15.4155273,9.67431641 L12.6601562,9.67431641 L12.6601562,8.11132812 C12.6601562,7.68163848 12.6816404,7.41308647 12.7246094,7.30566406 C12.7246094,7.2626951 12.7622067,7.17138742 12.8374023,7.03173828 C12.9448248,6.84912018 13.116698,6.72021522 13.3530273,6.64501953 C13.514161,6.58056608 13.8095682,6.54833984 14.2392578,6.54833984 L15.512207,6.54833984 L15.512207,4.06689453 C14.8461881,3.99169884 14.1533239,3.95410156 13.4335938,3.95410156 L13.3530273,3.95410156 C12.805173,3.95410156 12.3056663,4.0400382 11.8544922,4.21191406 Z M2.734375,0.3125 L20.265625,0.3125 C21.1787155,0.3125 21.9038059,0.715328003 22.440918,1.52099609 C22.709474,1.97217022 22.84375,2.48241903 22.84375,3.05175781 L22.84375,20.2607422 C22.84375,21.2275439 22.4677772,21.9902316 21.7158203,22.5488281 C21.2968729,22.8496109 20.8134793,23 20.265625,23 L2.734375,23 C1.8212845,23 1.09619409,22.597172 0.559082031,21.7915039 C0.290526001,21.3403298 0.15625,20.830081 0.15625,20.2607422 L0.15625,3.05175781 C0.15625,2.0849561 0.532222803,1.32226842 1.28417969,0.763671875 C1.70312709,0.462889121 2.1865207,0.3125 2.734375,0.3125 Z" id="M" fill="#FFFFFF"></path>
    </g>
</svg>