<?xml version="1.0" encoding="UTF-8"?>
<svg width="79px" height="57px" viewBox="0 0 79 57" version="1.1" xmlns="http://www.w3.org/2000/svg" xmlns:xlink="http://www.w3.org/1999/xlink">
    <!-- Generator: Sketch 41.2 (35397) - http://www.bohemiancoding.com/sketch -->
    <title>radar</title>
    <desc>Created with Sketch.</desc>
    <defs></defs>
    <g id="Page-1" stroke="none" stroke-width="1" fill="none" fill-rule="evenodd">
        <g id="radar" transform="translate(3.000000, 2.000000)" stroke="#FFFFFF" stroke-width="6">
            <path d="M8.5922006,2.97419886 C3.23112897,9.32733777 0,17.5363336 0,26.5 C0,36.775709 4.24625936,46.0596511 11.0798058,52.6928538 M62.5008767,52.1164961 C68.9934627,45.5271 73,36.4814385 73,26.5 C73,16.2840232 68.8029638,7.04831673 62.0391009,0.423090156" id="Oval-4"></path>
            <path d="M17.9618522,11.1683791 C14.2503937,15.3937593 12,20.9340758 12,27 C12,33.9243852 14.3092641,39.6195392 19,44 M53.4963694,43.4280434 C57.5294794,39.1343373 60,33.3556792 60,27 C60,20.2653215 57.2260523,14.1785333 52.7583901,9.8198686" id="Oval-4"></path>
            <circle id="Oval-4" cx="35.5" cy="26.5" r="11.5"></circle>
        </g>
    </g>
</svg>