<?xml version="1.0" encoding="UTF-8"?>
<svg width="12px" height="12px" viewBox="0 0 12 12" version="1.1" xmlns="http://www.w3.org/2000/svg" xmlns:xlink="http://www.w3.org/1999/xlink">
    <!-- Generator: Sketch 41.2 (35397) - http://www.bohemiancoding.com/sketch -->
    <title>share - material</title>
    <desc>Created with Sketch.</desc>
    <defs></defs>
    <g id="Page-1" stroke="none" stroke-width="1" fill="none" fill-rule="evenodd">
        <g id="Desktop-HD,-2-version" transform="translate(-1276.000000, -34.000000)" fill="#FFFFFF">
            <g id="sharebutton" transform="translate(1215.000000, 22.000000)">
                <path d="M70.5,20.48 C70.7986682,20.48 71.0786654,20.5569992 71.34,20.711 C71.6013346,20.8650008 71.8089992,21.0726654 71.963,21.334 C72.1170008,21.5953346 72.194,21.8753318 72.194,22.174 C72.194,22.4726682 72.1170008,22.7549987 71.963,23.021 C71.8089992,23.2870013 71.6013346,23.4993325 71.34,23.658 C71.0786654,23.8166675 70.7986682,23.896 70.5,23.896 C70.2013318,23.896 69.9213346,23.8166675 69.66,23.658 C69.3986654,23.4993325 69.1910008,23.2870013 69.037,23.021 C68.8829992,22.7549987 68.806,22.4726682 68.806,22.174 C68.806,21.9873324 68.8153332,21.8613337 68.834,21.796 L64.704,19.388 C64.3679983,19.6960015 63.966669,19.85 63.5,19.85 C63.1919985,19.85 62.902668,19.7706675 62.632,19.612 C62.361332,19.4533325 62.1466675,19.238668 61.988,18.968 C61.8293325,18.697332 61.75,18.4080015 61.75,18.1 C61.75,17.7919985 61.8293325,17.502668 61.988,17.232 C62.1466675,16.961332 62.361332,16.7466675 62.632,16.588 C62.902668,16.4293325 63.1919985,16.35 63.5,16.35 C63.966669,16.35 64.3679983,16.5039985 64.704,16.812 L68.806,14.432 C68.7686665,14.2453324 68.75,14.1100004 68.75,14.026 C68.75,13.7179985 68.8293325,13.428668 68.988,13.158 C69.1466675,12.887332 69.361332,12.6726675 69.632,12.514 C69.902668,12.3553325 70.1919985,12.276 70.5,12.276 C70.8080015,12.276 71.097332,12.3553325 71.368,12.514 C71.638668,12.6726675 71.8533325,12.887332 72.012,13.158 C72.1706675,13.428668 72.25,13.7179985 72.25,14.026 C72.25,14.3340015 72.1706675,14.623332 72.012,14.894 C71.8533325,15.164668 71.638668,15.3793325 71.368,15.538 C71.097332,15.6966675 70.8080015,15.776 70.5,15.776 C70.0706645,15.776 69.6693352,15.6126683 69.296,15.286 L65.194,17.694 C65.2313335,17.8620008 65.25,17.9926662 65.25,18.086 C65.25,18.1793338 65.2313335,18.3193324 65.194,18.506 L69.352,20.914 C69.6880017,20.6246652 70.0706645,20.48 70.5,20.48 Z" id="share---material"></path>
            </g>
        </g>
    </g>
</svg>