<?xml version="1.0" encoding="UTF-8"?>
<svg width="60px" height="60px" viewBox="0 0 60 60" version="1.1" xmlns="http://www.w3.org/2000/svg" xmlns:xlink="http://www.w3.org/1999/xlink">
    <!-- Generator: Sketch 42 (36781) - http://www.bohemiancoding.com/sketch -->
    <title>138133</title>
    <desc>Created with Sketch.</desc>
    <defs></defs>
    <g id="Page-1" stroke="none" stroke-width="1" fill="none" fill-rule="evenodd">
        <g id="138133" fill-rule="nonzero" fill="#FFFFFF">
            <g id="Capa_1">
                <g id="Group">
                    <path d="M59.693,56.636 L47.849,36.33 C47.444,35.635 46.721,35.22 45.915,35.22 C45.11,35.22 44.388,35.635 43.982,36.33 L32.137,56.636 C31.728,57.336 31.725,58.175 32.129,58.878 C32.533,59.581 33.258,60.001 34.069,60.001 L57.76,60.001 C58.571,60.001 59.296,59.581 59.699,58.878 C60.104,58.175 60.102,57.337 59.693,56.636 Z M57.966,57.882 C57.936,57.937 57.874,58.001 57.761,58.001 L34.07,58.001 C33.956,58.001 33.895,57.937 33.864,57.882 C33.833,57.827 33.808,57.742 33.865,57.644 L45.71,37.338 C45.767,37.24 45.853,37.22 45.915,37.22 C45.978,37.22 46.063,37.241 46.121,37.338 L57.966,57.644 C58.022,57.742 57.998,57.827 57.966,57.882 Z" id="Shape"></path>
                    <path d="M46,42.001 C45.448,42.001 45,42.448 45,43.001 L45,51.001 C45,51.554 45.448,52.001 46,52.001 C46.552,52.001 47,51.554 47,51.001 L47,43.001 C47,42.448 46.552,42.001 46,42.001 Z" id="Shape"></path>
                    <path d="M45.3,54.291 C45.11,54.471 45,54.73 45,55.001 C45,55.261 45.11,55.521 45.29,55.711 C45.48,55.891 45.74,56.001 46,56.001 C46.26,56.001 46.52,55.891 46.71,55.711 C46.89,55.521 47,55.261 47,55.001 C47,54.73 46.89,54.471 46.71,54.291 C46.33,53.921 45.66,53.921 45.3,54.291 Z" id="Shape"></path>
                    <path d="M34,29.88 C34,28.021 32.72,26.469 31,26.022 L31,15.88 C31,15.327 30.552,14.88 30,14.88 C29.448,14.88 29,15.327 29,15.88 L29,26.022 C27.601,26.386 26.506,27.481 26.142,28.88 L19,28.88 C18.448,28.88 18,29.327 18,29.88 C18,30.433 18.448,30.88 19,30.88 L26.142,30.88 C26.589,32.601 28.142,33.88 30,33.88 C32.206,33.88 34,32.086 34,29.88 Z M30,31.88 C28.897,31.88 28,30.983 28,29.88 C28,28.777 28.897,27.88 30,27.88 C31.103,27.88 32,28.777 32,29.88 C32,30.983 31.103,31.88 30,31.88 Z" id="Shape"></path>
                    <path d="M29,7.88 L29,8.88 C29,9.433 29.448,9.88 30,9.88 C30.552,9.88 31,9.433 31,8.88 L31,7.88 C31,7.327 30.552,6.88 30,6.88 C29.448,6.88 29,7.327 29,7.88 Z" id="Shape"></path>
                    <path d="M51,28.88 C50.447,28.88 50,29.327 50,29.88 C50,30.433 50.447,30.88 51,30.88 L52,30.88 C52.553,30.88 53,30.433 53,29.88 C53,29.327 52.553,28.88 52,28.88 L51,28.88 Z" id="Shape"></path>
                    <path d="M8,28.88 C7.448,28.88 7,29.327 7,29.88 C7,30.433 7.448,30.88 8,30.88 L9,30.88 C9.552,30.88 10,30.433 10,29.88 C10,29.327 9.552,28.88 9,28.88 L8,28.88 Z" id="Shape"></path>
                    <path d="M44.849,13.616 L44.142,14.323 C43.751,14.714 43.751,15.346 44.142,15.737 C44.337,15.932 44.593,16.03 44.849,16.03 C45.105,16.03 45.361,15.932 45.556,15.737 L46.263,15.03 C46.654,14.639 46.654,14.007 46.263,13.616 C45.872,13.225 45.24,13.225 44.849,13.616 Z" id="Shape"></path>
                    <path d="M14.444,44.021 L13.737,44.728 C13.346,45.119 13.346,45.751 13.737,46.142 C13.932,46.337 14.188,46.435 14.444,46.435 C14.7,46.435 14.956,46.337 15.151,46.142 L15.858,45.435 C16.249,45.044 16.249,44.412 15.858,44.021 C15.467,43.63 14.834,43.631 14.444,44.021 Z" id="Shape"></path>
                    <path d="M15.858,14.323 L15.151,13.616 C14.76,13.225 14.128,13.225 13.737,13.616 C13.346,14.007 13.346,14.639 13.737,15.03 L14.444,15.737 C14.639,15.932 14.895,16.03 15.151,16.03 C15.407,16.03 15.663,15.932 15.858,15.737 C16.249,15.346 16.249,14.714 15.858,14.323 Z" id="Shape"></path>
                    <path d="M23.243,57.18 C10.735,54.082 2,42.905 2,30.001 C2,14.562 14.561,2.001 30,2.001 C45.439,2.001 58,14.562 58,30.001 C58,33.469 57.366,36.864 56.117,40.095 C55.918,40.61 56.174,41.189 56.689,41.388 C57.201,41.587 57.783,41.33 57.982,40.816 C59.321,37.354 60,33.716 60,30.001 C60,13.459 46.542,0.001 30,0.001 C13.458,0.001 0,13.459 0,30.001 C0,43.826 9.36,55.802 22.762,59.122 C22.843,59.142 22.924,59.151 23.004,59.151 C23.453,59.151 23.861,58.846 23.974,58.391 C24.106,57.855 23.779,57.313 23.243,57.18 Z" id="Shape"></path>
                </g>
            </g>
        </g>
    </g>
</svg>