<?xml version="1.0" encoding="UTF-8"?>
<svg width="23px" height="23px" viewBox="0 0 23 23" version="1.1" xmlns="http://www.w3.org/2000/svg" xmlns:xlink="http://www.w3.org/1999/xlink">
    <!-- Generator: Sketch 41.2 (35397) - http://www.bohemiancoding.com/sketch -->
    <title>N</title>
    <desc>Created with Sketch.</desc>
    <defs></defs>
    <g id="Page-1" stroke="none" stroke-width="1" fill="none" fill-rule="evenodd">
        <path d="M2.734375,0.3125 L20.265625,0.3125 C21.1787155,0.3125 21.9038059,0.715328003 22.440918,1.52099609 C22.709474,1.97217022 22.84375,2.48241903 22.84375,3.05175781 L22.84375,20.2607422 C22.84375,21.2275439 22.4677772,21.9902316 21.7158203,22.5488281 C21.2968729,22.8496109 20.8134793,23 20.265625,23 L2.734375,23 C1.8212845,23 1.09619409,22.597172 0.559082031,21.7915039 C0.290526001,21.3403298 0.15625,20.830081 0.15625,20.2607422 L0.15625,3.05175781 C0.15625,2.0849561 0.532222803,1.32226842 1.28417969,0.763671875 C1.70312709,0.462889121 2.1865207,0.3125 2.734375,0.3125 Z M11.5805664,9.20703125 L11.5805664,9.27148438 C11.5805664,9.45410248 11.6074216,9.67431512 11.6611328,9.93212891 L11.6450195,9.93212891 C11.4194325,9.93212891 10.9790072,9.87841851 10.3237305,9.77099609 C9.76513393,9.6420892 9.27099824,9.49170008 8.84130859,9.31982422 C8.37939222,9.13720612 7.88525654,8.8793962 7.35888672,8.54638672 C6.96142379,8.29931517 6.51562747,7.94482653 6.02148438,7.48291016 C5.76367059,7.22509637 5.52734482,6.97265749 5.3125,6.72558594 C5.04394397,7.23047127 4.90966797,7.72460696 4.90966797,8.20800781 L4.90966797,8.33691406 C4.90966797,9.00293302 5.15136477,9.64208678 5.63476562,10.2543945 C5.88183717,10.5336928 6.08593669,10.7163082 6.24707031,10.8022461 L6.24707031,10.8183594 C5.82812291,10.8183594 5.3715845,10.6948255 4.87744141,10.4477539 L4.87744141,10.5283203 C4.87744141,11.3339884 5.18896173,12.0537078 5.81201172,12.6875 C6.1987324,13.041994 6.55859208,13.2675776 6.89160156,13.3642578 C7.11718863,13.4501957 7.25683567,13.4931641 7.31054688,13.4931641 C7.31054688,13.5146485 7.19775503,13.5415037 6.97216797,13.5737305 C6.83251883,13.595215 6.72509803,13.605957 6.64990234,13.605957 L6.47265625,13.605957 C6.32226487,13.605957 6.15039159,13.5898439 5.95703125,13.5576172 C6.2041028,14.2666051 6.62304392,14.8090802 7.21386719,15.1850586 C7.74023701,15.5180681 8.27196997,15.6845703 8.80908203,15.6845703 C8.50829928,15.9316419 8.21826312,16.1249993 7.93896484,16.2646484 C6.99364762,16.7480493 6.05371561,16.9897461 5.11914062,16.9897461 L4.90966797,16.9897461 C4.70556539,16.9897461 4.49609482,16.979004 4.28125,16.9575195 C4.85058878,17.333498 5.47362943,17.6342762 6.15039062,17.8598633 C7.08496561,18.1821305 8.0356397,18.3432617 9.00244141,18.3432617 C10.5600664,18.3432617 11.9995051,17.983402 13.3208008,17.2636719 C13.7397482,17.0273426 14.1962866,16.6997091 14.6904297,16.2807617 C15.1630883,15.8510721 15.4853507,15.5234386 15.6572266,15.2978516 C16.0654317,14.7929662 16.4091783,14.2773464 16.6884766,13.7509766 C16.8818369,13.3964826 17.0644523,12.9829125 17.2363281,12.5102539 C17.5693376,11.5219677 17.7358398,10.5927778 17.7358398,9.72265625 L17.7358398,9.19091797 C17.9077157,9.08349556 18.1923808,8.83642771 18.5898438,8.44970703 C18.8798843,8.13818204 19.1054679,7.85888795 19.2666016,7.61181641 L19.2504883,7.61181641 C18.8637676,7.77295002 18.4609396,7.90185499 18.0419922,7.99853516 C17.7304672,8.05224636 17.5585939,8.07910156 17.5263672,8.07910156 L17.5263672,8.06298828 C17.6552741,8.00927708 17.8701157,7.84277483 18.1708984,7.56347656 C18.5146502,7.1552714 18.7402338,6.76318547 18.8476562,6.38720703 C18.4501933,6.62353634 18.0312522,6.81152274 17.5908203,6.95117187 C17.2040996,7.06933653 16.9731449,7.12841797 16.8979492,7.12841797 C16.6079087,6.8491197 16.3876961,6.67724642 16.2373047,6.61279297 C15.7431616,6.31201021 15.2221707,6.16162109 14.6743164,6.16162109 L14.6582031,6.16162109 C13.8417928,6.16162109 13.1220734,6.4570283 12.4990234,7.04785156 C11.8867157,7.67090155 11.5805664,8.39062092 11.5805664,9.20703125 Z" id="N" fill="#FFFFFF"></path>
    </g>
</svg>