<?xml version="1.0" encoding="UTF-8"?>
<svg width="191px" height="26px" viewBox="0 0 191 26" version="1.1" xmlns="http://www.w3.org/2000/svg" xmlns:xlink="http://www.w3.org/1999/xlink">
    <!-- Generator: Sketch 41 (35326) - http://www.bohemiancoding.com/sketch -->
    <title>viddeoLiveLogo</title>
    <desc>Created with Sketch.</desc>
    <defs></defs>
    <g id="Page-1" stroke="none" stroke-width="1" fill="none" fill-rule="evenodd">
        <g id="Desktop-HD,-preview-Copy-2" transform="translate(-136.000000, -26.000000)">
            <g id="viddeoLiveLogo" transform="translate(136.000000, 26.000000)">
                <path d="M8.83752669,21.4960756 C8.83752669,21.4845649 8.86054769,21.5306069 8.90659038,21.634203 C8.97565442,21.8068631 9.05622793,21.8068631 9.14831332,21.634203 L9.18284517,21.5306074 L14.9669298,8.04592066 C15.2431859,7.40132294 15.726627,7.07902891 16.4172674,7.07902891 L16.4517992,7.07902891 C17.0158223,7.07902891 17.4532213,7.31499418 17.7640095,7.7869318 C18.0747977,8.25886942 18.1208397,8.75382096 17.9021369,9.27180128 L11.4792131,24.2586235 C11.0418075,25.3751588 10.2245619,25.9334181 9.02745185,25.9334181 C7.81883112,25.9334181 6.99583029,25.3751588 6.5584247,24.2586235 L0.135500904,9.27180128 C-0.0832018959,8.75382096 -0.0371598919,8.25886942 0.273628297,7.7869318 C0.584416486,7.31499418 1.02181552,7.07902891 1.58583853,7.07902891 L1.63763631,7.07902891 C2.32827673,7.07902891 2.80596252,7.40132294 3.07070801,8.04592066 C5.83326969,14.4803872 7.75552336,18.9637274 8.83752669,21.4960756 L8.83752669,21.4960756 Z M22.3912772,7.07902891 C22.8286828,7.07902891 23.1970188,7.23442067 23.4962963,7.54520886 C23.8070845,7.85599705 23.9624763,8.23008833 23.9624763,8.66749393 L23.9624763,24.362219 C23.9624763,24.7996246 23.8070845,25.1679606 23.4962963,25.4672382 C23.1970188,25.7780263 22.8286828,25.9334181 22.3912772,25.9334181 L22.3567453,25.9334181 C21.9193397,25.9334181 21.5452484,25.7780263 21.2344602,25.4672382 C20.9236721,25.1679606 20.7682803,24.7996246 20.7682803,24.362219 L20.7682803,8.66749393 C20.7682803,8.23008833 20.9236721,7.85599705 21.2344602,7.54520886 C21.5452484,7.23442067 21.9193397,7.07902891 22.3567453,7.07902891 L22.3912772,7.07902891 Z M22.3740112,3.79850332 C21.8445202,3.79850332 21.3956107,3.6143353 21.0272691,3.24599374 C20.6589276,2.87765219 20.4747596,2.42874265 20.4747596,1.89925166 C20.4747596,1.38127134 20.6589276,0.938117055 21.0272691,0.569775498 C21.3956107,0.20143394 21.8445202,0.0172659242 22.3740112,0.0172659242 C22.8919915,0.0172659242 23.3351458,0.20143394 23.7034874,0.569775498 C24.0833396,0.938117055 24.2732629,1.38127134 24.2732629,1.89925166 C24.2732629,2.42874265 24.0833396,2.87765219 23.7034874,3.24599374 C23.3351458,3.6143353 22.8919915,3.79850332 22.3740112,3.79850332 L22.3740112,3.79850332 Z M32.5609065,12.1379447 C31.3522858,13.3580761 30.7479845,14.8314202 30.7479845,16.5580213 C30.7479845,18.2731117 31.3522858,19.7407005 32.5609065,20.9608319 C33.7810379,22.1809634 35.254382,22.7910199 36.9809831,22.7910199 C38.7075841,22.7910199 40.175173,22.1809634 41.3837937,20.9608319 C42.6039252,19.7407005 43.2139817,18.2731117 43.2139817,16.5580213 C43.2139817,14.8314202 42.6039252,13.3580761 41.3837937,12.1379447 C40.175173,10.9178133 38.7075841,10.3077567 36.9809831,10.3077567 C35.254382,10.3077567 33.7810379,10.9178133 32.5609065,12.1379447 L32.5609065,12.1379447 Z M44.8369786,0 C45.2628735,0 45.6312095,0.149636513 45.9419977,0.448914028 C46.2527859,0.759702217 46.4081777,1.1337935 46.4081777,1.5711991 L46.4081777,16.5580213 C46.396667,19.1479229 45.4700717,21.357939 43.6283639,23.1881362 C41.7866561,25.0183333 39.5708847,25.9334181 36.9809831,25.9334181 C34.3795708,25.9334181 32.1580441,25.012578 30.3163364,23.1708702 C28.4746286,21.3291624 27.5537885,19.1076358 27.5537885,16.5062235 C27.5537885,13.9048113 28.4746286,11.6832846 30.3163364,9.84157678 C32.1580441,7.99986899 34.3795708,7.07902891 36.9809831,7.07902891 C39.3521819,7.07902891 41.4298273,7.86749823 43.2139817,9.44446052 L43.2139817,1.5711991 C43.2139817,1.1337935 43.3693735,0.759702217 43.6801617,0.448914028 C43.9909498,0.149636513 44.3592859,0 44.7851808,0 L44.8369786,0 Z M54.3505028,12.1379447 C53.1418821,13.3580761 52.5375808,14.8314202 52.5375808,16.5580213 C52.5375808,18.2731117 53.1418821,19.7407005 54.3505028,20.9608319 C55.5706342,22.1809634 57.0439783,22.7910199 58.7705794,22.7910199 C60.4971804,22.7910199 61.9647693,22.1809634 63.17339,20.9608319 C64.3935215,19.7407005 65.003578,18.2731117 65.003578,16.5580213 C65.003578,14.8314202 64.3935215,13.3580761 63.17339,12.1379447 C61.9647693,10.9178133 60.4971804,10.3077567 58.7705794,10.3077567 C57.0439783,10.3077567 55.5706342,10.9178133 54.3505028,12.1379447 L54.3505028,12.1379447 Z M66.6265749,0 C67.0524698,0 67.4208058,0.149636513 67.731594,0.448914028 C68.0423822,0.759702217 68.197774,1.1337935 68.197774,1.5711991 L68.197774,16.5580213 C68.1862633,19.1479229 67.259668,21.357939 65.4179602,23.1881362 C63.5762524,25.0183333 61.360481,25.9334181 58.7705794,25.9334181 C56.1691671,25.9334181 53.9476404,25.012578 52.1059327,23.1708702 C50.2642249,21.3291624 49.3433848,19.1076358 49.3433848,16.5062235 C49.3433848,13.9048113 50.2642249,11.6832846 52.1059327,9.84157678 C53.9476404,7.99986899 56.1691671,7.07902891 58.7705794,7.07902891 C61.1417782,7.07902891 63.2194236,7.86749823 65.003578,9.44446052 L65.003578,1.5711991 C65.003578,1.1337935 65.1589698,0.759702217 65.469758,0.448914028 C65.7805462,0.149636513 66.1488822,0 66.5747771,0 L66.6265749,0 Z M85.3255708,12.5350609 L74.3962408,17.4731153 C74.3501981,17.1738377 74.3271771,16.8688095 74.3271771,16.5580213 C74.3271771,14.8314202 74.9314784,13.3580761 76.1400991,12.1379447 C77.3602305,10.9178133 78.8335746,10.3077567 80.5601757,10.3077567 C82.4939689,10.3077567 84.082418,11.050184 85.3255708,12.5350609 L85.3255708,12.5350609 Z M85.7054211,8.61569616 C84.1514801,7.5912462 82.4364155,7.07902891 80.5601757,7.07902891 C77.9587634,7.07902891 75.7372367,7.99986899 73.895529,9.84157678 C72.0538212,11.6832846 71.1329811,13.9048113 71.1329811,16.5062235 C71.1329811,19.1076358 72.0538212,21.3291624 73.895529,23.1708702 C75.7372367,25.012578 77.9587634,25.9334181 80.5601757,25.9334181 C82.5860543,25.9334181 84.4219792,25.3406273 86.0680055,24.1550279 C87.6794998,23.0039605 88.8075289,21.4960849 89.4521266,19.6313558 C89.6362974,19.1133755 89.5729897,18.6356897 89.2622015,18.1982841 C88.9399026,17.7493678 88.5082588,17.524913 87.9672572,17.524913 C87.2075527,17.524913 86.7010907,17.8817386 86.4478558,18.5954003 C86.0219609,19.8270424 85.2795336,20.828456 84.2205516,21.5996711 C83.1270376,22.3939076 81.9069245,22.7910199 80.5601757,22.7910199 C78.5342971,22.7910199 76.899806,21.9967953 75.6566532,20.4083224 C76.6235498,19.9709168 78.7357267,19.0155452 81.9932474,17.542179 C84.617681,16.3565796 86.7356132,15.401208 88.3471075,14.6760355 C88.7499811,14.4918648 89.0262331,14.198347 89.1758718,13.7954734 C89.3255106,13.3810892 89.3082449,12.9782216 89.1240741,12.5868587 C88.3758803,10.9408324 87.2363407,9.61712477 85.7054211,8.61569616 L85.7054211,8.61569616 Z M105.975616,12.1379447 C107.195747,13.3580761 107.805804,14.8314202 107.805804,16.5580213 C107.805804,18.2731117 107.195747,19.7407005 105.975616,20.9608319 C104.766995,22.1809634 103.299406,22.7910199 101.572805,22.7910199 C99.8462044,22.7910199 98.3728602,22.1809634 97.1527288,20.9608319 C95.9441081,19.7407005 95.3398068,18.2731117 95.3398068,16.5580213 C95.3398068,14.8314202 95.9441081,13.3580761 97.1527288,12.1379447 C98.3728602,10.9178133 99.8462044,10.3077567 101.572805,10.3077567 C103.299406,10.3077567 104.766995,10.9178133 105.975616,12.1379447 L105.975616,12.1379447 Z M94.9081587,9.84157678 C93.0664509,11.6832846 92.1456108,13.9048113 92.1456108,16.5062235 C92.1456108,19.1076358 93.0664509,21.3291624 94.9081587,23.1708702 C96.7498665,25.012578 98.9713932,25.9334181 101.572805,25.9334181 C104.174218,25.9334181 106.395744,25.012578 108.237452,23.1708702 C110.07916,21.3291624 111,19.1076358 111,16.5062235 C111,13.9048113 110.07916,11.6832846 108.237452,9.84157678 C106.395744,7.99986899 104.174218,7.07902891 101.572805,7.07902891 C98.9713932,7.07902891 96.7498665,7.99986899 94.9081587,9.84157678 L94.9081587,9.84157678 Z" id="viddeo-logo" fill="#228CF5"></path>
            </g>
        </g>
    </g>
</svg>
