<?xml version="1.0" encoding="UTF-8"?>
<svg width="111px" height="26px" viewBox="0 0 111 26" version="1.1" xmlns="http://www.w3.org/2000/svg" xmlns:xlink="http://www.w3.org/1999/xlink">
    <!-- Generator: Sketch 41.2 (35397) - http://www.bohemiancoding.com/sketch -->
    <title>viddeo logo</title>
    <desc>Created with Sketch.</desc>
    <defs></defs>
    <g id="Page-1" stroke="none" stroke-width="1" fill="none" fill-rule="evenodd">
        <g id="Desktop-HD,-2-version" transform="translate(-1123.000000, -1334.000000)" fill="#FFFFFF">
            <path d="M1131.83753,1355.49608 C1131.83753,1355.48456 1131.86055,1355.53061 1131.90659,1355.6342 C1131.97565,1355.80686 1132.05623,1355.80686 1132.14831,1355.6342 L1132.18285,1355.53061 L1137.96693,1342.04592 C1138.24319,1341.40132 1138.72663,1341.07903 1139.41727,1341.07903 L1139.4518,1341.07903 C1140.01582,1341.07903 1140.45322,1341.31499 1140.76401,1341.78693 C1141.0748,1342.25887 1141.12084,1342.75382 1140.90214,1343.2718 L1134.47921,1358.25862 C1134.04181,1359.37516 1133.22456,1359.93342 1132.02745,1359.93342 C1130.81883,1359.93342 1129.99583,1359.37516 1129.55842,1358.25862 L1123.1355,1343.2718 C1122.9168,1342.75382 1122.96284,1342.25887 1123.27363,1341.78693 C1123.58442,1341.31499 1124.02182,1341.07903 1124.58584,1341.07903 L1124.63764,1341.07903 C1125.32828,1341.07903 1125.80596,1341.40132 1126.07071,1342.04592 C1128.83327,1348.48039 1130.75552,1352.96373 1131.83753,1355.49608 L1131.83753,1355.49608 Z M1145.39128,1341.07903 C1145.82868,1341.07903 1146.19702,1341.23442 1146.4963,1341.54521 C1146.80708,1341.856 1146.96248,1342.23009 1146.96248,1342.66749 L1146.96248,1358.36222 C1146.96248,1358.79962 1146.80708,1359.16796 1146.4963,1359.46724 C1146.19702,1359.77803 1145.82868,1359.93342 1145.39128,1359.93342 L1145.35675,1359.93342 C1144.91934,1359.93342 1144.54525,1359.77803 1144.23446,1359.46724 C1143.92367,1359.16796 1143.76828,1358.79962 1143.76828,1358.36222 L1143.76828,1342.66749 C1143.76828,1342.23009 1143.92367,1341.856 1144.23446,1341.54521 C1144.54525,1341.23442 1144.91934,1341.07903 1145.35675,1341.07903 L1145.39128,1341.07903 Z M1145.37401,1337.7985 C1144.84452,1337.7985 1144.39561,1337.61434 1144.02727,1337.24599 C1143.65893,1336.87765 1143.47476,1336.42874 1143.47476,1335.89925 C1143.47476,1335.38127 1143.65893,1334.93812 1144.02727,1334.56978 C1144.39561,1334.20143 1144.84452,1334.01727 1145.37401,1334.01727 C1145.89199,1334.01727 1146.33515,1334.20143 1146.70349,1334.56978 C1147.08334,1334.93812 1147.27326,1335.38127 1147.27326,1335.89925 C1147.27326,1336.42874 1147.08334,1336.87765 1146.70349,1337.24599 C1146.33515,1337.61434 1145.89199,1337.7985 1145.37401,1337.7985 L1145.37401,1337.7985 Z M1155.56091,1346.13794 C1154.35229,1347.35808 1153.74798,1348.83142 1153.74798,1350.55802 C1153.74798,1352.27311 1154.35229,1353.7407 1155.56091,1354.96083 C1156.78104,1356.18096 1158.25438,1356.79102 1159.98098,1356.79102 C1161.70758,1356.79102 1163.17517,1356.18096 1164.38379,1354.96083 C1165.60393,1353.7407 1166.21398,1352.27311 1166.21398,1350.55802 C1166.21398,1348.83142 1165.60393,1347.35808 1164.38379,1346.13794 C1163.17517,1344.91781 1161.70758,1344.30776 1159.98098,1344.30776 C1158.25438,1344.30776 1156.78104,1344.91781 1155.56091,1346.13794 L1155.56091,1346.13794 Z M1167.83698,1334 C1168.26287,1334 1168.63121,1334.14964 1168.942,1334.44891 C1169.25279,1334.7597 1169.40818,1335.13379 1169.40818,1335.5712 L1169.40818,1350.55802 C1169.39667,1353.14792 1168.47007,1355.35794 1166.62836,1357.18814 C1164.78666,1359.01833 1162.57088,1359.93342 1159.98098,1359.93342 C1157.37957,1359.93342 1155.15804,1359.01258 1153.31634,1357.17087 C1151.47463,1355.32916 1150.55379,1353.10764 1150.55379,1350.50622 C1150.55379,1347.90481 1151.47463,1345.68328 1153.31634,1343.84158 C1155.15804,1341.99987 1157.37957,1341.07903 1159.98098,1341.07903 C1162.35218,1341.07903 1164.42983,1341.8675 1166.21398,1343.44446 L1166.21398,1335.5712 C1166.21398,1335.13379 1166.36937,1334.7597 1166.68016,1334.44891 C1166.99095,1334.14964 1167.35929,1334 1167.78518,1334 L1167.83698,1334 Z M1177.3505,1346.13794 C1176.14188,1347.35808 1175.53758,1348.83142 1175.53758,1350.55802 C1175.53758,1352.27311 1176.14188,1353.7407 1177.3505,1354.96083 C1178.57063,1356.18096 1180.04398,1356.79102 1181.77058,1356.79102 C1183.49718,1356.79102 1184.96477,1356.18096 1186.17339,1354.96083 C1187.39352,1353.7407 1188.00358,1352.27311 1188.00358,1350.55802 C1188.00358,1348.83142 1187.39352,1347.35808 1186.17339,1346.13794 C1184.96477,1344.91781 1183.49718,1344.30776 1181.77058,1344.30776 C1180.04398,1344.30776 1178.57063,1344.91781 1177.3505,1346.13794 L1177.3505,1346.13794 Z M1189.62657,1334 C1190.05247,1334 1190.42081,1334.14964 1190.73159,1334.44891 C1191.04238,1334.7597 1191.19777,1335.13379 1191.19777,1335.5712 L1191.19777,1350.55802 C1191.18626,1353.14792 1190.25967,1355.35794 1188.41796,1357.18814 C1186.57625,1359.01833 1184.36048,1359.93342 1181.77058,1359.93342 C1179.16917,1359.93342 1176.94764,1359.01258 1175.10593,1357.17087 C1173.26422,1355.32916 1172.34338,1353.10764 1172.34338,1350.50622 C1172.34338,1347.90481 1173.26422,1345.68328 1175.10593,1343.84158 C1176.94764,1341.99987 1179.16917,1341.07903 1181.77058,1341.07903 C1184.14178,1341.07903 1186.21942,1341.8675 1188.00358,1343.44446 L1188.00358,1335.5712 C1188.00358,1335.13379 1188.15897,1334.7597 1188.46976,1334.44891 C1188.78055,1334.14964 1189.14888,1334 1189.57478,1334 L1189.62657,1334 Z M1208.32557,1346.53506 L1197.39624,1351.47312 C1197.3502,1351.17384 1197.32718,1350.86881 1197.32718,1350.55802 C1197.32718,1348.83142 1197.93148,1347.35808 1199.1401,1346.13794 C1200.36023,1344.91781 1201.83357,1344.30776 1203.56018,1344.30776 C1205.49397,1344.30776 1207.08242,1345.05018 1208.32557,1346.53506 L1208.32557,1346.53506 Z M1208.70542,1342.6157 C1207.15148,1341.59125 1205.43642,1341.07903 1203.56018,1341.07903 C1200.95876,1341.07903 1198.73724,1341.99987 1196.89553,1343.84158 C1195.05382,1345.68328 1194.13298,1347.90481 1194.13298,1350.50622 C1194.13298,1353.10764 1195.05382,1355.32916 1196.89553,1357.17087 C1198.73724,1359.01258 1200.95876,1359.93342 1203.56018,1359.93342 C1205.58605,1359.93342 1207.42198,1359.34063 1209.06801,1358.15503 C1210.6795,1357.00396 1211.80753,1355.49608 1212.45213,1353.63136 C1212.6363,1353.11338 1212.57299,1352.63569 1212.2622,1352.19828 C1211.9399,1351.74937 1211.50826,1351.52491 1210.96726,1351.52491 C1210.20755,1351.52491 1209.70109,1351.88174 1209.44786,1352.5954 C1209.02196,1353.82704 1208.27953,1354.82846 1207.22055,1355.59967 C1206.12704,1356.39391 1204.90692,1356.79102 1203.56018,1356.79102 C1201.5343,1356.79102 1199.89981,1355.9968 1198.65665,1354.40832 C1199.62355,1353.97092 1201.73573,1353.01555 1204.99325,1351.54218 C1207.61768,1350.35658 1209.73561,1349.40121 1211.34711,1348.67604 C1211.74998,1348.49186 1212.02623,1348.19835 1212.17587,1347.79547 C1212.32551,1347.38109 1212.30824,1346.97822 1212.12407,1346.58686 C1211.37588,1344.94083 1210.23634,1343.61712 1208.70542,1342.6157 L1208.70542,1342.6157 Z M1228.97562,1346.13794 C1230.19575,1347.35808 1230.8058,1348.83142 1230.8058,1350.55802 C1230.8058,1352.27311 1230.19575,1353.7407 1228.97562,1354.96083 C1227.767,1356.18096 1226.29941,1356.79102 1224.57281,1356.79102 C1222.8462,1356.79102 1221.37286,1356.18096 1220.15273,1354.96083 C1218.94411,1353.7407 1218.33981,1352.27311 1218.33981,1350.55802 C1218.33981,1348.83142 1218.94411,1347.35808 1220.15273,1346.13794 C1221.37286,1344.91781 1222.8462,1344.30776 1224.57281,1344.30776 C1226.29941,1344.30776 1227.767,1344.91781 1228.97562,1346.13794 L1228.97562,1346.13794 Z M1217.90816,1343.84158 C1216.06645,1345.68328 1215.14561,1347.90481 1215.14561,1350.50622 C1215.14561,1353.10764 1216.06645,1355.32916 1217.90816,1357.17087 C1219.74987,1359.01258 1221.97139,1359.93342 1224.57281,1359.93342 C1227.17422,1359.93342 1229.39574,1359.01258 1231.23745,1357.17087 C1233.07916,1355.32916 1234,1353.10764 1234,1350.50622 C1234,1347.90481 1233.07916,1345.68328 1231.23745,1343.84158 C1229.39574,1341.99987 1227.17422,1341.07903 1224.57281,1341.07903 C1221.97139,1341.07903 1219.74987,1341.99987 1217.90816,1343.84158 L1217.90816,1343.84158 Z" id="viddeo-logo"></path>
        </g>
    </g>
</svg>